<?xml version="1.0" encoding="UTF-8"?>
<svg version="1.1" xmlns="http://www.w3.org/2000/svg" width="4190" height="2884">
<path d="M0 0 C0 0.66 0 1.32 0 2 C-1.06476563 2.53367187 -2.12953125 3.06734375 -3.2265625 3.6171875 C-13.12735586 8.66510068 -22.20628006 14.20799025 -31 21 C-31.91910156 21.70640625 -32.83820313 22.4128125 -33.78515625 23.140625 C-45.3930153 32.37220657 -56.45799961 42.63737943 -66 54 C-66.47614746 54.56380371 -66.95229492 55.12760742 -67.44287109 55.70849609 C-86.17033145 77.97977715 -101.47343575 102.27953793 -115 128 C-115.47904785 128.89686523 -115.9580957 129.79373047 -116.45166016 130.71777344 C-132.75186929 161.35444401 -143.92809492 194.02764391 -154.91479492 226.84440613 C-179.18747376 299.20026127 -206.69548138 371.82826354 -247 437 C-247.85658203 438.38590332 -247.85658203 438.38590332 -248.73046875 439.79980469 C-259.94722453 457.85680061 -272.08983519 475.12015538 -285 492 C-285.45729492 492.5990918 -285.91458984 493.19818359 -286.38574219 493.81542969 C-291.55161592 500.5582152 -296.88441696 507.13432508 -302.4375 513.5625 C-302.91437256 514.11494385 -303.39124512 514.6673877 -303.88256836 515.23657227 C-313.15632578 525.85796772 -322.86784753 536.05456408 -332.83666992 546.02197266 C-334.57044943 547.75795956 -336.29601538 549.5018511 -338.02148438 551.24609375 C-343.97559282 557.22934053 -349.99423045 562.86685937 -356.6328125 568.09423828 C-359.00901697 570.00725933 -361.22437818 572.02680135 -363.4375 574.125 C-371.42897321 581.39343516 -380.28597453 587.63646824 -389 594 C-389.74765625 594.54624023 -390.4953125 595.09248047 -391.265625 595.65527344 C-408.74258862 608.35636972 -427.08957338 619.56972316 -446 630 C-446.87543457 630.48436523 -447.75086914 630.96873047 -448.65283203 631.46777344 C-514.73750695 667.73862893 -589.06284088 687.18197055 -663.4375 696.8125 C-664.2024176 696.91204987 -664.96733521 697.01159973 -665.75543213 697.11416626 C-671.16361464 697.80888863 -676.57750711 698.42810294 -682 699 C-682.8706308 699.0932254 -683.7412616 699.18645081 -684.63827515 699.28250122 C-701.53147573 701.03805481 -718.37338343 701.36386599 -735.34528732 701.31805801 C-737.47011135 701.31241337 -739.59492738 701.3095956 -741.71975708 701.30697632 C-762.29237847 701.27011478 -782.58425173 700.80378484 -803 698 C-804.9505127 697.75056641 -804.9505127 697.75056641 -806.94042969 697.49609375 C-893.03331322 686.46206308 -973.58308264 653.49463895 -1047 608 C-1047.92780273 607.42830078 -1048.85560547 606.85660156 -1049.81152344 606.26757812 C-1061.18024126 599.25493753 -1072.19454856 591.8517536 -1083 584 C-1084.16861572 583.15236084 -1084.16861572 583.15236084 -1085.36083984 582.28759766 C-1109.99566996 564.37900102 -1133.82232621 545.2915057 -1156.18359375 524.59765625 C-1158.86941997 522.1204379 -1161.5850745 519.68123449 -1164.3125 517.25 C-1167.72223404 514.19374716 -1170.9874246 511.04653199 -1174.19091797 507.77661133 C-1175.96053676 506.03875492 -1177.78965715 504.42632275 -1179.67578125 502.81640625 C-1184.16081283 498.91440818 -1188.37160308 494.77615292 -1192.5625 490.5625 C-1193.27857422 489.85029297 -1193.99464844 489.13808594 -1194.73242188 488.40429688 C-1198.81874783 484.31053447 -1202.71184695 480.11107944 -1206.48803711 475.73022461 C-1208.24001827 473.72533353 -1210.08490963 471.84905277 -1212 470 C-1215.19261312 466.8501997 -1218.17161279 463.58780511 -1221.09375 460.1875 C-1223.30945648 457.64488601 -1225.59098592 455.16889802 -1227.875 452.6875 C-1231.94859909 448.22126486 -1235.80827703 443.63078621 -1239.6015625 438.92578125 C-1241.77269279 436.27728518 -1243.99365851 433.68777161 -1246.24316406 431.10644531 C-1253.01576487 423.32431879 -1259.29085762 415.22189514 -1265.49658203 406.98388672 C-1266.857769 405.18768579 -1268.23356558 403.40479293 -1269.62109375 401.62890625 C-1278.59450283 390.12858518 -1287.02241193 378.21234502 -1295 366 C-1301.62392765 368.01132013 -1307.74536704 370.6272998 -1313.94921875 373.68359375 C-1314.87592377 374.13512314 -1315.80262878 374.58665253 -1316.75741577 375.05186462 C-1319.73745643 376.50702484 -1322.71283246 377.97139056 -1325.6875 379.4375 C-1326.70431854 379.93687073 -1327.72113708 380.43624146 -1328.76876831 380.95074463 C-1342.11757346 387.50987016 -1355.41925037 394.0977402 -1368.33642578 401.48046875 C-1370.87378982 402.92799888 -1373.42016951 404.35868815 -1375.96914673 405.78564453 C-1391.29711806 414.37375205 -1406.3027759 423.36197121 -1421 433 C-1421.68271973 433.44504883 -1422.36543945 433.89009766 -1423.06884766 434.34863281 C-1443.79492498 447.87778936 -1463.79996343 462.37963127 -1483 478 C-1483.84304688 478.680625 -1484.68609375 479.36125 -1485.5546875 480.0625 C-1496.30012586 488.78343548 -1506.81065004 497.75084826 -1516.890625 507.234375 C-1519 509 -1519 509 -1521 509 C-1520.47139132 498.89371871 -1519.46307143 489.00302463 -1517.875 479 C-1517.7677359 478.32046265 -1517.6604718 477.64092529 -1517.54995728 476.9407959 C-1507.42353729 413.32792296 -1485.74959287 349.4750239 -1451 295 C-1450.58331055 294.34322266 -1450.16662109 293.68644531 -1449.73730469 293.00976562 C-1439.10511556 276.36435932 -1427.23407166 260.65535138 -1414 246 C-1413.5246582 245.46826172 -1413.04931641 244.93652344 -1412.55957031 244.38867188 C-1403.24695201 233.97470123 -1393.71706096 223.89480478 -1382.7578125 215.19921875 C-1379.9054936 212.92463583 -1377.14506241 210.56130007 -1374.375 208.1875 C-1307.3771399 152.47077059 -1214.36047735 130.54346362 -811.36203003 84.55636597 C-748.55829914 83.39553365 -685.00165282 73.93124802 -628 46 C-627.09185547 45.55817383 -626.18371094 45.11634766 -625.24804688 44.66113281 C-602.9750414 33.72254468 -583.1317638 20.47646975 -564.8984375 3.65234375 C-563 2 -563 2 -562 2 C-562.54047411 9.11380789 -564.09556444 15.37602854 -566.375 22.125 C-566.9023877 23.6867395 -566.9023877 23.6867395 -567.44042969 25.2800293 C-576.14194461 50.2282578 -589.61086345 72.39541484 -606 93 C-606.44182617 93.55896973 -606.88365234 94.11793945 -607.33886719 94.69384766 C-614.03802686 103.0740418 -621.50764172 110.70862347 -629.0625 118.3125 C-629.97241699 119.2317627 -630.88233398 120.15102539 -631.81982422 121.09814453 C-637.90633461 127.15619794 -644.2601328 132.68264321 -651 138 C-652.05755493 138.84655151 -652.05755493 138.84655151 -653.13647461 139.71020508 C-728.46754886 199.6944913 -825.00885247 222.03216336 -947.73003578 253.59568596 C-958.49924763 256.3500112 -969.25729819 259.14396862 -980 262 C-949.00936248 308.04323289 -879.42755369 331.60759596 -828 342 C-731.30619021 360.48251008 -632.73761267 350.05986647 -520 297 C-519.11699219 296.55978516 -518.23398438 296.11957031 -517.32421875 295.66601562 C-468.95863909 271.40509077 -423.93056467 239.08239721 -382.82592773 204.07421875 C-379.51357752 201.25810993 -376.15286379 198.51932347 -372.75 195.8125 C-367.02590289 191.1611473 -361.69988905 186.11140944 -356.36425781 181.02270508 C-352.69646718 177.52523584 -348.99253823 174.08838496 -345.203125 170.72265625 C-339.8942135 165.9661082 -334.83104358 160.9829248 -329.8034668 155.93383789 C-328.30695075 154.43193075 -326.805117 152.93548938 -325.30273438 151.43945312 C-321.26603552 147.40533371 -317.25165463 143.37855057 -313.5390625 139.0390625 C-309.17691629 133.94760876 -304.40461888 129.25525627 -299.6574707 124.52709961 C-298.06541034 122.94040054 -296.4787701 121.34842258 -294.89257812 119.75585938 C-289.97181209 114.83187612 -285.01367273 109.99996214 -279.71899414 105.47387695 C-277.13993835 103.26257745 -274.67337655 100.94051578 -272.1875 98.625 C-267.53614451 94.32804052 -262.74925159 90.25809858 -257.8125 86.2890625 C-255.37665188 84.30655278 -252.99326952 82.27591897 -250.62011719 80.21923828 C-241.46068737 72.31456421 -231.74057036 65.16638413 -222 58 C-221.21367187 57.41895508 -220.42734375 56.83791016 -219.6171875 56.23925781 C-158.24231905 10.96228918 -76.26563554 -33.4533336 0 0 Z " fill="#259968" transform="translate(2717,1052)"/>
<path d="M0 0 C1.70760347 1.52165278 3.41594542 3.04247722 5.125 4.5625 C12.23781802 10.97405427 18.79004231 17.7159542 25 25 C25.82371094 25.94617188 26.64742187 26.89234375 27.49609375 27.8671875 C73.56951059 81.10038175 98.19292797 146.88403493 93.7890625 217.37646484 C91.88873125 239.33464849 85.58299317 260.78246553 77 281 C76.68305176 281.74830078 76.36610352 282.49660156 76.03955078 283.26757812 C59.81869987 320.90600669 30.55893434 356.3232836 -2 381 C-3.27062847 381.99730156 -4.54006208 382.99612649 -5.80859375 383.99609375 C-30.1035057 403.02024514 -56.47555671 418.1637538 -84 432 C-84.8976709 432.45616699 -85.7953418 432.91233398 -86.72021484 433.38232422 C-159.47516805 470.19143398 -241.68452553 485.65810405 -322.54959106 488.98531723 C-325.79359859 489.11893867 -329.03730755 489.25852416 -332.28100586 489.39944458 C-336.94206862 489.60169968 -341.60320369 489.80213783 -346.2644043 490.00119019 C-434.40923468 493.77911681 -522.44721926 499.21422572 -995 574 C-996.2389502 574.39155273 -997.47790039 574.78310547 -998.75439453 575.18652344 C-1067.62754541 596.64510392 -1067.62754541 596.64510392 -1122.6484375 641.2578125 C-1123.31746094 642.12019531 -1123.31746094 642.12019531 -1124 643 C-1124.66 643 -1125.32 643 -1126 643 C-1122.40502224 576.56447423 -1101.27232282 510.94906925 -1067 454 C-1066.49758789 453.16436523 -1065.99517578 452.32873047 -1065.47753906 451.46777344 C-1052.94085259 430.79080519 -1038.59382779 411.19897104 -1022.1953125 393.40625 C-1020.96438333 392.0570465 -1019.74218518 390.69928131 -1018.5534668 389.31274414 C-1013.49215991 383.41272768 -1008.06916149 377.92067893 -1002.5625 372.4375 C-1001.20801758 371.0772168 -1001.20801758 371.0772168 -999.82617188 369.68945312 C-994.7132624 364.58394829 -989.51934121 359.66278151 -984 355 C-983.36553955 354.45883545 -982.7310791 353.9176709 -982.07739258 353.36010742 C-971.44423825 344.34228476 -960.4443 335.95975898 -949 328 C-948.36384766 327.5570459 -947.72769531 327.1140918 -947.07226562 326.65771484 C-915.08939265 304.53990975 -880.2775771 286.98881403 -844 273.125 C-842.79424316 272.65537842 -841.58848633 272.18575684 -840.34619141 271.7019043 C-834.92559688 269.63905251 -829.71563501 267.83001105 -824.00390625 266.78125 C-817.06732207 265.40148352 -811.34166494 264.17962194 -806.96826172 258.24121094 C-803.16715196 251.64976977 -800.24118645 244.71390289 -797.38597107 237.67144775 C-794.88657196 231.55025527 -791.82263813 225.84043723 -788.5 220.125 C-787.96810059 219.20146729 -787.43620117 218.27793457 -786.88818359 217.32641602 C-785.2730451 214.54229234 -783.6397501 211.76969052 -782 209 C-781.44344727 208.05463379 -780.88689453 207.10926758 -780.31347656 206.13525391 C-771.77777955 191.69079002 -762.64047003 177.72926014 -753 164 C-752.43394043 163.19159668 -751.86788086 162.38319336 -751.28466797 161.55029297 C-744.04810039 151.25512331 -736.41359059 141.37841748 -728.38818359 131.68798828 C-726.55894486 129.4636906 -724.7793598 127.20180063 -723 124.9375 C-708.99931372 107.42199708 -693.44364923 91.35791981 -677.625 75.5 C-677.01308807 74.88540924 -676.40117615 74.27081848 -675.77072144 73.63760376 C-669.35799314 67.20360533 -662.94626108 60.86339866 -656 55 C-654.80789592 53.95540292 -653.61778866 52.90852267 -652.4296875 51.859375 C-644.69760888 45.0817013 -636.82212634 38.56109928 -628.67333984 32.29101562 C-627.05291323 31.04082363 -625.44146193 29.77992722 -623.83203125 28.515625 C-557.1595114 -23.49722278 -479.59488433 -59.32733816 -309 -97 C-308.05705078 -97.11714355 -307.11410156 -97.23428711 -306.14257812 -97.35498047 C-211.4211703 -108.79566738 -109.53115161 -83.11697534 0 0 Z M-332 65 C-333.01932617 65.45133301 -334.03865234 65.90266602 -335.08886719 66.36767578 C-354.23495387 74.93433017 -370.79549573 85.76884004 -387 99 C-388.30971775 100.06402133 -389.61962 101.12781558 -390.9296875 102.19140625 C-392.96570761 103.8454734 -395.00078112 105.5006376 -397.03295898 107.15942383 C-401.37731534 110.7016643 -405.76463866 114.18149095 -410.1875 117.625 C-415.89026373 122.07149573 -421.42321348 126.69141135 -426.921875 131.38671875 C-429.7270732 133.77882269 -432.57463157 136.11455851 -435.4375 138.4375 C-444.76748613 146.04021464 -453.86891173 153.90843613 -462.78125 161.99609375 C-464.79308393 163.81311982 -466.82660434 165.59944392 -468.875 167.375 C-473.68634589 171.56802031 -478.37437057 175.89503658 -483.0637207 180.22338867 C-484.57485893 181.60991658 -486.09307121 182.98873584 -487.61401367 184.36450195 C-494.66271451 190.75328161 -501.48864176 197.33167539 -508.2019043 204.0715332 C-509.82552229 205.70056572 -511.45449603 207.32410728 -513.08398438 208.94726562 C-520.3671206 216.22404598 -527.34944493 223.35336497 -533 232 C-531.10169434 232.11275269 -531.10169434 232.11275269 -529.16503906 232.2277832 C-506.43619323 233.58409327 -483.71738555 234.95634003 -461.03808594 236.99731445 C-374.35633156 244.73756786 -277.87768546 243.2953662 -140.4296875 183.05078125 C-139.62789062 182.37402344 -138.82609375 181.69726562 -138 181 C-137.17757812 180.31292969 -136.35515625 179.62585938 -135.5078125 178.91796875 C-113.54183288 159.92868731 -101.51314675 134.68940554 -99 106 C-98.03260481 88.66162095 -99.96477404 75.26159121 -111.40234375 61.796875 C-131.12430315 40.56240443 -159.55169559 31.12666552 -188 30 C-238.10691616 28.34357302 -286.77083956 44.91601577 -332 65 Z " fill="#299A65" transform="translate(2233,527)"/>
<path d="M0 0 C240.11391129 0 240.11391129 0 280 22 C281.08925781 22.5878125 282.17851563 23.175625 283.30078125 23.78125 C290.09897465 27.58201887 296.11263448 31.91137766 302 37 C303.4540625 38.23556641 303.4540625 38.23556641 304.9375 39.49609375 C327.88365494 59.42833758 341.63042999 88.75520498 344 119 C345.55476954 155.85628534 339.03697067 190.20181074 313.5625 218.25 C295.11989552 237.92147473 271.93127873 251.57742505 246 259 C245.01 259 244.02 259 243 259 C250.89777591 269.80521946 258.89439528 280.52557229 267.03076172 291.15234375 C271.46161648 296.95040315 275.81688599 302.79780359 280.125 308.6875 C284.6511537 314.87256071 289.27050653 320.96904047 294 327 C299.3344624 333.80240433 304.50593814 340.70659786 309.609375 347.68359375 C314.00231167 353.67751178 318.48240806 359.59959344 323 365.5 C328.06662925 372.11938426 333.07429576 378.7750738 338 385.5 C343.03181865 392.3687974 348.14410546 399.17085658 353.3125 405.9375 C354.32376953 407.26152832 354.32376953 407.26152832 355.35546875 408.61230469 C356.64651629 410.30202056 357.93768916 411.99164067 359.22900391 413.68115234 C361.66053493 416.86486914 364.08629531 420.05274747 366.5 423.25 C367.1909375 424.16265625 367.881875 425.0753125 368.59375 426.015625 C370 428 370 428 370 429 C359.06536386 429.48941417 348.13337968 429.86105253 337.18997192 430.08805561 C332.10607849 430.19709783 327.02973812 430.3445149 321.95019531 430.58422852 C286.38568337 432.219165 286.38568337 432.219165 277.92578125 424.56591797 C274.29759939 420.30880552 271.70248584 415.77252801 269.35528564 410.71330261 C267.12146571 406.2411609 264.05323021 402.43573201 261 398.5 C259.855315 396.94699478 258.71420761 395.39134048 257.578125 393.83203125 C253.69964628 388.56791726 249.7264686 383.37775958 245.75 378.1875 C241.00430122 371.99122915 236.34541901 365.75935893 231.85742188 359.37451172 C227.45738541 353.15683251 222.79738151 347.13827295 218.16625977 341.09204102 C213.10880554 334.48008757 208.14221363 327.80777108 203.21972656 321.0949707 C199.0172749 315.36808863 194.76939836 309.67711616 190.5 304 C185.36108335 297.15618801 180.22713365 290.30879454 175.125 283.4375 C174.52365234 282.63376953 173.92230469 281.83003906 173.30273438 281.00195312 C172.75166016 280.25751953 172.20058594 279.51308594 171.6328125 278.74609375 C171.14699707 278.09310303 170.66118164 277.4401123 170.16064453 276.76733398 C169 275 169 275 168 272 C135.33 272 102.66 272 69 272 C69 323.81 69 375.62 69 429 C46.23 429 23.46 429 0 429 C0 287.43 0 145.86 0 0 Z M69 66 C69 112.53 69 159.06 69 207 C90.0375 207.0825 111.075 207.165 132.75 207.25 C139.35483398 207.28641602 145.95966797 207.32283203 152.76464844 207.36035156 C158.7651631 207.37374195 158.7651631 207.37374195 164.76568604 207.3817749 C167.40679601 207.38785606 170.04709771 207.40023716 172.68804932 207.42230225 C203.49559076 207.6680684 233.30520884 204.18073856 256.375 181.6875 C270.07151491 167.66487759 275.21041851 150.22867055 275 131 C274.08878391 115.11170485 268.06036371 98.77641239 256.18359375 87.74609375 C235.72282231 71.38479709 211.00155649 65.80793411 185.25 65.88647461 C183.97036377 65.88635407 182.69072754 65.88623354 181.37231445 65.88610935 C177.93140233 65.8858849 174.49052544 65.89165312 171.04962158 65.89871979 C167.81302999 65.90444245 164.57643979 65.90468441 161.33984375 65.90539551 C151.89322455 65.91062917 142.44661182 65.92459042 133 65.9375 C111.88 65.958125 90.76 65.97875 69 66 Z " fill="#2D2D2D" transform="translate(1727,2026)"/>
<path d="M0 0 C0.80147461 0.6492041 0.80147461 0.6492041 1.61914062 1.31152344 C13.66539356 11.09285219 24.51482544 21.68562682 34 34 C34.62358398 34.79301514 34.62358398 34.79301514 35.25976562 35.60205078 C72.229091 82.79955618 85.14103686 143.94642987 79.22631836 202.86157227 C73.74802749 247.90233615 55.04671805 291.52787492 24 324.84765625 C22.15918281 326.82869194 20.42275357 328.86437254 18.6875 330.9375 C10.30215272 340.51800023 0.28116909 348.55542475 -10 356 C-10.54930176 356.40041504 -11.09860352 356.80083008 -11.66455078 357.21337891 C-36.82818651 375.33966481 -65.76567722 386.72189179 -96 393 C-96.82419434 393.17789063 -97.64838867 393.35578125 -98.49755859 393.5390625 C-152.24482692 404.61146112 -213.50481147 392.47716396 -259.31445312 362.76367188 C-267.57948511 357.27127322 -275.59274044 351.61852359 -283 345 C-283.50402344 344.55479004 -284.00804688 344.10958008 -284.52734375 343.65087891 C-323.30322637 309.2802899 -346.8682794 263.04412641 -355 212 C-355.12987305 211.21915039 -355.25974609 210.43830078 -355.39355469 209.63378906 C-364.4974753 152.48564877 -349.93919406 91.11826589 -316.63916016 44.07763672 C-311.83910137 37.46657332 -306.6100399 31.26079236 -301.0703125 25.2578125 C-299.21571134 23.23524746 -297.44964839 21.16516016 -295.6875 19.0625 C-287.30215272 9.48199977 -277.28116909 1.44457525 -267 -6 C-266.45069824 -6.40041504 -265.90139648 -6.80083008 -265.33544922 -7.21337891 C-191.0989049 -60.68867324 -79.27624282 -61.16974235 0 0 Z M-241 60 C-242.16402344 61.07121094 -242.16402344 61.07121094 -243.3515625 62.1640625 C-263.97646909 81.62289664 -276.75898464 109.72579529 -283 137 C-283.16371094 137.67772461 -283.32742187 138.35544922 -283.49609375 139.05371094 C-288.75467431 161.66343438 -288.33010005 189.45841784 -283 212 C-282.80132324 212.84481934 -282.60264648 213.68963867 -282.39794922 214.56005859 C-275.20721226 244.01784167 -260.77450444 269.79850883 -239 291 C-238.56171875 291.48339844 -238.1234375 291.96679688 -237.671875 292.46484375 C-215.29867662 316.47648343 -179.6359754 329.58146043 -147.35791016 331.12646484 C-108.56991325 332.19464859 -70.68739194 322.08681996 -41.5625 295.375 C-39.69027893 293.60090956 -37.84550564 291.80220932 -36 290 C-35.22398437 289.28585937 -34.44796875 288.57171875 -33.6484375 287.8359375 C-15.68378892 270.8869581 -3.63178865 247.09045255 3.25 223.625 C3.48420654 222.83649658 3.71841309 222.04799316 3.9597168 221.2355957 C8.13339707 206.2393784 9.55983999 191.32693094 9.4375 175.8125 C9.43379395 174.96315887 9.43008789 174.11381775 9.42626953 173.23873901 C9.34135891 159.51554176 8.59125817 146.31351618 5 133 C4.61328125 131.56309814 4.61328125 131.56309814 4.21875 130.09716797 C-6.92444864 90.38017698 -31.25944917 57.71025733 -66.89404297 36.89355469 C-123.06761477 5.34780501 -195.22966676 15.30345756 -241 60 Z " fill="#2D2D2D" transform="translate(2887,2066)"/>
<path d="M0 0 C104.61 0 209.22 0 317 0 C317 21.45 317 42.9 317 65 C235.16 65 153.32 65 69 65 C69 103.28 69 141.56 69 181 C142.26 181 215.52 181 291 181 C291 202.45 291 223.9 291 246 C217.74 246 144.48 246 69 246 C69 285.27 69 324.54 69 365 C151.83 365 234.66 365 320 365 C320 386.12 320 407.24 320 429 C214.4 429 108.8 429 0 429 C0 287.43 0 145.86 0 0 Z " fill="#2D2D2D" transform="translate(1309,2026)"/>
<path d="M0 0 C104.28 0 208.56 0 316 0 C316 21.45 316 42.9 316 65 C234.16 65 152.32 65 68 65 C68 103.28 68 141.56 68 181 C141.26 181 214.52 181 290 181 C290 202.45 290 223.9 290 246 C216.74 246 143.48 246 68 246 C68 285.27 68 324.54 68 365 C150.83 365 233.66 365 319 365 C319 386.12 319 407.24 319 429 C213.73 429 108.46 429 0 429 C0 287.43 0 145.86 0 0 Z " fill="#2D2D2D" transform="translate(428,2026)"/>
<path d="M0 0 C189.11071207 0 189.11071207 0 209.3125 4.1875 C210.37388184 4.40108154 211.43526367 4.61466309 212.52880859 4.8347168 C229.01882551 8.31402403 244.24895959 13.89334847 259 22 C260.04285156 22.55300781 261.08570312 23.10601563 262.16015625 23.67578125 C291.27864951 39.75041718 312.26836353 66.89722689 321.8203125 98.63671875 C332.55679238 136.89716336 328.04091807 178.25944374 309 213 C288.83866591 247.71750686 253.63118141 268.92260225 215.78125 279.5 C194.18359708 285.13542699 172.48007394 286.45313935 150.25 286.29296875 C148.14974204 286.2885389 146.04948071 286.28549013 143.94921875 286.28381348 C136.29942752 286.26830488 128.64970793 286.22642368 121 286.1875 C95.26 286.0946875 95.26 286.0946875 69 286 C69 333.19 69 380.38 69 429 C46.23 429 23.46 429 0 429 C0 287.43 0 145.86 0 0 Z M69 66 C69 117.15 69 168.3 69 221 C86.139375 221.061875 103.27875 221.12375 120.9375 221.1875 C126.31667725 221.21481201 131.69585449 221.24212402 137.23803711 221.27026367 C142.12891102 221.28030702 142.12891102 221.28030702 147.01979065 221.28633118 C149.17072928 221.29088881 151.32166104 221.30133587 153.47254944 221.31672668 C181.27796915 221.5054607 211.54556311 217.57521614 233 198 C234.33804688 196.81664063 234.33804688 196.81664063 235.703125 195.609375 C247.74976616 184.35267753 256.21870106 169.19607987 257.14086914 152.44042969 C257.90759811 129.35785221 255.23036557 109.70039868 239 92 C222.26562129 74.45641536 196.2178533 66.76538724 172.48637581 65.90932655 C169.73968984 65.87799025 166.99464936 65.87618646 164.24780273 65.88647461 C163.19602624 65.88635407 162.14424974 65.88623354 161.06060123 65.88610935 C157.68490991 65.88685064 154.30927508 65.89444288 150.93359375 65.90234375 C148.83793159 65.9038156 146.74226905 65.90483481 144.64660645 65.90539551 C136.91023199 65.91062021 129.17386543 65.92458148 121.4375 65.9375 C95.4809375 65.9684375 95.4809375 65.9684375 69 66 Z " fill="#2D2D2D" transform="translate(3070,2026)"/>
<path d="M0 0 C25.08 0 50.16 0 76 0 C84.41784435 19.89672302 92.77869255 39.80850184 100.9375 59.8125 C106.73114334 74.01670228 112.55323476 88.20807672 118.4375 102.375 C118.78370392 103.20864075 119.12990784 104.04228149 119.48660278 104.90118408 C120.19007835 106.59511328 120.89355431 108.28904231 121.59703064 109.98297119 C122.12327782 111.25016998 122.12327782 111.25016998 122.66015625 112.54296875 C123.18875999 113.81572662 123.18875999 113.81572662 123.7280426 115.11419678 C127.95702253 125.29978937 132.16619537 135.49355809 136.375 145.6875 C136.77032928 146.64493103 137.16565857 147.60236206 137.57296753 148.58880615 C139.5797339 153.44894744 141.5863121 158.30916637 143.59277344 163.16943359 C147.16552343 171.82344811 150.74008263 180.47671533 154.31451416 189.1300354 C156.29308438 193.91999265 158.27153617 198.70999881 160.25 203.5 C161.0416661 205.4166669 161.83333277 207.33333357 162.625 209.25 C167.37499998 220.74999996 167.37499998 220.74999996 168.56234741 223.62463379 C169.35451968 225.54252241 170.14669498 227.46040978 170.93887329 229.3782959 C172.91032894 234.1512565 174.8817331 238.92423836 176.85302734 243.69726562 C180.50712198 252.5446489 184.16168842 261.39183629 187.8180542 270.23828125 C189.5134219 274.34025037 191.20850274 278.44233802 192.90356445 282.54443359 C193.6985072 284.46799484 194.49358476 286.39150038 195.28881836 288.31494141 C200.89048761 301.86389579 206.4575072 315.42672957 212 329 C215.30643633 322.57085949 218.31998024 316.09661973 221.046875 309.40234375 C221.41513397 308.50735168 221.78339294 307.61235962 222.16281128 306.69024658 C223.36193848 303.77404694 224.55591358 300.85576682 225.75 297.9375 C226.59640837 295.87718165 227.44325774 293.81704441 228.29052734 291.75708008 C230.02338789 287.54364469 231.75480298 283.32961981 233.48535156 279.11523438 C236.83335056 270.96733884 240.20699886 262.83012951 243.58435059 254.69436646 C244.63117331 252.17262884 245.67748196 249.65067852 246.72363281 247.12866211 C248.11800879 243.76718816 249.51254537 240.40578092 250.90722656 237.04443359 C254.0846607 229.3860264 257.25997729 221.72674117 260.43548584 214.0675354 C262.20690689 209.79498891 263.97846002 205.52249718 265.75 201.25 C266.45833397 199.54166693 267.1666673 197.8333336 267.875 196.125 C287 150 287 150 306.125 103.875 C306.47559479 103.0294455 306.82618958 102.18389099 307.18740845 101.31271362 C307.89604018 99.6036654 308.6046787 97.89462 309.31332397 96.18557739 C311.07964724 91.92570478 312.84585428 87.66578406 314.61181641 83.40576172 C317.85255078 75.58848561 321.09424976 67.77161519 324.34014893 59.95648193 C325.82870127 56.37229951 327.31659217 52.78784267 328.80444336 49.20336914 C329.49536202 47.53933449 330.18658338 45.87542548 330.87817383 44.21166992 C336.99190739 29.5035114 342.99002928 14.75174631 349 0 C373.75 0 398.5 0 424 0 C420.62512803 10.12461591 420.62512803 10.12461591 418.91308594 14.12182617 C418.52618591 15.03005127 418.13928589 15.93827637 417.74066162 16.87402344 C417.32608704 17.83727539 416.91151245 18.80052734 416.484375 19.79296875 C416.04063538 20.83203369 415.59689575 21.87109863 415.13970947 22.94165039 C413.67974537 26.35834348 412.21485899 29.77290302 410.75 33.1875 C409.72098348 35.59334735 408.69234394 37.99935596 407.6640625 40.40551758 C406.06410452 44.1490531 404.46377189 47.89242654 402.86169434 51.63505554 C397.71087998 63.6680519 392.58475967 75.71151467 387.46032715 87.75576782 C380.54253593 104.01240371 373.61161613 120.26326597 366.64233398 136.49789429 C360.56643579 150.6531472 354.53310614 164.82646562 348.5 179 C341.89992544 194.50550935 335.29238065 210.00758822 328.64453125 225.49267578 C322.56791685 239.64967505 316.53384529 253.82472915 310.5 268 C303.89992544 283.50550935 297.29238065 299.00758822 290.64453125 314.49267578 C284.06386833 329.82398267 277.53248772 345.17624181 270.99859619 360.52752686 C264.22390269 376.44390858 257.4354584 392.354192 250.60351562 408.24609375 C247.66966969 415.07562167 244.77545821 421.91792024 241.96728516 428.80029297 C241 431 241 431 240 432 C238.22008076 432.09370624 236.43643261 432.11744271 234.65405273 432.11352539 C233.5129454 432.11344986 232.37183807 432.11337433 231.19615173 432.11329651 C229.9545076 432.10813522 228.71286346 432.10297394 227.43359375 432.09765625 C225.53795433 432.09553383 225.53795433 432.09553383 223.60401917 432.09336853 C220.23875111 432.08870582 216.8735501 432.0797148 213.50830078 432.06866455 C210.0765033 432.05844846 206.64469891 432.05387049 203.21289062 432.04882812 C196.47524176 432.0377738 189.73762475 432.0210171 183 432 C174.12971557 411.34903625 165.30253422 390.67993242 156.5 370 C150.18305454 355.1596052 143.86268692 340.3208478 137.5 325.5 C130.62713675 309.49077916 123.80393659 293.46050142 116.98046875 277.43017578 C111.16974038 263.77984392 105.35250999 250.13247333 99.5 236.5 C92.62713675 220.49077916 85.80393659 204.46050142 78.98046875 188.43017578 C73.16973995 174.7798429 67.35226203 161.13258035 61.5 147.5 C52.81902937 127.27538781 44.20572402 107.02194188 35.58580017 86.77125549 C32.21840529 78.86065174 28.84903154 70.95089394 25.47829056 63.04171562 C23.67034288 58.79941442 21.86267523 54.55699388 20.05493164 50.31460571 C19.07621898 48.01798113 18.09738217 45.72140945 17.1184082 43.42489624 C14.89142991 38.20061675 12.6661494 32.97563606 10.44580078 27.74853516 C8.8287108 23.94196164 7.20117949 20.14010862 5.56591797 16.34130859 C4.82379386 14.60648782 4.08176373 12.87162684 3.33984375 11.13671875 C2.9987709 10.35077835 2.65769806 9.56483795 2.30628967 8.75508118 C0 3.3396461 0 3.3396461 0 0 Z " fill="#2D2D2D" transform="translate(805,2026)"/>
<path d="M0 0 C112.86 0 225.72 0 342 0 C342 21.78 342 43.56 342 66 C297.12 66 252.24 66 206 66 C206 185.79 206 305.58 206 429 C182.9 429 159.8 429 136 429 C136 309.21 136 189.42 136 66 C91.12 66 46.24 66 0 66 C0 44.22 0 22.44 0 0 Z " fill="#2D2D2D" transform="translate(2142,2026)"/>
<path d="M0 0 C0.82886719 0.69609375 1.65773438 1.3921875 2.51171875 2.109375 C28.00471755 24.04055764 43.30637812 56.67815525 46 90 C47.93741938 129.44675964 36.30078345 164.12414828 9.96484375 193.78125 C-11.35217494 217.22791623 -43.55194499 233.51854332 -75.39892578 235.17700195 C-116.31673009 235.88403547 -151.53616601 226.65923764 -181.95019531 198.09448242 C-205.12352208 175.57867099 -220.44230391 143.05946037 -221.203125 110.60546875 C-221.62440578 71.34951926 -211.08761061 37.0374185 -183.57543945 8.10888672 C-162.38396832 -13.45801846 -135.88060373 -26.43389307 -106 -31 C-104.75863281 -31.19529297 -104.75863281 -31.19529297 -103.4921875 -31.39453125 C-66.37956921 -36.11223696 -28.03231987 -24.63054833 0 0 Z M-121 -15 C-121.7204248 -14.79101074 -122.44084961 -14.58202148 -123.18310547 -14.36669922 C-154.52452122 -5.02932139 -179.26721728 16.90830898 -194.75 45.375 C-209.72192198 73.87180307 -212.37067553 108.13114765 -203.05029297 138.83935547 C-195.23971781 163.0361141 -181.27605341 183.53226783 -161 199 C-160.22140625 199.60585937 -159.4428125 200.21171875 -158.640625 200.8359375 C-133.44687847 219.51989046 -100.76931259 226.37095449 -69.96826172 222.22631836 C-38.5284456 217.24702104 -9.61372729 200.33405778 9.3984375 174.734375 C28.98081331 147.25799023 36.67614514 113.60329379 31.40600586 80.37451172 C27.81108095 59.75193749 19.25841226 40.24580131 6 24 C5.57493164 23.47857422 5.14986328 22.95714844 4.71191406 22.41992188 C-14.37955639 -0.5358116 -43.28900007 -15.83798595 -73 -19 C-89.35974983 -19.77563128 -105.23330102 -19.71159656 -121 -15 Z " fill="#2D2D2D" transform="translate(3716,2013)"/>
<path d="M0 0 C87.48267898 0 87.48267898 0 103.75390625 15.69140625 C112.41984548 25.05235815 113.58953069 35.8463894 113.13183594 48.06005859 C112.46695914 57.84359749 107.38458174 66.00423149 100.4375 72.6875 C94.53488167 77.57400028 86.74089875 82 79 82 C85.49995774 91.16453669 92.4044308 99.99651829 99.32080078 108.84765625 C103.24357832 113.8757468 107.12708313 118.93342031 111 124 C111.42748535 124.55510254 111.8549707 125.11020508 112.29541016 125.68212891 C113.57670261 127.34700205 114.85155356 129.01662133 116.125 130.6875 C116.87007812 131.66074219 117.61515625 132.63398438 118.3828125 133.63671875 C120 136 120 136 120 138 C98.54477016 140.83133532 98.54477016 140.83133532 91.60400391 136.50732422 C87.38743439 132.44588971 84.45288786 127.53026948 81.51806641 122.50146484 C78.66236152 117.79584371 75.14428564 113.58001296 71.70458984 109.29321289 C68.94537979 105.78601429 66.64115899 102.44779223 64.71484375 98.4140625 C62.19666793 93.56638959 59.9736543 89.59183803 55 87 C43.73731241 84.71345005 32.46591334 85.64720267 21 86 C21 103.16 21 120.32 21 138 C14.07 138 7.14 138 0 138 C0 92.46 0 46.92 0 0 Z M21 20 C21 35.51 21 51.02 21 67 C28.5075 67.0825 36.015 67.165 43.75 67.25 C46.09448242 67.28641602 48.43896484 67.32283203 50.85449219 67.36035156 C68.4024032 67.60242571 68.4024032 67.60242571 84 60.25 C89.22599118 55.11345121 91.22000538 50.19731879 91.4375 42.875 C91.20273743 36.65379177 89.82081049 33.06686597 85.6875 28.375 C76.99904897 20.69683397 69.76712658 19.69336261 58.59765625 19.8046875 C56.9811039 19.80893234 56.9811039 19.80893234 55.33189392 19.81326294 C51.90864701 19.82440807 48.48566709 19.84950244 45.0625 19.875 C42.73372775 19.88503711 40.40495138 19.89416168 38.07617188 19.90234375 C32.38393036 19.92262249 26.69226209 19.96178265 21 20 Z " fill="#2D2D2D" transform="translate(3576,2042)"/>
</svg>
