<?xml version="1.0" encoding="UTF-8"?>
<svg version="1.1" xmlns="http://www.w3.org/2000/svg" width="512" height="512">
<path d="M0 0 C1.17324577 -0.02114868 1.17324577 -0.02114868 2.37019348 -0.04272461 C3.21398056 -0.03260345 4.05776764 -0.0224823 4.92712402 -0.01205444 C5.82690475 -0.02081604 6.72668549 -0.02957764 7.6537323 -0.03860474 C10.62230931 -0.06057698 13.58939175 -0.04605363 16.5579834 -0.02914429 C18.62394496 -0.03251304 20.68990459 -0.03736616 22.75585938 -0.04364014 C27.08348479 -0.05100853 31.41059383 -0.04030675 35.73815918 -0.01693726 C41.28354239 0.01155017 46.82771568 -0.00485393 52.3730545 -0.03479958 C56.63850001 -0.05287324 60.90365899 -0.04711413 65.16911316 -0.03416061 C67.21363976 -0.03082681 69.25819244 -0.03491276 71.3026886 -0.04655838 C74.16127354 -0.059268 77.01790336 -0.03988844 79.87634277 -0.01205444 C80.72012985 -0.0221756 81.56391693 -0.03229675 82.43327332 -0.04272461 C86.65982722 0.03346236 88.43235467 0.28887158 91.93530273 2.87139893 C94.02137563 5.80305717 94.50377668 6.97157657 94.39001465 10.49819946 C94.37390137 11.38442993 94.35778809 12.2706604 94.34118652 13.18374634 C94.29929199 14.09575806 94.25739746 15.00776978 94.2142334 15.94741821 C94.1916748 16.87876587 94.16911621 17.81011353 94.14587402 18.76968384 C94.08715418 21.05975782 94.00510197 23.34649696 93.9017334 25.63491821 C94.66737106 25.62825638 95.43300873 25.62159454 96.22184753 25.61473083 C103.44589756 25.5545586 110.66982564 25.50891293 117.89406109 25.4794817 C121.60790914 25.46384198 125.32154968 25.44263513 129.03527832 25.40859985 C132.62089381 25.37594526 136.20631002 25.35805245 139.79206276 25.35028648 C141.15838571 25.34475386 142.52469805 25.33394985 143.8909359 25.31772804 C145.80808197 25.29587546 147.72542961 25.29469214 149.6427002 25.29434204 C150.73302048 25.28768021 151.82334076 25.28101837 152.94670105 25.27415466 C156.31435237 25.68529258 158.18843957 26.63089925 160.9017334 28.63491821 C162.02410621 30.87966384 162.05051061 32.14682221 162.09460449 34.63809204 C162.11066742 35.4626741 162.12673035 36.28725616 162.14328003 37.13682556 C162.18775868 40.9097002 162.22879603 44.6823993 162.25183105 48.45547485 C162.2683889 50.44485168 162.29567668 52.43416906 162.3338623 54.42324829 C162.38865604 57.29229576 162.41050856 60.15994908 162.4251709 63.02944946 C162.44784027 63.91606766 162.47050964 64.80268585 162.49386597 65.71617126 C162.48959091 66.96722908 162.48959091 66.96722908 162.48522949 68.24356079 C162.49331635 68.97255081 162.5014032 69.70154083 162.50973511 70.45262146 C161.54536389 73.91403307 159.68004669 75.43883201 156.9017334 77.63491821 C153.90873718 78.2361908 153.90873718 78.2361908 150.55090332 78.20254517 C149.2899736 78.20216751 148.02904388 78.20178986 146.72990417 78.20140076 C145.36399334 78.17587146 143.9980927 78.14979154 142.63220215 78.12319946 C141.22688558 78.1138668 139.82155268 78.10675283 138.41621399 78.10176086 C134.72834881 78.08272593 131.04147789 78.03365792 127.35400391 77.97824097 C123.58684742 77.92697125 119.81952929 77.90423051 116.05212402 77.87905884 C108.66820859 77.82553359 101.28511063 77.74026603 93.9017334 77.63491821 C93.95974121 78.4431604 94.01774902 79.25140259 94.07751465 80.08413696 C94.12263184 81.15276978 94.16774902 82.22140259 94.2142334 83.32241821 C94.27224121 84.3781604 94.33024902 85.43390259 94.39001465 86.52163696 C93.9017334 89.63491821 93.9017334 89.63491821 88.9017334 94.63491821 C82.3017334 94.63491821 75.7017334 94.63491821 68.9017334 94.63491821 C68.9017334 226.63491821 68.9017334 358.63491821 68.9017334 494.63491821 C72.5317334 494.30491821 76.1617334 493.97491821 79.9017334 493.63491821 C79.4273584 492.58304321 78.9529834 491.53116821 78.4642334 490.44741821 C74.8984953 482.05447806 75.28055118 474.74021517 78.5736084 466.28726196 C81.90948692 459.62531632 87.42384165 455.93996502 93.9017334 452.63491821 C93.7367334 451.95429321 93.5717334 451.27366821 93.4017334 450.57241821 C91.98134158 442.22761627 93.52068278 434.98469283 98.0892334 427.88491821 C101.60633904 423.28809321 106.46843911 420.44601631 111.9017334 418.63491821 C120.11770957 417.99073499 127.96476314 417.69767099 134.9017334 422.63491821 C140.2665471 427.56928698 144.5858594 432.97980482 145.2298584 440.43179321 C145.20407715 441.73632446 145.1782959 443.04085571 145.1517334 444.38491821 C145.13626465 445.69976196 145.1207959 447.01460571 145.1048584 448.36929321 C144.9017334 451.63491821 144.9017334 451.63491821 143.9017334 453.63491821 C144.7267334 453.82054321 145.5517334 454.00616821 146.4017334 454.19741821 C152.51213806 456.7070487 157.30142107 460.80462599 160.4017334 466.69741821 C162.97277827 473.40049949 163.30191518 481.5007608 160.9954834 488.31069946 C159.9017334 490.50991821 159.9017334 490.50991821 157.9017334 493.63491821 C159.2217334 493.96491821 160.5417334 494.29491821 161.9017334 494.63491821 C161.9017334 500.57491821 161.9017334 506.51491821 161.9017334 512.63491821 C-7.0582666 512.63491821 -176.0182666 512.63491821 -350.0982666 512.63491821 C-350.0982666 506.69491821 -350.0982666 500.75491821 -350.0982666 494.63491821 C-347.7882666 493.97491821 -345.4782666 493.31491821 -343.0982666 492.63491821 C-340.73359244 490.92801348 -340.73359244 490.92801348 -338.75866699 488.73599243 C-337.98418716 487.93531342 -337.20970734 487.1346344 -336.41175842 486.30969238 C-335.59803268 485.44506378 -334.78430695 484.58043518 -333.94592285 483.68960571 C-332.18262531 481.87283607 -330.41894165 480.05644112 -328.65490723 478.24038696 C-325.89844283 475.37197119 -323.148849 472.49738883 -320.40710449 469.61489868 C-317.74980368 466.83087859 -315.06837598 464.07192798 -312.38342285 461.31460571 C-311.57172134 460.44592865 -310.76001984 459.57725159 -309.92372131 458.68225098 C-303.4892542 452.10924739 -303.4892542 452.10924739 -298.79992676 451.87564087 C-294.87488226 452.68073838 -293.39204859 453.32329526 -290.58654785 456.10366821 C-289.74301758 456.92609009 -288.8994873 457.74851196 -288.03039551 458.59585571 C-287.04934171 459.60531552 -286.07228723 460.61867047 -285.0982666 461.63491821 C-284.52751404 462.2275647 -283.95676147 462.82021118 -283.36871338 463.43081665 C-281.43513062 465.44335621 -279.50682366 467.46086511 -277.57873535 469.47866821 C-275.51514831 471.62998379 -273.45131485 473.78105549 -271.3861084 475.93081665 C-269.98125143 477.40507548 -268.58639766 478.8889292 -267.20153809 480.38198853 C-265.16790841 482.56811051 -263.09707939 484.71255963 -261.01623535 486.85366821 C-260.41474167 487.52023437 -259.81324799 488.18680054 -259.19352722 488.87356567 C-252.84032469 495.27000876 -250.52381152 493.83295322 -240.0982666 494.63491821 C-240.0982666 367.91491821 -240.0982666 241.19491821 -240.0982666 110.63491821 C-234.1582666 110.63491821 -228.2182666 110.63491821 -222.0982666 110.63491821 C-222.0982666 122.18491821 -222.0982666 133.73491821 -222.0982666 145.63491821 C-185.4682666 145.63491821 -148.8382666 145.63491821 -111.0982666 145.63491821 C-111.0982666 151.57491821 -111.0982666 157.51491821 -111.0982666 163.63491821 C-147.7282666 163.63491821 -184.3582666 163.63491821 -222.0982666 163.63491821 C-222.0982666 171.55491821 -222.0982666 179.47491821 -222.0982666 187.63491821 C-205.2682666 187.63491821 -188.4382666 187.63491821 -171.0982666 187.63491821 C-171.0982666 184.99491821 -171.0982666 182.35491821 -171.0982666 179.63491821 C-165.1582666 179.63491821 -159.2182666 179.63491821 -153.0982666 179.63491821 C-153.0982666 182.27491821 -153.0982666 184.91491821 -153.0982666 187.63491821 C-136.5982666 187.63491821 -120.0982666 187.63491821 -103.0982666 187.63491821 C-103.0982666 182.02491821 -103.0982666 176.41491821 -103.0982666 170.63491821 C-97.1582666 170.63491821 -91.2182666 170.63491821 -85.0982666 170.63491821 C-85.0982666 176.24491821 -85.0982666 181.85491821 -85.0982666 187.63491821 C-68.5982666 187.63491821 -52.0982666 187.63491821 -35.0982666 187.63491821 C-35.0982666 176.41491821 -35.0982666 165.19491821 -35.0982666 153.63491821 C-29.1582666 153.63491821 -23.2182666 153.63491821 -17.0982666 153.63491821 C-17.0982666 266.16491821 -17.0982666 378.69491821 -17.0982666 494.63491821 C-6.2082666 494.63491821 4.6817334 494.63491821 15.9017334 494.63491821 C15.9017334 362.63491821 15.9017334 230.63491821 15.9017334 94.63491821 C9.3017334 94.63491821 2.7017334 94.63491821 -4.0982666 94.63491821 C-5.7482666 92.98491821 -7.3982666 91.33491821 -9.0982666 89.63491821 C-9.0982666 85.67491821 -9.0982666 81.71491821 -9.0982666 77.63491821 C-104.4682666 77.63491821 -199.8382666 77.63491821 -298.0982666 77.63491821 C-298.0982666 128.78491821 -298.0982666 179.93491821 -298.0982666 232.63491821 C-295.1282666 233.62491821 -295.1282666 233.62491821 -292.0982666 234.63491821 C-285.92359106 239.65251795 -282.11539896 245.73440179 -281.0982666 253.63491821 C-280.89754486 260.16749863 -281.83901806 265.29478832 -285.45373535 270.78335571 C-286.42595248 273.57627038 -285.3346064 275.00396034 -284.0982666 277.63491821 C-282.96809175 279.28572401 -281.77803592 280.89650781 -280.5435791 282.47085571 C-279.49750488 283.82050415 -279.49750488 283.82050415 -278.43029785 285.19741821 C-277.70197754 286.12554321 -276.97365723 287.05366821 -276.2232666 288.00991821 C-274.78429925 289.84788366 -273.34930019 291.68896389 -271.9185791 293.53335571 C-271.28194336 294.34465942 -270.64530762 295.15596313 -269.98937988 295.99185181 C-265.33791443 302.49285426 -263.48729405 306.48210893 -263.60217285 314.42007446 C-263.60071762 315.2393895 -263.59926239 316.05870453 -263.59776306 316.90284729 C-263.59941417 318.62485329 -263.61088662 320.34687527 -263.63171387 322.0687561 C-263.66072512 324.6936651 -263.65229552 327.3165575 -263.63928223 329.94155884 C-263.6455192 331.62190712 -263.65390982 333.30224908 -263.66467285 334.98257446 C-263.66173721 335.76085098 -263.65880157 336.5391275 -263.65577698 337.34098816 C-263.77368477 344.19878457 -265.85079154 348.78814131 -270.7857666 353.65054321 C-271.48443848 354.34405884 -272.18311035 355.03757446 -272.9029541 355.75210571 C-273.62740723 356.45593384 -274.35186035 357.15976196 -275.0982666 357.88491821 C-275.82271973 358.60421509 -276.54717285 359.32351196 -277.2935791 360.06460571 C-285.20306948 367.85735085 -285.20306948 367.85735085 -290.1673584 367.97305298 C-290.98218185 367.99549576 -291.79700531 368.01793854 -292.63652039 368.0410614 C-293.51463882 368.05269821 -294.39275726 368.06433502 -295.29748535 368.07632446 C-296.20650101 368.09009628 -297.11551666 368.1038681 -298.05207825 368.11805725 C-299.97781285 368.14133642 -301.90362814 368.1585982 -303.82946777 368.1703186 C-306.75848149 368.1971681 -309.68383934 368.27204597 -312.61193848 368.34780884 C-314.48626321 368.364474 -316.36061643 368.37823773 -318.23498535 368.38882446 C-319.10298264 368.41867935 -319.97097992 368.44853424 -320.86528015 368.47929382 C-328.07379931 368.42785715 -331.16094859 365.59246415 -336.0982666 360.63491821 C-337.34826316 359.62111673 -338.60879695 358.62014243 -339.88049316 357.63369751 C-346.24755331 352.31946973 -350.69043183 347.65250691 -351.78187561 339.19320679 C-352.08542487 334.59287676 -352.02341776 330.05168885 -351.8482666 325.44741821 C-351.83353302 324.49192078 -351.81879944 323.53642334 -351.80361938 322.55197144 C-351.55406867 308.81354799 -349.97981896 298.22034961 -339.84436035 288.15835571 C-338.92759521 287.31095825 -338.92759521 287.31095825 -337.99230957 286.44644165 C-335.85617065 284.40336988 -333.95491601 282.26412313 -332.07092285 279.98648071 C-331.47674561 279.27572388 -330.88256836 278.56496704 -330.27038574 277.83267212 C-328.86170926 275.67060411 -328.86170926 275.67060411 -329.31481934 273.07388306 C-330.10846552 270.43220465 -330.10846552 270.43220465 -331.6607666 267.25991821 C-333.0982666 263.63491821 -333.0982666 263.63491821 -333.0982666 256.63491821 C-327.1582666 256.63491821 -321.2182666 256.63491821 -315.0982666 256.63491821 C-314.1082666 258.61491821 -313.1182666 260.59491821 -312.0982666 262.63491821 C-308.39179428 263.78055511 -306.27213847 264.19096278 -302.7232666 262.50991821 C-300.65869015 260.12771462 -300.17338328 258.78981871 -300.0982666 255.63491821 C-301.56836554 252.39470015 -302.48028168 250.93059599 -305.72717285 249.37710571 C-306.69525879 249.09093384 -307.66334473 248.80476196 -308.6607666 248.50991821 C-313.89572095 246.9387367 -313.89572095 246.9387367 -316.0982666 243.63491821 C-316.34436226 240.67329121 -316.34436226 240.67329121 -316.33877563 236.97215271 C-316.34048448 236.29171974 -316.34219333 235.61128678 -316.34395397 234.91023463 C-316.34725378 232.6254036 -316.33623728 230.34086487 -316.32531738 228.05606079 C-316.32475337 226.42017117 -316.32506963 224.78428105 -316.32620239 223.14839172 C-316.32677731 218.70238602 -316.31500052 214.25648775 -316.30105448 209.81050706 C-316.28857027 205.16602002 -316.28737845 200.52153065 -316.28500366 195.87702942 C-316.27878209 187.07977924 -316.26236212 178.28257864 -316.24230468 169.48535031 C-316.21996673 159.47096795 -316.20895755 149.45658325 -316.19891381 139.44218218 C-316.17799648 118.83973316 -316.14280736 98.23732881 -316.0982666 77.63491821 C-316.95057861 77.66110229 -317.80289063 77.68728638 -318.68103027 77.71426392 C-321.85853787 77.79973314 -325.03545771 77.8622861 -328.21374512 77.90957642 C-329.58633762 77.93464438 -330.95879762 77.96870904 -332.33093262 78.01211548 C-334.30877356 78.07309353 -336.28760844 78.0985283 -338.26623535 78.12319946 C-340.04937134 78.16247559 -340.04937134 78.16247559 -341.86853027 78.20254517 C-346.02927975 77.47129242 -347.47736146 75.86726158 -350.0982666 72.63491821 C-350.72645569 70.46607971 -350.72645569 70.46607971 -350.72937012 68.27529907 C-350.74816978 67.03392433 -350.74816978 67.03392433 -350.76734924 65.76747131 C-350.75409103 64.88712723 -350.74083282 64.00678314 -350.72717285 63.09976196 C-350.72958481 62.18408951 -350.73199677 61.26841705 -350.73448181 60.32499695 C-350.73350459 58.39432431 -350.72014076 56.46362323 -350.69519043 54.53311157 C-350.66083673 51.57844974 -350.67454841 48.62677235 -350.69396973 45.67202759 C-350.68707224 43.79375966 -350.67740074 41.91549943 -350.66467285 40.03726196 C-350.66963272 39.15489365 -350.67459259 38.27252533 -350.67970276 37.36341858 C-350.5622365 31.24818858 -350.5622365 31.24818858 -348.18786621 28.10977173 C-344.75157462 25.68441392 -342.80596174 25.51030742 -338.62035179 25.51187038 C-337.44943218 25.50987934 -336.27851256 25.50788829 -335.07211053 25.5058369 C-333.77446854 25.50874975 -332.47682654 25.51166259 -331.13986206 25.5146637 C-329.75632763 25.51422798 -328.37279327 25.51335307 -326.98925936 25.51207453 C-323.17424037 25.50982963 -319.35924924 25.5138508 -315.5442338 25.51885259 C-311.43516444 25.52315697 -307.32609674 25.52171068 -303.21702576 25.52095032 C-296.09340414 25.52042507 -288.96979165 25.52357191 -281.84617233 25.52918816 C-271.5465187 25.5373031 -261.24686949 25.53991837 -250.94721301 25.54117615 C-234.2381216 25.54336667 -217.52903506 25.55002678 -200.81994629 25.55947876 C-184.58524602 25.56865286 -168.35054707 25.5757337 -152.11584473 25.57998657 C-151.11572665 25.5802493 -150.11560858 25.58051202 -149.0851839 25.5807827 C-144.06806131 25.58208771 -139.05093871 25.58335142 -134.0338161 25.58459461 C-92.38862954 25.59496724 -50.74344835 25.61258558 -9.0982666 25.63491821 C-9.12445068 25.05524292 -9.15063477 24.47556763 -9.1776123 23.87832642 C-9.28197272 21.23496946 -9.34670987 18.59204622 -9.4107666 15.94741821 C-9.45266113 15.03540649 -9.49455566 14.12339478 -9.53771973 13.18374634 C-9.62162453 8.56898214 -9.62289236 6.35458385 -6.83487701 2.53006935 C-4.20310173 0.70751839 -3.1186518 0.00871345 0 0 Z M-332.0982666 43.63491821 C-332.0982666 48.91491821 -332.0982666 54.19491821 -332.0982666 59.63491821 C-322.8582666 59.63491821 -313.6182666 59.63491821 -304.0982666 59.63491821 C-308.65768828 55.98738087 -313.27433328 52.65830154 -318.0982666 49.38491821 C-318.8923291 48.83062134 -319.6863916 48.27632446 -320.5045166 47.70523071 C-321.2779541 47.18187134 -322.0513916 46.65851196 -322.8482666 46.11929321 C-323.54436035 45.64201782 -324.2404541 45.16474243 -324.9576416 44.67300415 C-327.45157421 43.27129821 -327.45157421 43.27129821 -332.0982666 43.63491821 Z M-294.0982666 43.63491821 C-289.99864581 46.91461485 -285.9020293 50.01859008 -281.5982666 53.00991821 C-280.94729004 53.48558228 -280.29631348 53.96124634 -279.62561035 54.45132446 C-275.96489648 57.09760928 -275.96489648 57.09760928 -271.64904785 57.27163696 C-270.80729004 56.73151978 -269.96553223 56.19140259 -269.0982666 55.63491821 C-268.47677734 55.23949829 -267.85528809 54.84407837 -267.21496582 54.43667603 C-265.04063677 53.0234378 -262.91223407 51.55657469 -260.7857666 50.07241821 C-260.0452002 49.56517212 -259.30463379 49.05792603 -258.54162598 48.53530884 C-255.7798303 46.63958074 -255.7798303 46.63958074 -253.0982666 44.63491821 C-253.0982666 44.30491821 -253.0982666 43.97491821 -253.0982666 43.63491821 C-266.6282666 43.63491821 -280.1582666 43.63491821 -294.0982666 43.63491821 Z M-191.0982666 43.63491821 C-187.42731482 47.30586999 -183.9013953 50.09992667 -179.6607666 53.00991821 C-179.00527832 53.48558228 -178.34979004 53.96124634 -177.67443848 54.45132446 C-173.99798288 57.09113317 -173.99798288 57.09113317 -169.6763916 57.27163696 C-168.40021973 56.46146118 -168.40021973 56.46146118 -167.0982666 55.63491821 C-166.44592041 55.23949829 -165.79357422 54.84407837 -165.12145996 54.43667603 C-162.81497861 53.02173114 -160.54964106 51.55446846 -158.2857666 50.07241821 C-157.10337402 49.31154907 -157.10337402 49.31154907 -155.89709473 48.53530884 C-152.95880241 46.64134184 -152.95880241 46.64134184 -150.0982666 44.63491821 C-150.0982666 44.30491821 -150.0982666 43.97491821 -150.0982666 43.63491821 C-163.6282666 43.63491821 -177.1582666 43.63491821 -191.0982666 43.63491821 Z M-89.0982666 43.63491821 C-85.40757174 47.32561307 -81.88033088 50.05806416 -77.5982666 52.94741821 C-76.93439941 53.41470337 -76.27053223 53.88198853 -75.58654785 54.36343384 C-74.94072754 54.79978149 -74.29490723 55.23612915 -73.6295166 55.68569946 C-73.04750488 56.08442261 -72.46549316 56.48314575 -71.86584473 56.89395142 C-69.49367896 57.88836068 -68.47981036 57.55253304 -66.0982666 56.63491821 C-63.94013859 55.44003427 -63.94013859 55.44003427 -61.7701416 53.94741821 C-60.97092285 53.41374634 -60.1717041 52.88007446 -59.3482666 52.33023071 C-58.5232666 51.77077759 -57.6982666 51.21132446 -56.8482666 50.63491821 C-56.00779785 50.07546509 -55.1673291 49.51601196 -54.3013916 48.93960571 C-51.15977751 46.84356936 -51.15977751 46.84356936 -48.0982666 44.63491821 C-48.0982666 44.30491821 -48.0982666 43.97491821 -48.0982666 43.63491821 C-61.6282666 43.63491821 -75.1582666 43.63491821 -89.0982666 43.63491821 Z M-20.4967041 46.88101196 C-21.46994629 47.55325806 -22.44318848 48.22550415 -23.44592285 48.91812134 C-24.94445801 49.98449829 -24.94445801 49.98449829 -26.4732666 51.07241821 C-27.49549316 51.77946899 -28.51771973 52.48651978 -29.57092285 53.21499634 C-33.38033622 55.86265086 -33.38033622 55.86265086 -37.0982666 58.63491821 C-37.0982666 58.96491821 -37.0982666 59.29491821 -37.0982666 59.63491821 C-27.8582666 59.63491821 -18.6182666 59.63491821 -9.0982666 59.63491821 C-9.0982666 54.35491821 -9.0982666 49.07491821 -9.0982666 43.63491821 C-15.08693475 43.63491821 -15.97110944 43.71882948 -20.4967041 46.88101196 Z M93.9017334 43.63491821 C93.9017334 48.25491821 93.9017334 52.87491821 93.9017334 57.63491821 C99.31753095 54.20719824 104.73009843 50.77578383 110.0892334 47.25991821 C110.82528809 46.77780884 111.56134277 46.29569946 112.31970215 45.79898071 C112.84177246 45.41484009 113.36384277 45.03069946 113.9017334 44.63491821 C113.9017334 44.30491821 113.9017334 43.97491821 113.9017334 43.63491821 C107.3017334 43.63491821 100.7017334 43.63491821 93.9017334 43.63491821 Z M-227.4498291 48.44351196 C-228.30061035 49.02552368 -229.1513916 49.6075354 -230.0279541 50.20718384 C-230.91740723 50.82271118 -231.80686035 51.43823853 -232.7232666 52.07241821 C-233.6204541 52.68407837 -234.5176416 53.29573853 -235.4420166 53.92593384 C-238.80961076 56.22587152 -238.80961076 56.22587152 -242.0982666 58.63491821 C-242.0982666 58.96491821 -242.0982666 59.29491821 -242.0982666 59.63491821 C-228.8982666 59.63491821 -215.6982666 59.63491821 -202.0982666 59.63491821 C-204.75949982 56.97368499 -206.70085039 55.06369579 -209.6998291 53.05679321 C-210.35467285 52.61851196 -211.0095166 52.18023071 -211.6842041 51.72866821 C-212.35709473 51.28523071 -213.02998535 50.84179321 -213.7232666 50.38491821 C-214.7442041 49.69655884 -214.7442041 49.69655884 -215.7857666 48.99429321 C-221.10781535 45.46028456 -222.24781865 44.87893434 -227.4498291 48.44351196 Z M-130.1607666 52.07241821 C-131.5848584 52.98990845 -131.5848584 52.98990845 -133.03771973 53.92593384 C-133.93555176 54.50923462 -134.83338379 55.0925354 -135.75842285 55.69351196 C-137.00571167 56.5026001 -137.00571167 56.5026001 -138.27819824 57.32803345 C-138.8788208 57.75930542 -139.47944336 58.19057739 -140.0982666 58.63491821 C-140.0982666 58.96491821 -140.0982666 59.29491821 -140.0982666 59.63491821 C-126.8982666 59.63491821 -113.6982666 59.63491821 -100.0982666 59.63491821 C-102.77924068 56.95394414 -104.70788634 55.06106464 -107.73498535 53.05679321 C-108.39434082 52.61851196 -109.05369629 52.18023071 -109.73303223 51.72866821 C-110.41043457 51.28523071 -111.08783691 50.84179321 -111.7857666 50.38491821 C-112.47477051 49.92601196 -113.16377441 49.46710571 -113.87365723 48.99429321 C-121.31971864 44.07418184 -123.04253234 47.4385302 -130.1607666 52.07241821 Z M133.8392334 52.57241821 C132.55822754 53.41836548 132.55822754 53.41836548 131.25134277 54.28140259 C130.44374512 54.81958618 129.63614746 55.35776978 128.80407715 55.91226196 C128.05634033 56.40975952 127.30860352 56.90725708 126.53820801 57.41983032 C125.99817139 57.82080933 125.45813477 58.22178833 124.9017334 58.63491821 C124.9017334 58.96491821 124.9017334 59.29491821 124.9017334 59.63491821 C131.1717334 59.63491821 137.4417334 59.63491821 143.9017334 59.63491821 C143.9017334 55.34491821 143.9017334 51.05491821 143.9017334 46.63491821 C140.70195404 46.63491821 136.43084292 50.84140382 133.8392334 52.57241821 Z M33.9017334 94.63491821 C33.9017334 98.59491821 33.9017334 102.55491821 33.9017334 106.63491821 C37.1862634 103.35038821 39.51566658 100.55488512 41.9017334 96.63491821 C41.9017334 95.97491821 41.9017334 95.31491821 41.9017334 94.63491821 C39.2617334 94.63491821 36.6217334 94.63491821 33.9017334 94.63491821 Z M49.9017334 115.63491821 C47.54737932 118.76145524 45.43568907 122.05914316 43.2767334 125.32241821 C42.34087402 126.69043579 42.34087402 126.69043579 41.3861084 128.08609009 C40.80087402 128.97232056 40.21563965 129.85855103 39.6126709 130.77163696 C38.79741943 131.98919678 38.79741943 131.98919678 37.96569824 133.23135376 C36.63085349 136.24685321 36.85342824 137.53951452 37.9017334 140.63491821 C39.07653001 142.89648411 39.07653001 142.89648411 40.5892334 145.06069946 C41.12290527 145.85669556 41.65657715 146.65269165 42.2064209 147.47280884 C43.04560059 148.69774048 43.04560059 148.69774048 43.9017334 149.94741821 C44.46118652 150.78337524 45.02063965 151.61933228 45.5970459 152.48062134 C47.69128521 155.59942558 47.69128521 155.59942558 49.9017334 158.63491821 C50.2317334 158.63491821 50.5617334 158.63491821 50.9017334 158.63491821 C50.9017334 144.44491821 50.9017334 130.25491821 50.9017334 115.63491821 C50.5717334 115.63491821 50.2417334 115.63491821 49.9017334 115.63491821 Z M33.9017334 167.63491821 C33.9017334 181.49491821 33.9017334 195.35491821 33.9017334 209.63491821 C37.19229927 205.52171087 40.24902949 201.41142882 43.2142334 197.07241821 C43.68151855 196.41306274 44.14880371 195.75370728 44.63024902 195.07437134 C45.06659668 194.43306274 45.50294434 193.79175415 45.95251465 193.13101196 C46.35123779 192.55536499 46.74996094 191.97971802 47.1607666 191.3866272 C48.15987621 189.0246465 47.81562757 188.00934806 46.9017334 185.63491821 C45.70684945 183.47679021 45.70684945 183.47679021 44.2142334 181.30679321 C43.68056152 180.50757446 43.14688965 179.70835571 42.5970459 178.88491821 C41.75786621 177.64741821 41.75786621 177.64741821 40.9017334 176.38491821 C40.06255371 175.12421509 40.06255371 175.12421509 39.2064209 173.83804321 C37.11038455 170.69642912 37.11038455 170.69642912 34.9017334 167.63491821 C34.5717334 167.63491821 34.2417334 167.63491821 33.9017334 167.63491821 Z M-222.0982666 205.63491821 C-222.0982666 210.25491821 -222.0982666 214.87491821 -222.0982666 219.63491821 C-205.2682666 219.63491821 -188.4382666 219.63491821 -171.0982666 219.63491821 C-171.0982666 215.01491821 -171.0982666 210.39491821 -171.0982666 205.63491821 C-187.9282666 205.63491821 -204.7582666 205.63491821 -222.0982666 205.63491821 Z M-153.0982666 205.63491821 C-153.0982666 222.46491821 -153.0982666 239.29491821 -153.0982666 256.63491821 C-148.6226416 256.51116821 -144.1470166 256.38741821 -139.5357666 256.25991821 C-130.83659937 256.31316854 -123.70270008 256.50632959 -116.98718262 262.46841431 C-114.75126201 264.8146216 -112.63234738 267.19726644 -110.69616699 269.79800415 C-108.46007265 272.36857311 -105.71562961 274.45378237 -103.0982666 276.63491821 C-103.0982666 253.20491821 -103.0982666 229.77491821 -103.0982666 205.63491821 C-119.5982666 205.63491821 -136.0982666 205.63491821 -153.0982666 205.63491821 Z M-85.0982666 205.63491821 C-85.0982666 233.68491821 -85.0982666 261.73491821 -85.0982666 290.63491821 C-68.5982666 290.63491821 -52.0982666 290.63491821 -35.0982666 290.63491821 C-35.0982666 262.58491821 -35.0982666 234.53491821 -35.0982666 205.63491821 C-51.5982666 205.63491821 -68.0982666 205.63491821 -85.0982666 205.63491821 Z M49.9017334 218.63491821 C47.55173984 221.59257898 45.43681712 224.72464124 43.2767334 227.82241821 C42.65282715 228.68673462 42.0289209 229.55105103 41.3861084 230.44155884 C40.50825684 231.70322876 40.50825684 231.70322876 39.6126709 232.99038696 C39.06916992 233.76019897 38.52566895 234.53001099 37.96569824 235.32315063 C36.60307077 238.2838481 36.87117942 239.57510432 37.9017334 242.63491821 C39.07653001 244.89648411 39.07653001 244.89648411 40.5892334 247.06069946 C41.12290527 247.85669556 41.65657715 248.65269165 42.2064209 249.47280884 C43.04560059 250.69774048 43.04560059 250.69774048 43.9017334 251.94741821 C44.46118652 252.78337524 45.02063965 253.61933228 45.5970459 254.48062134 C47.69128521 257.59942558 47.69128521 257.59942558 49.9017334 260.63491821 C50.2317334 260.63491821 50.5617334 260.63491821 50.9017334 260.63491821 C50.9017334 246.77491821 50.9017334 232.91491821 50.9017334 218.63491821 C50.5717334 218.63491821 50.2417334 218.63491821 49.9017334 218.63491821 Z M33.9017334 269.63491821 C33.9017334 283.49491821 33.9017334 297.35491821 33.9017334 311.63491821 C37.57464121 307.9620104 40.32458265 304.45081781 43.2142334 300.19741821 C43.68151855 299.54192993 44.14880371 298.88644165 44.63024902 298.21109009 C45.06659668 297.56849243 45.50294434 296.92589478 45.95251465 296.26382446 C46.35123779 295.68704956 46.74996094 295.11027466 47.1607666 294.51602173 C48.20731275 291.85913933 47.73861374 290.3367353 46.9017334 287.63491821 C45.72693679 285.37335232 45.72693679 285.37335232 44.2142334 283.20913696 C43.41372559 282.01514282 43.41372559 282.01514282 42.5970459 280.79702759 C41.75786621 279.57209595 41.75786621 279.57209595 40.9017334 278.32241821 C40.06255371 277.06848267 40.06255371 277.06848267 39.2064209 275.78921509 C37.11218159 272.67041084 37.11218159 272.67041084 34.9017334 269.63491821 C34.5717334 269.63491821 34.2417334 269.63491821 33.9017334 269.63491821 Z M49.9017334 320.63491821 C47.55083723 323.78506702 45.43773844 327.10272227 43.2767334 330.38491821 C42.34087402 331.76550415 42.34087402 331.76550415 41.3861084 333.17398071 C40.80087402 334.06343384 40.21563965 334.95288696 39.6126709 335.86929321 C38.79741943 337.09470825 38.79741943 337.09470825 37.96569824 338.34487915 C36.7252605 340.52282602 36.7252605 340.52282602 37.06433105 342.66226196 C38.03593826 344.9510626 39.20462103 346.89611858 40.5892334 348.96304321 C41.12290527 349.76226196 41.65657715 350.56148071 42.2064209 351.38491821 C42.76587402 352.20991821 43.32532715 353.03491821 43.9017334 353.88491821 C44.46118652 354.72538696 45.02063965 355.56585571 45.5970459 356.43179321 C47.69308225 359.5734073 47.69308225 359.5734073 49.9017334 362.63491821 C50.2317334 362.63491821 50.5617334 362.63491821 50.9017334 362.63491821 C50.9017334 348.77491821 50.9017334 334.91491821 50.9017334 320.63491821 C50.5717334 320.63491821 50.2417334 320.63491821 49.9017334 320.63491821 Z M33.9017334 371.63491821 C33.9017334 385.82491821 33.9017334 400.01491821 33.9017334 414.63491821 C36.29835437 411.63914199 38.55270009 408.78885984 40.6986084 405.64663696 C41.18200684 404.94087524 41.66540527 404.23511353 42.16345215 403.50796509 C42.65458496 402.78673462 43.14571777 402.06550415 43.6517334 401.32241821 C44.15833496 400.58185181 44.66493652 399.8412854 45.18688965 399.07827759 C46.42692797 397.265014 47.66515605 395.450543 48.9017334 393.63491821 C48.47763184 392.9684729 48.05353027 392.30202759 47.61657715 391.61538696 C47.03005371 390.69370728 46.44353027 389.77202759 45.8392334 388.82241821 C44.88983887 387.33355103 44.88983887 387.33355103 43.92126465 385.81460571 C42.57789641 383.69951529 41.24190933 381.57971823 39.91345215 379.45523071 C39.29083496 378.46265259 38.66821777 377.47007446 38.0267334 376.44741821 C37.45181152 375.52573853 36.87688965 374.60405884 36.2845459 373.65444946 C35.82821777 372.98800415 35.37188965 372.32155884 34.9017334 371.63491821 C34.5717334 371.63491821 34.2417334 371.63491821 33.9017334 371.63491821 Z M49.9017334 423.63491821 C47.55173984 426.59257898 45.43681712 429.72464124 43.2767334 432.82241821 C42.65282715 433.68673462 42.0289209 434.55105103 41.3861084 435.44155884 C40.50825684 436.70322876 40.50825684 436.70322876 39.6126709 437.99038696 C39.06916992 438.76019897 38.52566895 439.53001099 37.96569824 440.32315063 C36.60307077 443.2838481 36.87117942 444.57510432 37.9017334 447.63491821 C39.07653001 449.89648411 39.07653001 449.89648411 40.5892334 452.06069946 C41.12290527 452.85669556 41.65657715 453.65269165 42.2064209 454.47280884 C43.04560059 455.69774048 43.04560059 455.69774048 43.9017334 456.94741821 C44.46118652 457.78337524 45.02063965 458.61933228 45.5970459 459.48062134 C47.69128521 462.59942558 47.69128521 462.59942558 49.9017334 465.63491821 C50.2317334 465.63491821 50.5617334 465.63491821 50.9017334 465.63491821 C50.9017334 451.77491821 50.9017334 437.91491821 50.9017334 423.63491821 C50.5717334 423.63491821 50.2417334 423.63491821 49.9017334 423.63491821 Z M111.9017334 440.63491821 C110.81604836 442.47759689 110.81604836 442.47759689 110.9017334 444.63491821 C112.22889013 448.53832036 113.08178207 450.20711752 116.7767334 452.13491821 C120.32161897 452.7020999 121.82458438 452.4299218 124.9017334 450.63491821 C127.24723014 447.1166731 127.48164743 445.77716127 126.9017334 441.63491821 C124.41570891 438.27147332 122.98747817 436.83434072 118.8392334 436.07241821 C115.24270393 436.76111534 114.08099291 437.72923886 111.9017334 440.63491821 Z M94.9017334 474.63491821 C93.64842323 477.89352465 93.66893434 479.10805719 95.0892334 482.32241821 C96.98553373 484.74183588 97.97055212 485.77280607 100.9017334 486.63491821 C104.09342753 486.47533351 105.62650723 485.83575893 108.2142334 483.94741821 C110.10583726 481.7008618 110.10583726 481.7008618 110.4642334 478.69741821 C109.70231089 474.54917345 108.26517829 473.1209427 104.9017334 470.63491821 C100.04200944 469.74231585 97.80334024 470.65864218 94.9017334 474.63491821 Z M130.5267334 472.19741821 C128.2931765 475.54775357 128.40775131 477.68306152 128.9017334 481.63491821 C129.87277128 484.096784 129.87277128 484.096784 131.9017334 485.63491821 C135.56051702 486.82799983 137.20171032 486.96159565 140.7142334 485.32241821 C143.4923517 483.17929838 143.81417484 482.29160742 144.2767334 478.82241821 C144.15006179 475.47331645 144.15006179 475.47331645 141.7767334 472.75991821 C139.07044673 470.43409686 139.07044673 470.43409686 135.8392334 470.07241821 C132.85281084 470.45005766 132.85281084 470.45005766 130.5267334 472.19741821 Z M33.9017334 474.63491821 C33.9017334 481.23491821 33.9017334 487.83491821 33.9017334 494.63491821 C38.5217334 494.63491821 43.1417334 494.63491821 47.9017334 494.63491821 C44.47401343 489.21912066 41.04259902 483.80655318 37.5267334 478.44741821 C37.04462402 477.71136353 36.56251465 476.97530884 36.0657959 476.21694946 C35.68165527 475.69487915 35.29751465 475.17280884 34.9017334 474.63491821 C34.5717334 474.63491821 34.2417334 474.63491821 33.9017334 474.63491821 Z " fill="#030402" transform="translate(350.0982666015625,-0.634918212890625)"/>
<path d="M0 0 C16.83 0 33.66 0 51 0 C51.4375 14.6875 51.4375 14.6875 51.56811523 19.2956543 C51.6252771 21.1041687 51.6252771 21.1041687 51.68359375 22.94921875 C51.73858032 24.79519653 51.73858032 24.79519653 51.79467773 26.6784668 C51.97269423 29.55826984 52.34609105 32.19587088 53 35 C56.63807355 36.21269118 59.95454557 36.09746071 63.73828125 36.0703125 C65.29623512 36.07889821 66.85417952 36.08937468 68.41210938 36.1015625 C70.86164479 36.11824102 73.30905912 36.12503572 75.75854492 36.09960938 C89.3884905 35.97856434 89.3884905 35.97856434 93.16162109 38.37011719 C94.60546875 40.1171875 94.60546875 40.1171875 97 44 C99.64 46.31 102.28 48.62 105 51 C111.27 57.27 117.54 63.54 124 70 C155.68 70.495 155.68 70.495 188 71 C188 133.04 188 195.08 188 259 C125.96 259 63.92 259 0 259 C0 173.53 0 88.06 0 0 Z " fill="#E4E4E4" transform="translate(128,236)"/>
<path d="M0 0 C16.83 0 33.66 0 51 0 C51 23 51 23 47.25 29.9375 C39.24636335 36.29856024 28.42215272 35.79708211 18.64453125 35.09765625 C12.6512242 34.33043948 8.93099311 33.22630811 4.25 29.375 C0 22 0 22 0 0 Z " fill="#FDCB33" transform="translate(17,316)"/>
<path d="M0 0 C5.61 0 11.22 0 17 0 C17 19.8 17 39.6 17 60 C-5.77 60 -28.54 60 -52 60 C-52 57.03 -52 54.06 -52 51 C-50.6274707 50.98541748 -49.25494141 50.97083496 -47.84082031 50.95581055 C-42.74908377 50.89784338 -37.6577902 50.82060999 -32.56640625 50.73754883 C-30.36270333 50.70429212 -28.15891509 50.67626254 -25.95507812 50.65356445 C-22.78739045 50.62003262 -19.62048531 50.56771664 -16.453125 50.51171875 C-14.97480194 50.50213387 -14.97480194 50.50213387 -13.46661377 50.49235535 C-12.08563507 50.46266411 -12.08563507 50.46266411 -10.67675781 50.43237305 C-9.8684552 50.42126999 -9.06015259 50.41016693 -8.22735596 50.39872742 C-5.43618894 49.89907005 -4.05646954 48.92899935 -2 47 C-1.07943285 44.23829856 -0.85199851 42.47821145 -0.79467773 39.62036133 C-0.77473251 38.73967484 -0.75478729 37.85898834 -0.73423767 36.95161438 C-0.70916893 35.53117073 -0.70916893 35.53117073 -0.68359375 34.08203125 C-0.66281265 33.10965012 -0.64203156 32.13726898 -0.62062073 31.13542175 C-0.55521252 28.02785335 -0.49628071 24.92020015 -0.4375 21.8125 C-0.39430649 19.70637142 -0.35069193 17.60025144 -0.30664062 15.49414062 C-0.19954001 10.32951409 -0.09824781 5.16480222 0 0 Z " fill="#206885" transform="translate(410,17)"/>
<path d="M0 0 C11.22 0 22.44 0 34 0 C34 11.22 34 22.44 34 34 C22.78 34 11.56 34 0 34 C0 22.78 0 11.56 0 0 Z " fill="#00C5D9" transform="translate(358,17)"/>
<path d="M0 0 C3.55289859 1.5120546 5.83533556 3.59049171 8.546875 6.31640625 C9.39121094 7.16267578 10.23554687 8.00894531 11.10546875 8.88085938 C12.41451172 10.20827148 12.41451172 10.20827148 13.75 11.5625 C14.63816406 12.45130859 15.52632812 13.34011719 16.44140625 14.25585938 C23 20.85978903 23 20.85978903 23 22 C8.81 22 -5.38 22 -20 22 C-13.26037736 14.13710692 -13.26037736 14.13710692 -10.60546875 11.54296875 C-9.76145508 10.71055664 -9.76145508 10.71055664 -8.90039062 9.86132812 C-8.33513672 9.30896484 -7.76988281 8.75660156 -7.1875 8.1875 C-3.11000683 4.46575072 -3.11000683 4.46575072 0 0 Z " fill="#AFAFAF" transform="translate(50,473)"/>
<path d="M0 0 C6.43863974 2.25524547 10.81816876 10.1739395 13.921875 16.0234375 C13.921875 16.6834375 13.921875 17.3434375 13.921875 18.0234375 C3.031875 18.0234375 -7.858125 18.0234375 -19.078125 18.0234375 C-17.20685286 14.28089322 -15.03656055 11.13744709 -12.515625 7.8359375 C-12.10376953 7.29001953 -11.69191406 6.74410156 -11.26757812 6.18164062 C-7.64524115 1.39731011 -6.15181157 0.05333941 0 0 Z " fill="#AAAAAA" transform="translate(45.078125,280.9765625)"/>
<path d="M0 0 C5.94 0 11.88 0 18 0 C18 5.94 18 11.88 18 18 C12.06 18 6.12 18 0 18 C0 12.06 0 6.12 0 0 Z " fill="#0C1516" transform="translate(247,426)"/>
<path d="M0 0 C5.94 0 11.88 0 18 0 C18 5.94 18 11.88 18 18 C12.06 18 6.12 18 0 18 C0 12.06 0 6.12 0 0 Z " fill="#0B1516" transform="translate(247,392)"/>
<path d="M0 0 C5.94 0 11.88 0 18 0 C18 5.94 18 11.88 18 18 C12.06 18 6.12 18 0 18 C0 12.06 0 6.12 0 0 Z " fill="#0B1516" transform="translate(247,358)"/>
<path d="M0 0 C5.94 0 11.88 0 18 0 C18 5.94 18 11.88 18 18 C12.06 18 6.12 18 0 18 C0 12.06 0 6.12 0 0 Z " fill="#0C1516" transform="translate(247,324)"/>
<path d="M0 0 C1.58206422 0.00574487 3.16410406 0.01876032 4.74609375 0.03515625 C7.53046875 0.05578125 10.31484375 0.07640625 13.18359375 0.09765625 C13.18359375 6.03765625 13.18359375 11.97765625 13.18359375 18.09765625 C7.24359375 18.09765625 1.30359375 18.09765625 -4.81640625 18.09765625 C-4.83703125 15.31328125 -4.85765625 12.52890625 -4.87890625 9.66015625 C-4.88801025 8.78174072 -4.89711426 7.9033252 -4.90649414 6.99829102 C-4.91363716 5.03119651 -4.86672518 3.06412004 -4.81640625 1.09765625 C-3.81640625 0.09765625 -3.81640625 0.09765625 0 0 Z " fill="#0C1516" transform="translate(285.81640625,425.90234375)"/>
<path d="M0 0 C4.1765625 -0.0309375 4.1765625 -0.0309375 8.4375 -0.0625 C9.75512329 -0.07615601 9.75512329 -0.07615601 11.09936523 -0.09008789 C13.06645974 -0.09723091 15.03353621 -0.05031893 17 0 C18 1 18 1 18.09765625 4.81640625 C18.09191138 6.39847047 18.07889593 7.98051031 18.0625 9.5625 C18.041875 12.346875 18.02125 15.13125 18 18 C12.06 18 6.12 18 0 18 C0 12.06 0 6.12 0 0 Z " fill="#0C1516" transform="translate(213,426)"/>
<path d="M0 0 C1.58206422 0.00574487 3.16410406 0.01876032 4.74609375 0.03515625 C7.53046875 0.05578125 10.31484375 0.07640625 13.18359375 0.09765625 C13.18359375 6.03765625 13.18359375 11.97765625 13.18359375 18.09765625 C7.24359375 18.09765625 1.30359375 18.09765625 -4.81640625 18.09765625 C-4.83703125 15.31328125 -4.85765625 12.52890625 -4.87890625 9.66015625 C-4.88801025 8.78174072 -4.89711426 7.9033252 -4.90649414 6.99829102 C-4.91363716 5.03119651 -4.86672518 3.06412004 -4.81640625 1.09765625 C-3.81640625 0.09765625 -3.81640625 0.09765625 0 0 Z " fill="#0B1516" transform="translate(285.81640625,391.90234375)"/>
<path d="M0 0 C4.1765625 -0.0309375 4.1765625 -0.0309375 8.4375 -0.0625 C9.75512329 -0.07615601 9.75512329 -0.07615601 11.09936523 -0.09008789 C13.06645974 -0.09723091 15.03353621 -0.05031893 17 0 C18 1 18 1 18.09765625 4.81640625 C18.09191138 6.39847047 18.07889593 7.98051031 18.0625 9.5625 C18.041875 12.346875 18.02125 15.13125 18 18 C12.06 18 6.12 18 0 18 C0 12.06 0 6.12 0 0 Z " fill="#0B1516" transform="translate(213,392)"/>
<path d="M0 0 C5.94 0 11.88 0 18 0 C18 5.94 18 11.88 18 18 C15.215625 18.020625 12.43125 18.04125 9.5625 18.0625 C8.68408447 18.071604 7.80566895 18.08070801 6.90063477 18.09008789 C4.93354026 18.09723091 2.96646379 18.05031893 1 18 C0 17 0 17 -0.09765625 13.18359375 C-0.09191138 11.60152953 -0.07889593 10.01948969 -0.0625 8.4375 C-0.041875 5.653125 -0.02125 2.86875 0 0 Z " fill="#0B1516" transform="translate(281,358)"/>
<path d="M0 0 C5.94 0 11.88 0 18 0 C18.020625 2.784375 18.04125 5.56875 18.0625 8.4375 C18.071604 9.31591553 18.08070801 10.19433105 18.09008789 11.09936523 C18.09723091 13.06645974 18.05031893 15.03353621 18 17 C17 18 17 18 13.18359375 18.09765625 C11.60152953 18.09191138 10.01948969 18.07889593 8.4375 18.0625 C4.2609375 18.0315625 4.2609375 18.0315625 0 18 C0 12.06 0 6.12 0 0 Z " fill="#0B1516" transform="translate(213,358)"/>
<path d="M0 0 C5.94 0 11.88 0 18 0 C18 5.94 18 11.88 18 18 C15.215625 18.020625 12.43125 18.04125 9.5625 18.0625 C8.68408447 18.071604 7.80566895 18.08070801 6.90063477 18.09008789 C4.93354026 18.09723091 2.96646379 18.05031893 1 18 C0 17 0 17 -0.09765625 13.18359375 C-0.09191138 11.60152953 -0.07889593 10.01948969 -0.0625 8.4375 C-0.041875 5.653125 -0.02125 2.86875 0 0 Z " fill="#0C1516" transform="translate(281,324)"/>
<path d="M0 0 C5.94 0 11.88 0 18 0 C18.020625 2.784375 18.04125 5.56875 18.0625 8.4375 C18.071604 9.31591553 18.08070801 10.19433105 18.09008789 11.09936523 C18.09723091 13.06645974 18.05031893 15.03353621 18 17 C17 18 17 18 13.18359375 18.09765625 C11.60152953 18.09191138 10.01948969 18.07889593 8.4375 18.0625 C4.2609375 18.0315625 4.2609375 18.0315625 0 18 C0 12.06 0 6.12 0 0 Z " fill="#0C1516" transform="translate(213,324)"/>
<path d="M0 0 C5.94 0 11.88 0 18 0 C18 5.61 18 11.22 18 17 C12.06 17 6.12 17 0 17 C0 11.39 0 5.78 0 0 Z " fill="#050C0D" transform="translate(247,461)"/>
<path d="M0 0 C5.94 0 11.88 0 18 0 C18 5.61 18 11.22 18 17 C12.06 17 6.12 17 0 17 C0 11.39 0 5.78 0 0 Z " fill="#060C0D" transform="translate(213,461)"/>
<path d="M0 0 C5.61 0 11.22 0 17 0 C17 5.94 17 11.88 17 18 C11.39 18 5.78 18 0 18 C0 12.06 0 6.12 0 0 Z " fill="#070D0E" transform="translate(179,426)"/>
<path d="M0 0 C5.61 0 11.22 0 17 0 C17 5.94 17 11.88 17 18 C11.39 18 5.78 18 0 18 C0 12.06 0 6.12 0 0 Z " fill="#060D0E" transform="translate(179,392)"/>
<path d="M0 0 C5.61 0 11.22 0 17 0 C17 5.94 17 11.88 17 18 C11.39 18 5.78 18 0 18 C0 12.06 0 6.12 0 0 Z " fill="#050B0C" transform="translate(145,392)"/>
<path d="M0 0 C5.61 0 11.22 0 17 0 C17 5.94 17 11.88 17 18 C11.39 18 5.78 18 0 18 C0 12.06 0 6.12 0 0 Z " fill="#060D0E" transform="translate(179,358)"/>
<path d="M0 0 C5.61 0 11.22 0 17 0 C17 5.94 17 11.88 17 18 C11.39 18 5.78 18 0 18 C0 12.06 0 6.12 0 0 Z " fill="#050B0C" transform="translate(145,358)"/>
<path d="M0 0 C5.61 0 11.22 0 17 0 C17 5.94 17 11.88 17 18 C11.39 18 5.78 18 0 18 C0 12.06 0 6.12 0 0 Z " fill="#070D0E" transform="translate(179,324)"/>
<path d="M0 0 C5.94 0 11.88 0 18 0 C18 5.61 18 11.22 18 17 C12.06 17 6.12 17 0 17 C0 11.39 0 5.78 0 0 Z " fill="#060C0D" transform="translate(213,290)"/>
<path d="M0 0 C5.61 0 11.22 0 17 0 C17 5.61 17 11.22 17 17 C11.39 17 5.78 17 0 17 C0 11.39 0 5.78 0 0 Z " fill="#010506" transform="translate(282,461)"/>
<path d="M0 0 C5.61 0 11.22 0 17 0 C17 5.61 17 11.22 17 17 C11.39 17 5.78 17 0 17 C0 11.39 0 5.78 0 0 Z " fill="#000303" transform="translate(179,461)"/>
<path d="M0 0 C5.61 0 11.22 0 17 0 C17 5.61 17 11.22 17 17 C11.39 17 5.78 17 0 17 C0 11.39 0 5.78 0 0 Z " fill="#000202" transform="translate(145,461)"/>
<path d="M0 0 C5.61 0 11.22 0 17 0 C17 5.61 17 11.22 17 17 C11.39 17 5.78 17 0 17 C0 11.39 0 5.78 0 0 Z " fill="#010404" transform="translate(145,427)"/>
<path d="M0 0 C5.61 0 11.22 0 17 0 C17 5.61 17 11.22 17 17 C11.39 17 5.78 17 0 17 C0 11.39 0 5.78 0 0 Z " fill="#010404" transform="translate(145,324)"/>
<path d="M0 0 C5.61 0 11.22 0 17 0 C17 5.61 17 11.22 17 17 C11.39 17 5.78 17 0 17 C0 11.39 0 5.78 0 0 Z " fill="#000303" transform="translate(179,290)"/>
<path d="M0 0 C5.61 0 11.22 0 17 0 C17 5.61 17 11.22 17 17 C11.39 17 5.78 17 0 17 C0 11.39 0 5.78 0 0 Z " fill="#000202" transform="translate(145,290)"/>
<path d="M0 0 C0.33 0 0.66 0 1 0 C1 6.6 1 13.2 1 20 C-5.6 20 -12.2 20 -19 20 C-17.35 18.68 -15.7 17.36 -14 16 C-13.113125 15.0925 -12.22625 14.185 -11.3125 13.25 C-9 11 -9 11 -7 11 C-6.7525 10.443125 -6.505 9.88625 -6.25 9.3125 C-4.78414946 6.6006765 -2.94544301 4.3847366 -1 2 C-0.67 1.34 -0.34 0.68 0 0 Z " fill="#7ECFD3" transform="translate(391,31)"/>
<path d="M0 0 C0.66 0.33 1.32 0.66 2 1 C-0.97 3.97 -3.94 6.94 -7 10 C-7 7 -7 7 -4.625 4.4375 C-3.75875 3.633125 -2.8925 2.82875 -2 2 C-1.34 1.34 -0.68 0.68 0 0 Z " fill="#111D1D" transform="translate(455,421)"/>
</svg>
