<?xml version="1.0" encoding="UTF-8"?>
<svg version="1.1" xmlns="http://www.w3.org/2000/svg" width="512" height="512">
<path d="M0 0 C3.07157739 1.55658274 5.46274986 3.69081729 8 6 C9.15628906 7.03253906 9.15628906 7.03253906 10.3359375 8.0859375 C12.02225774 9.60202983 13.70170335 11.12579574 15.375 12.65625 C17.9592898 14.96365161 20.6105675 17.14467043 23.3125 19.3125 C28.12585437 23.20255931 32.6476145 27.32871834 37.16113281 31.55566406 C41.37393141 35.47878593 45.76395352 39.11896414 50.25390625 42.72265625 C53.26319052 45.21826469 56.13938654 47.83765143 59 50.5 C62.73327255 53.97419243 66.52371111 57.3006871 70.5 60.5 C75.01777813 64.13499389 79.27818516 67.9671029 83.51953125 71.9140625 C86.75211747 74.90441358 90.06705866 77.73786329 93.5 80.5 C98.01858176 84.1356405 102.27983329 87.96836402 106.52172852 91.91625977 C109.7329905 94.88715628 113.02627815 97.69961077 116.4375 100.4375 C121.21541338 104.28045479 125.68994984 108.36831329 130.16162109 112.55615234 C134.37429105 116.47906854 138.76413555 120.11911024 143.25390625 123.72265625 C146.26319052 126.21826469 149.13938654 128.83765143 152 131.5 C155.73327255 134.97419243 159.52371111 138.3006871 163.5 141.5 C168.01858176 145.1356405 172.27983329 148.96836402 176.52172852 152.91625977 C179.7329905 155.88715628 183.02627815 158.69961077 186.4375 161.4375 C191.2696996 165.3270017 195.83014061 169.44339422 200.35058594 173.68579102 C203.38292905 176.52918457 206.46953288 179.23999794 209.6875 181.875 C212.81992247 184.61586966 214.5430588 186.70475274 215 191 C213.89448622 194.19370648 213.09504914 196.2919603 210.20953369 198.15768433 C207.58915362 199.15662234 205.57549711 199.24065775 202.77246094 199.22705078 C201.71720215 199.22680908 200.66194336 199.22656738 199.57470703 199.22631836 C198.47239746 199.21608643 197.37008789 199.20585449 196.234375 199.1953125 C195.21617676 199.19329834 194.19797852 199.19128418 193.14892578 199.18920898 C189.34923796 199.1787532 185.54961441 199.15083061 181.75 199.125 C173.2525 199.08375 164.755 199.0425 156 199 C156 226.72 156 254.44 156 283 C159.63 283 163.26 283 167 283 C168.98 284.485 168.98 284.485 171 286 C171 286.99 171 287.98 171 289 C171.61875 289.12375 172.2375 289.2475 172.875 289.375 C175 290 175 290 177 292 C177.37447615 294.92091393 177.4374512 296.39590072 175.6875 298.8125 C174 300 174 300 171 300 C169.68 319.14 168.36 338.28 167 358 C176.24 358 185.48 358 195 358 C199 362 199 362 199.45410156 365.57519531 C199.45347201 366.99299629 199.43109003 368.41090145 199.390625 369.828125 C199.38496521 370.57713074 199.37930542 371.32613647 199.37347412 372.09783936 C199.35114057 374.482552 199.30095386 376.86574408 199.25 379.25 C199.22993091 380.86976991 199.21168085 382.48956346 199.1953125 384.109375 C199.15128624 388.07349966 199.08228298 392.03649232 199 396 C199.86802246 395.98428955 200.73604492 395.9685791 201.63037109 395.95239258 C204.84698287 395.90130445 208.06338813 395.86366973 211.28027344 395.83520508 C212.67324622 395.82010642 214.06617138 395.79962556 215.45898438 395.77368164 C217.45942885 395.73734878 219.46021827 395.72188808 221.4609375 395.70703125 C222.66540527 395.6913208 223.86987305 395.67561035 225.11083984 395.65942383 C226.0642627 395.77181396 227.01768555 395.8842041 228 396 C230.05242673 399.0786401 230.25503162 399.75668297 230.29052734 403.24023438 C230.30328705 404.09121704 230.31604675 404.94219971 230.32919312 405.81896973 C230.33253159 407.19248596 230.33253159 407.19248596 230.3359375 408.59375 C230.3425943 409.53682007 230.3492511 410.47989014 230.35610962 411.45153809 C230.36623428 413.44537403 230.3709267 415.43924385 230.37060547 417.43310547 C230.37498355 420.48852036 230.41131843 423.54249654 230.44921875 426.59765625 C230.45508588 428.53384922 230.45905597 430.47004906 230.4609375 432.40625 C230.47530853 433.32192749 230.48967957 434.23760498 230.50448608 435.18103027 C230.45940766 441.41528064 230.45940766 441.41528064 228.36474609 444.08129883 C225.33855113 445.25697214 222.95154302 445.33893693 219.703125 445.29296875 C218.49785156 445.28330078 217.29257812 445.27363281 216.05078125 445.26367188 C214.79652344 445.23853516 213.54226563 445.21339844 212.25 445.1875 C210.98027344 445.17396484 209.71054687 445.16042969 208.40234375 445.14648438 C205.26780156 445.1111324 202.13411455 445.06178248 199 445 C199.01571045 445.9787207 199.0314209 446.95744141 199.04760742 447.96582031 C199.1019857 451.60359438 199.13637848 455.24133264 199.16479492 458.87939453 C199.17986364 460.45269822 199.20032245 462.02596002 199.22631836 463.59912109 C199.26278738 465.86306096 199.27974508 468.12644457 199.29296875 470.390625 C199.30845261 471.09181458 199.32393646 471.79300415 199.33988953 472.51544189 C199.34086915 475.37045455 199.19416995 477.60368436 197.92878723 480.1864267 C195.13174162 482.81639395 192.44327892 482.55125224 188.79882812 482.50057125 C188.05675771 482.50608542 187.31468729 482.51159958 186.55012989 482.51728085 C184.04350525 482.53096334 181.53785738 482.51593267 179.03125 482.50120544 C177.22413189 482.50509519 175.41701684 482.510733 173.60990906 482.51797634 C168.62848167 482.53279595 163.64736828 482.52251132 158.66595078 482.50823963 C153.29982665 482.49717052 147.93374805 482.50905893 142.56762695 482.51808167 C132.04924886 482.53204393 121.53099049 482.52443595 111.01261806 482.50940608 C98.77404047 482.49258112 86.535493 482.49575179 74.29690742 482.49950016 C52.46614319 482.50538421 30.63543656 482.4911858 8.8046875 482.46655273 C-12.39845947 482.44263038 -33.60152946 482.43554779 -54.8046875 482.44604492 C-77.87090741 482.45744389 -100.93709168 482.45939684 -124.00331116 482.44494683 C-126.46102905 482.44342092 -128.91874694 482.44190056 -131.37646484 482.44038582 C-133.19052464 482.4392491 -133.19052464 482.4392491 -135.04123211 482.43808941 C-143.58039058 482.43333868 -152.11953317 482.4352036 -160.65869141 482.43945122 C-171.05929216 482.44436846 -181.45982 482.43843574 -191.86040401 482.41855692 C-197.17108037 482.408658 -202.48164551 482.40360773 -207.79232788 482.41144943 C-212.6479598 482.41847273 -217.50336664 482.41178069 -222.35896873 482.3938458 C-224.12136601 482.38977943 -225.88378359 482.39083749 -227.64617348 482.39736467 C-230.03066556 482.40544419 -232.41438616 482.39529012 -234.79882812 482.38031673 C-235.49279284 482.38705439 -236.18675756 482.39379204 -236.90175152 482.40073386 C-239.71010305 482.36631999 -241.58832558 482.27774274 -243.94967651 480.68461949 C-245 479 -245 479 -245.00634766 475.66577148 C-243.84622874 471.43986523 -242.0116149 469.24756825 -238.8984375 466.34765625 C-238.38374908 465.84382919 -237.86906067 465.34000214 -237.33877563 464.82090759 C-235.69784011 463.21992875 -234.03767654 461.64085888 -232.375 460.0625 C-230.21111062 457.97522833 -228.05479757 455.88020185 -225.8984375 453.78515625 C-225.11678978 453.02955917 -225.11678978 453.02955917 -224.3193512 452.25869751 C-220.30447314 448.3576368 -216.58856461 444.29112313 -213 440 C-212.11216123 438.97787561 -211.2229174 437.95696938 -210.33203125 436.9375 C-208.04270234 434.26839095 -205.78481054 431.57855018 -203.54833984 428.86523438 C-202.47020214 427.56643715 -201.38110412 426.27669295 -200.28369141 424.99414062 C-198.5323965 422.93698713 -196.82635343 420.84854212 -195.125 418.75 C-194.57046143 418.11320312 -194.01592285 417.47640625 -193.44458008 416.8203125 C-191.91650265 414.88539473 -190.88836965 413.29978914 -190 411 C-190.2532271 408.97009396 -190.2532271 408.97009396 -191.10473633 406.92993164 C-191.39789734 406.13940399 -191.69105835 405.34887634 -191.99310303 404.53439331 C-192.32537903 403.69804352 -192.65765503 402.86169373 -193 402 C-193.32985901 401.15938019 -193.65971802 400.31876038 -193.99957275 399.45266724 C-195.10384666 396.6919185 -196.23731727 393.94473916 -197.37890625 391.19921875 C-197.79164291 390.20042191 -198.20437958 389.20162506 -198.62962341 388.17256165 C-199.49633799 386.07692265 -200.36452926 383.98189382 -201.23413086 381.88745117 C-202.56521003 378.68097172 -203.89136743 375.47249026 -205.21679688 372.26367188 C-206.06221315 370.22123541 -206.90790655 368.17891363 -207.75390625 366.13671875 C-208.34770836 364.70074593 -208.34770836 364.70074593 -208.95350647 363.23576355 C-209.50934669 361.89835869 -209.50934669 361.89835869 -210.07641602 360.53393555 C-210.5624807 359.36220039 -210.5624807 359.36220039 -211.05836487 358.16679382 C-212.78309651 353.65178897 -212.78309651 353.65178897 -216.38671875 350.75390625 C-220.15368958 348.22570012 -221.16277959 345.05633836 -222.8125 340.9375 C-223.12380859 340.20466797 -223.43511719 339.47183594 -223.75585938 338.71679688 C-226 333.34565591 -226 333.34565591 -226 331 C-226.53367187 330.84144531 -227.06734375 330.68289063 -227.6171875 330.51953125 C-237.11322702 327.54585798 -244.62954763 324.90392377 -249.94140625 316.0859375 C-253.01237883 310.03464835 -252.82873386 303.61705429 -250.8125 297.25 C-244.36948488 285.69700737 -233.29949624 282.51456665 -221.5 277.6875 C-219.90478516 277.0059082 -219.90478516 277.0059082 -218.27734375 276.31054688 C-210.6246985 273.18845541 -204.16291824 271.64097787 -196.046875 273.77734375 C-189.30099924 277.18469936 -184.98684347 281.58674383 -182.34765625 288.77734375 C-181.23563351 295.88679253 -182.30692051 300.531785 -185.1875 306.9375 C-187.91490765 313.33192771 -187.91490765 313.33192771 -187.0625 320.0625 C-186.11164903 322.11695158 -186.11164903 322.11695158 -185 324 C-182.66975166 329.00571866 -181.56411535 332.44247077 -182 338 C-182.33 338.66 -182.66 339.32 -183 340 C-182.08934308 342.60236487 -181.11102094 345.09896945 -180.03515625 347.6328125 C-179.72299667 348.38464813 -179.4108371 349.13648376 -179.08921814 349.91110229 C-178.08756671 352.31883557 -177.07518183 354.72188805 -176.0625 357.125 C-175.38275342 358.75361004 -174.70370772 360.38251281 -174.02539062 362.01171875 C-172.35838315 366.01125823 -170.68173385 370.00663162 -169 374 C-168.34 374 -167.68 374 -167 374 C-165.10706327 372.10706327 -165.8544311 368.78766606 -165.84178162 366.27403259 C-165.83437465 365.20694379 -165.83437465 365.20694379 -165.82681805 364.11829764 C-165.81136904 361.71680702 -165.80306253 359.31534329 -165.79467773 356.91381836 C-165.78510501 355.19940451 -165.7750953 353.48499304 -165.76467896 351.77058411 C-165.73755809 347.10138598 -165.71658754 342.43217767 -165.69667697 337.76294398 C-165.67486155 332.88886439 -165.6474512 328.01481643 -165.62062073 323.14076233 C-165.57063355 313.90432864 -165.52571715 304.66787745 -165.48259836 295.43140942 C-165.43327737 284.91886888 -165.37834025 274.40636008 -165.32291877 263.89385021 C-165.20900627 242.26259635 -165.10218752 220.63131221 -165 199 C-165.64257751 199.00444122 -166.28515503 199.00888245 -166.94720459 199.01345825 C-173.63047056 199.05767869 -180.31369502 199.08786112 -186.99707031 199.10986328 C-189.49187915 199.11992561 -191.98667618 199.13357679 -194.48144531 199.15087891 C-198.06578484 199.17511668 -201.64996853 199.18648082 -205.234375 199.1953125 C-206.35116638 199.20563507 -207.46795776 199.21595764 -208.61859131 199.22659302 C-209.65936829 199.22674408 -210.70014526 199.22689514 -211.77246094 199.22705078 C-212.68735291 199.231492 -213.60224487 199.23593323 -214.54486084 199.24050903 C-217.20651311 198.97976967 -218.76705593 198.45691207 -221 197 C-223.51250583 193.23124125 -223.53016086 191.46849866 -223 187 C-219.71056601 181.78227712 -214.87572387 178.37255374 -210.09375 174.5546875 C-206.75804245 171.84815753 -203.63088209 168.93865531 -200.5 166 C-195.73964575 161.54071243 -190.83527069 157.36198068 -185.74609375 153.27734375 C-182.73680948 150.78173531 -179.86061346 148.16234857 -177 145.5 C-172.41242561 141.23079221 -167.66556996 137.24241261 -162.78125 133.3125 C-159.22814914 130.35823636 -155.8597632 127.23086576 -152.47827148 124.08374023 C-149.2670095 121.11284372 -145.97372185 118.30038923 -142.5625 115.5625 C-138.37762693 112.19653735 -134.41685602 108.66823983 -130.5 105 C-125.73908666 100.54127805 -120.83532437 96.36202376 -115.74609375 92.27734375 C-112.73681042 89.7817361 -109.86059714 87.16236519 -107 84.5 C-103.29138312 81.04838064 -99.51494105 77.73477852 -95.5625 74.5625 C-91.37762693 71.19653735 -87.41685602 67.66823983 -83.5 64 C-78.73908666 59.54127805 -73.83532437 55.36202376 -68.74609375 51.27734375 C-65.73680948 48.78173531 -62.86061346 46.16234857 -60 43.5 C-55.41242561 39.23079221 -50.66556996 35.24241261 -45.78125 31.3125 C-42.75980368 28.80028621 -39.87563313 26.1759428 -37 23.5 C-32.35656001 19.18025956 -27.56105137 15.12111741 -22.6171875 11.14453125 C-19.24037985 8.37756498 -16.0034278 5.4714785 -12.77734375 2.53125 C-8.93105997 -0.78247141 -4.87481573 -0.80069437 0 0 Z M-17.4375 22.4375 C-18.07276611 22.98446533 -18.70803223 23.53143066 -19.36254883 24.0949707 C-23.01281618 27.2476628 -26.61944116 30.44171745 -30.1875 33.6875 C-33.47942205 36.6791816 -36.84591307 39.52524423 -40.3125 42.3125 C-45.12585437 46.20255931 -49.6476145 50.32871834 -54.16113281 54.55566406 C-58.37393141 58.47878593 -62.76395352 62.11896414 -67.25390625 65.72265625 C-70.26319052 68.21826469 -73.13938654 70.83765143 -76 73.5 C-80.58757439 77.76920779 -85.33443004 81.75758739 -90.21875 85.6875 C-93.77185086 88.64176364 -97.1402368 91.76913424 -100.52172852 94.91625977 C-103.7329905 97.88715628 -107.02627815 100.69961077 -110.4375 103.4375 C-114.62237307 106.80346265 -118.58314398 110.33176017 -122.5 114 C-127.26091334 118.45872195 -132.16467563 122.63797624 -137.25390625 126.72265625 C-140.26318958 129.2182639 -143.13940286 131.83763481 -146 134.5 C-149.70861688 137.95161936 -153.48505895 141.26522148 -157.4375 144.4375 C-161.62237307 147.80346265 -165.58314398 151.33176017 -169.5 155 C-174.25345793 159.45173976 -179.14850886 163.62565205 -184.23046875 167.703125 C-188.39084436 171.15347882 -192.32419376 174.83108663 -196.2734375 178.51953125 C-199 181 -199 181 -201.8515625 183.19921875 C-202.56054688 183.79347656 -203.26953125 184.38773438 -204 185 C-204 185.66 -204 186.32 -204 187 C-198.09623708 187.27431703 -192.19626699 187.4725932 -186.28759766 187.60424805 C-184.28335897 187.65917856 -182.27955314 187.73395841 -180.27685547 187.82983398 C-166.95722116 188.76992809 -166.95722116 188.76992809 -155.38751221 183.18977356 C-153.09770556 180.92121637 -151.04309514 178.49055814 -149 176 C-147.67275613 174.78248314 -146.32452981 173.58644383 -144.9375 172.4375 C-141.74755391 169.6719958 -138.61907011 166.84524228 -135.5 164 C-131.71337002 160.54671847 -127.8952368 157.13900949 -124.02734375 153.77734375 C-121.66510827 151.70640513 -119.33204147 149.60487152 -117 147.5 C-114.01937279 144.81016569 -111.02754767 142.13689636 -108 139.5 C-103.28298716 135.38918961 -98.64361111 131.19332155 -94 127 C-88.72014424 122.23213025 -83.42708194 117.48487782 -78.0625 112.8125 C-74.8248667 109.9673071 -71.6331371 107.07146164 -68.43359375 104.18359375 C-66.32488854 102.29151315 -64.20080199 100.42094242 -62.0625 98.5625 C-58.83440488 95.75177475 -55.66261557 92.884201 -52.5 90 C-48.71337002 86.54671847 -44.8952368 83.13900949 -41.02734375 79.77734375 C-38.66510827 77.70640513 -36.33204147 75.60487152 -34 73.5 C-31.01937279 70.81016569 -28.02754767 68.13689636 -25 65.5 C-17.34322798 58.91900092 -17.34322798 58.91900092 -10 52 C-9.91148471 49.40640678 -9.88474055 46.83960309 -9.90234375 44.24609375 C-9.9037587 43.47064713 -9.90517365 42.6952005 -9.90663147 41.89625549 C-9.91224655 39.40996506 -9.92480154 36.9237634 -9.9375 34.4375 C-9.94251306 32.75586067 -9.9470763 31.07421994 -9.95117188 29.39257812 C-9.96222087 25.26168434 -9.97949555 21.13085724 -10 17 C-12.48487469 17 -15.53107937 20.78655607 -17.4375 22.4375 Z M1 17 C-1.76348076 37.9899342 -1.76348076 37.9899342 4.05859375 57.1953125 C7.09849831 60.26293062 10.49557858 62.68064358 14.19287109 64.89794922 C16.48094696 66.29329838 18.36558642 67.97845097 20.3125 69.8125 C21.20388672 70.58013672 21.20388672 70.58013672 22.11328125 71.36328125 C24.43658787 73.37873772 26.71748465 75.43848462 29 77.5 C31.98062721 80.18983431 34.97245233 82.86310364 38 85.5 C41.89651647 88.89374015 45.73064945 92.35430003 49.56640625 95.81640625 C51.67511146 97.70848685 53.79919801 99.57905758 55.9375 101.4375 C60.13164365 105.08937053 64.23094292 108.84266184 68.33984375 112.58984375 C71.18755795 115.16993136 74.07244018 117.70201856 76.97265625 120.22265625 C79.33489173 122.29359487 81.66795853 124.39512848 84 126.5 C86.98062721 129.18983431 89.97245233 131.86310364 93 134.5 C98.58979989 139.37143203 104.07534898 144.3589515 109.578125 149.328125 C114.00121401 153.31704577 118.44615005 157.27567907 122.9375 161.1875 C125.30964429 163.27211164 127.65556065 165.38428644 130 167.5 C135.40757174 172.38827468 135.40757174 172.38827468 140.94555664 177.12695312 C143 179 143 179 144.56005859 181.06811523 C148.11854476 185.30708728 151.3699898 187.16587244 156.85229492 187.64672852 C162.76133833 187.88784659 168.65488991 187.69824509 174.5625 187.5 C176.6412076 187.45982861 178.71998971 187.42333428 180.79882812 187.390625 C185.86773805 187.30290215 190.93304412 187.16509913 196 187 C195.05585499 185.87858763 194.10884443 184.75958745 193.16064453 183.64160156 C192.37006149 182.7064975 192.37006149 182.7064975 191.56350708 181.75250244 C189.52742763 179.47030349 187.28804436 177.6243525 184.875 175.75 C180.76185671 172.47286144 176.8419124 169.08412444 173 165.5 C169.26720134 162.02533956 165.47623684 158.69927102 161.5 155.5 C156.98141824 151.8643595 152.72016671 148.03163598 148.47827148 144.08374023 C145.2670095 141.11284372 141.97372185 138.30038923 138.5625 135.5625 C133.78458662 131.71954521 129.31005016 127.63168671 124.83837891 123.44384766 C120.62570895 119.52093146 116.23586445 115.88088976 111.74609375 112.27734375 C108.73680948 109.78173531 105.86061346 107.16234857 103 104.5 C99.26672745 101.02580757 95.47628889 97.6993129 91.5 94.5 C86.98141824 90.8643595 82.72016671 87.03163598 78.47827148 83.08374023 C75.2670095 80.11284372 71.97372185 77.30038923 68.5625 74.5625 C63.78458662 70.71954521 59.31005016 66.63168671 54.83837891 62.44384766 C50.62570895 58.52093146 46.23586445 54.88088976 41.74609375 51.27734375 C38.73680948 48.78173531 35.86061346 46.16234857 33 43.5 C28.42309318 39.24071948 23.69105428 35.2579389 18.8125 31.34375 C15.06326558 28.21938799 11.50135199 24.9093358 7.97070312 21.54101562 C5.63611842 19.34580911 4.08502348 18.02834116 1 17 Z M-12.76464844 68.55029297 C-18.17931127 75.42102427 -15.96013305 86.88462115 -15.625 95.0625 C-15.57478881 97.18934868 -15.5291703 99.31631105 -15.48828125 101.44335938 C-15.387099 106.63400875 -15.19155785 111.80878222 -15 117 C-8.07 117 -1.14 117 6 117 C6.23057461 110.75142796 6.42918088 104.51776078 6.54931641 98.26831055 C6.59940377 96.14670668 6.66749899 94.02544455 6.75439453 91.9050293 C7.86268183 79.61676357 7.86268183 79.61676357 3.76464844 68.55029297 C-3.31654034 62.1136513 -5.68345966 62.1136513 -12.76464844 68.55029297 Z M17 82 C17 93.55 17 105.1 17 117 C23.93 117 30.86 117 38 117 C39.32409895 106.58222825 39.32409895 106.58222825 36.0546875 97.11328125 C33.47849433 94.85615788 30.83286229 92.92215549 28 91 C26.50297313 89.70790836 25.02192899 88.39691272 23.5625 87.0625 C21.41582783 85.16679577 19.39804278 83.59869519 17 82 Z M-32.5234375 87.84375 C-35 90 -35 90 -37.9765625 92.09375 C-43.54122845 96.12299499 -43.54122845 96.12299499 -46.48583984 102.11132812 C-46.95713277 107.21466481 -46.45250306 111.81678314 -46 117 C-39.4 117 -32.8 117 -26 117 C-26 105.78 -26 94.56 -26 83 C-28.38924735 83 -30.87017443 86.32875984 -32.5234375 87.84375 Z M-62.09765625 113.81640625 C-62.73034424 114.41235596 -63.36303223 115.00830566 -64.01489258 115.62231445 C-64.69060303 116.26257568 -65.36631348 116.90283691 -66.0625 117.5625 C-70.68171902 121.90856563 -75.30661581 126.22391861 -80.11328125 130.36328125 C-82.43658787 132.37873772 -84.71748465 134.43848462 -87 136.5 C-90.61676345 139.76390848 -94.26389608 142.98790949 -97.9375 146.1875 C-101.1751333 149.0326929 -104.3668629 151.92853836 -107.56640625 154.81640625 C-109.67511146 156.70848685 -111.79919801 158.57905758 -113.9375 160.4375 C-117.16559512 163.24822525 -120.33738443 166.115799 -123.5 169 C-127.28391823 172.45080851 -131.09868259 175.85676126 -134.96484375 179.21484375 C-138.17996706 182.03501909 -141.34194045 184.91382789 -144.5078125 187.7890625 C-147 190 -147 190 -150.11066628 192.20435619 C-152.62714963 194.31198634 -152.96287345 194.83790655 -153.73828697 198.22334003 C-153.73275621 199.4502465 -153.72722546 200.67715296 -153.7215271 201.9412384 C-153.72665365 202.62746377 -153.7317802 203.31368914 -153.7370621 204.02070922 C-153.74692468 206.31400581 -153.71398803 208.60465243 -153.68115234 210.89770508 C-153.67945944 212.54374123 -153.68041079 214.18978191 -153.68380737 215.83581543 C-153.68552884 220.30065033 -153.65025493 224.76451801 -153.60836363 229.22912812 C-153.57085456 233.89624772 -153.56733114 238.56338953 -153.56021118 243.2306366 C-153.54156282 252.06696778 -153.492326 260.90285354 -153.43211424 269.73898858 C-153.36504875 279.79930962 -153.33206002 289.85965193 -153.30194163 299.92014086 C-153.23922688 320.61368256 -153.13248344 341.30679754 -153 362 C-148.05 359.69 -143.1 357.38 -138 355 C-137.98541748 352.60274658 -137.97083496 350.20549316 -137.95581055 347.7355957 C-137.90545992 339.8125829 -137.83886398 331.88976654 -137.76428509 323.9669466 C-137.71956909 319.16360974 -137.68031565 314.36035794 -137.65356445 309.55688477 C-137.62754378 304.92072891 -137.58715008 300.28490015 -137.53681374 295.64894676 C-137.52013667 293.88078062 -137.50862762 292.11255789 -137.50238609 290.34432411 C-137.49275407 287.86632673 -137.4647063 285.38916778 -137.43237305 282.91137695 C-137.43380814 282.18129425 -137.43524323 281.45121155 -137.4367218 280.69900513 C-137.35481537 276.25681464 -136.51383575 273.63605549 -134 270 C-134 269.34 -134 268.68 -134 268 C-128.173796 264.86281323 -122.8719401 263.70187145 -116.28564453 263.7253418 C-115.53684021 263.72023087 -114.78803589 263.71511993 -114.01654053 263.70985413 C-111.55521524 263.6960192 -109.09417192 263.69691039 -106.6328125 263.69921875 C-104.91177264 263.69532821 -103.19073373 263.6909928 -101.46969604 263.68623352 C-97.8669727 263.67878423 -94.26434737 263.67905302 -90.66162109 263.68432617 C-86.05958733 263.6901163 -81.45795663 263.67319467 -76.85598946 263.6499815 C-73.30249715 263.63520229 -69.74910095 263.63437819 -66.19558334 263.63749123 C-64.4996244 263.63698003 -62.8036598 263.6317803 -61.10773087 263.62167931 C-58.72927416 263.60925177 -56.35159018 263.61614387 -53.97314453 263.62768555 C-53.2819754 263.62004181 -52.59080627 263.61239807 -51.87869263 263.60452271 C-45.74643838 263.66983028 -40.11118048 264.9443769 -35.625 269.3125 C-31.65178758 275.88358208 -31.69606655 282.04419085 -31.68115234 289.51318359 C-31.67110672 290.66498108 -31.6610611 291.81677856 -31.65071106 293.003479 C-31.61987735 296.80179354 -31.60284309 300.60003757 -31.5859375 304.3984375 C-31.56722604 307.03545742 -31.54765265 309.67247136 -31.5272522 312.30947876 C-31.48053869 318.53537187 -31.44375877 324.76128212 -31.41057932 330.98726046 C-31.36854787 338.77412152 -31.31320047 346.5608807 -31.2578125 354.34765625 C-31.15911268 368.23171484 -31.08050041 382.11579748 -31 396 C-8.23 396 14.54 396 38 396 C38 389.07 38 382.14 38 375 C35.13570312 374.95101563 32.27140625 374.90203125 29.3203125 374.8515625 C26.55349391 374.79758941 23.78676365 374.74026753 21.02001953 374.68261719 C19.09365386 374.64427832 17.1672154 374.60943418 15.24072266 374.578125 C12.47532082 374.53258055 9.71042231 374.47456963 6.9453125 374.4140625 C6.0806839 374.40251129 5.2160553 374.39096008 4.32522583 374.37905884 C-1.77225659 374.22774341 -1.77225659 374.22774341 -4 372 C-4.2086401 370.04107189 -4.2086401 370.04107189 -4.15061951 367.59501648 C-4.13432495 366.66866898 -4.1180304 365.74232147 -4.10124207 364.78790283 C-4.0735524 363.76823425 -4.04586273 362.74856567 -4.01733398 361.69799805 C-3.97488073 359.47557147 -3.93303451 357.25313324 -3.89170837 355.03068542 C-3.86669691 353.84706106 -3.84168545 352.6634367 -3.81591606 351.44394493 C-3.69711309 345.17862107 -3.65497148 338.91266169 -3.60351562 332.64648438 C-3.53775091 324.66935934 -3.44825476 316.6974607 -3.24926758 308.72241211 C-3.09057519 302.28055449 -3.02584655 295.8436511 -3.02302742 289.39991188 C-3.00520584 286.95122204 -2.95371907 284.50252452 -2.86706352 282.05530357 C-2.03383765 269.18400807 -2.03383765 269.18400807 -6.83067703 257.73776627 C-11.29542516 253.74481238 -16.25925027 250.94255565 -21.59474373 248.27887917 C-25.3801658 246.26616331 -28.72697872 243.72367212 -32.125 241.125 C-33.33403632 240.22185369 -34.54358342 239.31939026 -35.75390625 238.41796875 C-36.30836426 238.00208496 -36.86282227 237.58620117 -37.43408203 237.15771484 C-38.84205364 236.11677294 -40.27698839 235.112539 -41.71484375 234.11328125 C-50.81790703 227.61542077 -55.08279948 218.86856643 -57 208 C-57.60193165 200.59167865 -57.48982433 193.134313 -57.51171875 185.70703125 C-57.52858542 183.54797863 -57.5467383 181.38893571 -57.56611633 179.22990417 C-57.6134065 173.57969189 -57.64335129 167.92951897 -57.66955566 162.2791748 C-57.69946751 156.50049065 -57.74596113 150.72194179 -57.79101562 144.94335938 C-57.8768098 133.62897733 -57.94426086 122.31456726 -58 111 C-59.79216562 111 -60.85250603 112.63716853 -62.09765625 113.81640625 Z M49 111 C49 146.64 49 182.28 49 219 C55.93 219 62.86 219 70 219 C70.34027527 207.50742076 70.61483375 196.01823858 70.77718258 184.52174187 C70.85514477 179.18200977 70.96067186 173.8459303 71.1315918 168.50830078 C71.29582024 163.34672963 71.38450612 158.18864585 71.42315865 153.02466202 C71.45066115 151.06516752 71.50437537 149.10584274 71.58595085 147.14785385 C72.15272447 135.09521979 72.15272447 135.09521979 66.77175903 124.722229 C61.39304634 119.3098967 55.33425974 115.22283982 49 111 Z M-46 129 C-46 135.93 -46 142.86 -46 150 C-18.28 150 9.44 150 38 150 C38 143.07 38 136.14 38 129 C10.28 129 -17.44 129 -46 129 Z M81 140 C81 157.16 81 174.32 81 192 C87.93 192 94.86 192 102 192 C102.23114776 187.17414848 102.42942061 182.36777638 102.54931641 177.54077148 C102.59930035 175.90403933 102.66732082 174.26774686 102.75439453 172.63256836 C103.47350679 162.80757915 103.47350679 162.80757915 99.88549805 154.00341797 C97.36552342 151.73560349 94.82106742 149.8717895 92 148 C90.49987424 146.69029221 89.01661865 145.36060676 87.5625 144 C85.22672133 141.89341047 84.04683883 141.01561294 81 140 Z M-46 161 C-46 171.23 -46 181.46 -46 192 C-39.4 192 -32.8 192 -26 192 C-26 181.77 -26 171.54 -26 161 C-32.6 161 -39.2 161 -46 161 Z M-15 161 C-15.20360359 171.04896813 -15.3685952 181.09655957 -15.46630955 191.1471262 C-15.51321618 195.81444177 -15.57679671 200.48026938 -15.67895508 205.14672852 C-15.77698951 209.65318774 -15.83060673 214.15821929 -15.85389519 218.66566277 C-15.87048272 220.38220636 -15.90287799 222.09867461 -15.95157051 223.81460762 C-16.50988319 233.26515764 -16.50988319 233.26515764 -12.97164917 241.65231323 C-9.38200395 244.70430674 -9.38200395 244.70430674 -5 246 C-4.98541748 245.31897217 -4.97083496 244.63794434 -4.95581055 243.9362793 C-4.88137304 240.85277785 -4.78469917 237.77036433 -4.6875 234.6875 C-4.65366211 233.0797168 -4.65366211 233.0797168 -4.61914062 231.43945312 C-4.58369141 230.41142578 -4.54824219 229.38339844 -4.51171875 228.32421875 C-4.48553467 227.37635498 -4.45935059 226.42849121 -4.43237305 225.4519043 C-4 223 -4 223 -2.90551758 221.22973633 C-1 220 -1 220 6 219 C6 199.86 6 180.72 6 161 C-0.93 161 -7.86 161 -15 161 Z M17 161 C17 171.23 17 181.46 17 192 C23.93 192 30.86 192 38 192 C38 181.77 38 171.54 38 161 C31.07 161 24.14 161 17 161 Z M113 168 C113 184.83 113 201.66 113 219 C117.29 219.33 121.58 219.66 126 220 C126.66 220.33 127.32 220.66 128 221 C128.33 230.9 128.66 240.8 129 251 C133.95 251 138.9 251 144 251 C144.37354428 243.28161734 144.64419314 235.56859141 144.82397461 227.84326172 C144.89896782 225.22188608 145.00100983 222.60112862 145.1315918 219.98193359 C146.48704985 204.23635436 146.48704985 204.23635436 140.75024414 190.21191406 C137.69350162 187.11155428 134.37811345 184.5516792 130.7434082 182.16558838 C128.47784529 180.65090364 126.54236654 178.86685821 124.5625 177 C120.82658407 173.85396553 116.90729375 170.93047031 113 168 Z M-46 204 C-44.44250928 214.90243503 -41.21666079 220.77853549 -32.40234375 227.40625 C-29.80865773 229.19716867 -29.80865773 229.19716867 -26 231 C-26 222.09 -26 213.18 -26 204 C-32.6 204 -39.2 204 -46 204 Z M17 204 C17 208.95 17 213.9 17 219 C23.93 219 30.86 219 38 219 C38 214.05 38 209.1 38 204 C31.07 204 24.14 204 17 204 Z M81 204 C81 208.95 81 213.9 81 219 C87.93 219 94.86 219 102 219 C102 214.05 102 209.1 102 204 C95.07 204 88.14 204 81 204 Z M7 231 C7 234.3 7 237.6 7 241 C36.37 241 65.74 241 96 241 C96 237.7 96 234.4 96 231 C66.63 231 37.26 231 7 231 Z M7 252 C7 288.96 7 325.92 7 364 C9.97 364 12.94 364 16 364 C16 327.04 16 290.08 16 252 C13.03 252 10.06 252 7 252 Z M108 231 C107.67 244.2 107.34 257.4 107 271 C102 273 102 273 99.75 272.3125 C98 271 98 271 97 268 C96.67 262.72 96.34 257.44 96 252 C73.56 252 51.12 252 28 252 C28 288.96 28 325.92 28 364 C31.3 364 34.6 364 38 364 C38.99 362.02 38.99 362.02 40 360 C42.50934299 358.7453285 44.28377355 358.84126442 47.09228516 358.79467773 C48.68370834 358.7647599 48.68370834 358.7647599 50.30728149 358.73423767 C52.03076309 358.70916893 52.03076309 358.70916893 53.7890625 358.68359375 C54.96262299 358.66281265 56.13618347 358.64203156 57.3453064 358.62062073 C61.10514304 358.55508017 64.86505122 358.49621924 68.625 358.4375 C71.16927832 358.39431908 73.71354933 358.35070493 76.2578125 358.30664062 C82.50513207 358.19939418 88.75252326 358.0976362 95 358 C95.0716864 350.56144636 94.92796059 343.19943476 94.37890625 335.78125 C94.28258156 334.42259827 94.28258156 334.42259827 94.18431091 333.03649902 C94.04934414 331.14755586 93.91229333 329.25876048 93.77319336 327.37011719 C93.56095181 324.47891022 93.35719699 321.58718852 93.15429688 318.6953125 C93.02133334 316.84892226 92.88788739 315.00256668 92.75390625 313.15625 C92.6934462 312.29584106 92.63298615 311.43543213 92.57069397 310.5489502 C92.51070724 309.74711304 92.45072052 308.94527588 92.38891602 308.11914062 C92.33784195 307.41809204 92.28676788 306.71704346 92.23414612 305.99475098 C91.98710576 303.89015069 91.69582227 302.00522917 91 300 C90.154375 299.525625 89.30875 299.05125 88.4375 298.5625 C86 297 86 297 85.375 294.5 C86 292 86 292 88.375 290.4375 C89.24125 289.963125 90.1075 289.48875 91 289 C92.19232613 286.94996045 92.19232613 286.94996045 93 285 C95.41906791 283.79046605 97.02166308 283.84320092 99.72509766 283.79467773 C100.70596344 283.77473251 101.68682922 283.75478729 102.69741821 283.73423767 C104.28965714 283.70916893 104.28965714 283.70916893 105.9140625 283.68359375 C106.99883881 283.66281265 108.08361511 283.64203156 109.20126343 283.62062073 C112.67577621 283.55509366 116.15036624 283.49622553 119.625 283.4375 C121.97657058 283.39431779 124.32813326 283.3507036 126.6796875 283.30664062 C132.45304529 283.19940902 138.22648098 283.09815045 144 283 C144 276.4 144 269.8 144 263 C139.05 263 134.1 263 129 263 C128.67 265.64 128.34 268.28 128 271 C125.75 272.125 125.75 272.125 123 273 C121.68 272.34 120.36 271.68 119 271 C118.67 257.8 118.34 244.6 118 231 C114.7 231 111.4 231 108 231 Z M-126 277 C-127.16035505 280.48106514 -127.12002704 283.1847233 -127.11352539 286.8581543 C-127.11367142 287.55109589 -127.11381744 288.24403748 -127.1139679 288.95797729 C-127.11327163 291.24675637 -127.1054926 293.5354539 -127.09765625 295.82421875 C-127.09579106 297.41176814 -127.09436763 298.99931811 -127.09336853 300.58686829 C-127.08955134 304.7642272 -127.07972786 308.94155131 -127.06866455 313.11889648 C-127.05843328 317.38199391 -127.05386723 321.64509696 -127.04882812 325.90820312 C-127.03810489 334.27215138 -127.02103803 342.63607136 -127 351 C-125.99984863 350.99202393 -124.99969727 350.98404785 -123.96923828 350.97583008 C-122.62793058 350.96937584 -121.28662191 350.9631202 -119.9453125 350.95703125 C-117.98102295 350.94506714 -117.98102295 350.94506714 -115.97705078 350.93286133 C-96.32144968 351.2646778 -79.60351949 358.45720589 -65.828125 372.46875 C-61.49714324 377.4982772 -58.40535942 383.55364686 -55.41040039 389.44604492 C-54.95141357 390.29271729 -54.49242676 391.13938965 -54.01953125 392.01171875 C-53.62870361 392.77959717 -53.23787598 393.54747559 -52.83520508 394.33862305 C-49.89841121 396.9972478 -46.872086 396.10348292 -43 396 C-42.9299562 380.66656153 -42.87703456 365.33313044 -42.84456348 349.99956799 C-42.82908665 342.8801101 -42.80798168 335.76075155 -42.77368164 328.64135742 C-42.7406161 321.77493151 -42.72316277 314.90860903 -42.71536827 308.04210854 C-42.70981127 305.41815882 -42.69896031 302.79421496 -42.68280983 300.17030907 C-42.66113579 296.50428269 -42.65802892 292.83868722 -42.65942383 289.17260742 C-42.648638 288.0800061 -42.63785217 286.98740479 -42.6267395 285.86169434 C-42.63086349 284.86470016 -42.63498749 283.86770599 -42.63923645 282.84049988 C-42.63647107 281.97309268 -42.63370569 281.10568548 -42.63085651 280.21199322 C-43.08487432 277.49141342 -43.78529428 276.60805103 -46 275 C-48.53601313 274.70922447 -50.82568534 274.60017445 -53.36132812 274.62768555 C-54.48129433 274.62220955 -54.48129433 274.62220955 -55.62388611 274.61662292 C-58.09323841 274.60851345 -60.5619353 274.6221304 -63.03125 274.63671875 C-64.74613444 274.63723731 -66.46101947 274.63671977 -68.17590332 274.63520813 C-71.77051667 274.63529787 -75.36490582 274.64573103 -78.95947266 274.66381836 C-83.56987164 274.68650563 -88.17994295 274.68704985 -92.79038239 274.68030071 C-96.33167438 274.67696112 -99.87289151 274.68359063 -103.41416931 274.69342995 C-105.11424874 274.69728241 -106.8143365 274.69842997 -108.51441956 274.6968441 C-110.88933207 274.69647373 -113.26382266 274.70908547 -115.63867188 274.7253418 C-116.69543373 274.72162567 -116.69543373 274.72162567 -117.77354431 274.71783447 C-121.40982787 274.75761096 -122.88414494 274.92276329 -126 277 Z M-220.34667969 289.85229492 C-222.25127771 290.68806068 -224.16704641 291.49260576 -226.0859375 292.29492188 C-227.31328363 292.82370567 -228.53987492 293.35424569 -229.765625 293.88671875 C-230.86680664 294.36326904 -231.96798828 294.83981934 -233.10253906 295.33081055 C-236.76484265 297.44061587 -239.42306113 299.89914673 -240.56640625 304.0625 C-240.55908236 307.69515164 -240.27461394 309.57827145 -238.25 312.6875 C-233.36949578 316.16016647 -226.85614483 320.26438451 -220.6640625 319.83984375 C-216.82468926 318.62948415 -213.1026991 317.20466081 -209.375 315.6875 C-208.611875 315.39166016 -207.84875 315.09582031 -207.0625 314.79101562 C-201.76978408 312.64143013 -199.42088478 310.83701744 -196.83203125 305.66796875 C-194.77621551 300.66627146 -193.13836059 296.49295124 -194 291 C-195.79562405 288.24670979 -197.05254922 286.47372539 -200 285 C-207.52789947 284.02719174 -213.5773005 286.86987683 -220.34667969 289.85229492 Z M103 295 C102.739243 305.70489371 103.45211082 316.29740073 104.22680664 326.96777344 C104.43855912 329.8896141 104.64264615 332.81191841 104.84570312 335.734375 C104.97871959 337.61201089 105.11216777 339.48961626 105.24609375 341.3671875 C105.3065538 342.2308493 105.36701385 343.09451111 105.42930603 343.98434448 C105.48929276 344.80274811 105.54927948 345.62115173 105.61108398 346.46435547 C105.66215805 347.17349091 105.71323212 347.88262634 105.76585388 348.61325073 C106.07397103 351.75401767 106.55369622 354.87587355 107 358 C122.84 358 138.68 358 155 358 C155.7115625 349.275625 155.7115625 349.275625 156.4375 340.375 C156.58501709 338.5707959 156.73253418 336.7665918 156.88452148 334.90771484 C157.47376098 327.67958034 158.05419647 320.45077808 158.59375 313.21875 C158.67173828 312.17396484 158.74972656 311.12917969 158.83007812 310.05273438 C159.1096302 305.03043678 159.06132598 300.02873047 159 295 C154.38 295 149.76 295 145 295 C144.98541748 296.16571533 144.97083496 297.33143066 144.95581055 298.5324707 C144.89786883 302.85456122 144.82063606 307.17612847 144.73754883 311.49780273 C144.70427998 313.36881014 144.67625415 315.23991838 144.65356445 317.11108398 C144.62005412 319.79975383 144.56774135 322.48749798 144.51171875 325.17578125 C144.50213387 326.43217155 144.50213387 326.43217155 144.49235535 327.71394348 C144.34447574 333.5455762 144.34447574 333.5455762 142.66828918 335.75675964 C141 337 141 337 137.875 336.8125 C136.92625 336.544375 135.9775 336.27625 135 336 C133.33650681 332.67301363 133.75621943 328.93570615 133.68359375 325.2734375 C133.66281265 324.41062164 133.64203156 323.54780579 133.62062073 322.65884399 C133.55513966 319.89764507 133.49624702 317.13634962 133.4375 314.375 C133.3943134 312.50519828 133.35069907 310.63540638 133.30664062 308.765625 C133.19945976 304.17718272 133.09818825 299.58864317 133 295 C129.7 295 126.4 295 123 295 C122.67 299.62 122.34 304.24 122 309 C115.25 310 115.25 310 113 310 C112.67 305.05 112.34 300.1 112 295 C109.03 295 106.06 295 103 295 Z M-207.125 326.375 C-208.20007813 326.81585938 -209.27515625 327.25671875 -210.3828125 327.7109375 C-213.11687353 328.72976408 -213.11687353 328.72976408 -214 331 C-213.06421005 333.35981813 -212.06652192 335.69631264 -211 338 C-205.53262809 336.25192871 -200.24175152 334.34205919 -195 332 C-195.99 329.36 -196.98 326.72 -198 324 C-201.58389085 324 -203.82312555 324.99855595 -207.125 326.375 Z M-202 347 C-200.00856106 353.23259515 -197.7445606 359.2957187 -195.2421875 365.33984375 C-194.7194072 366.61209557 -194.7194072 366.61209557 -194.18606567 367.91004944 C-193.45632338 369.68450075 -192.72517733 371.45837539 -191.99267578 373.23168945 C-190.86844308 375.95337382 -189.74830534 378.67671512 -188.62890625 381.40039062 C-187.91690001 383.13030439 -187.20466858 384.8601255 -186.4921875 386.58984375 C-186.15677948 387.40436508 -185.82137146 388.21888641 -185.47579956 389.05809021 C-183.83276719 393.07158523 -183.83276719 393.07158523 -182 397 C-181.34 397 -180.68 397 -180 397 C-178.1839171 394.5612601 -176.93830427 392.84084269 -176 390 C-176.29594408 387.89803445 -176.29594408 387.89803445 -177.16333008 385.80688477 C-177.45495026 385.01839142 -177.74657043 384.22989807 -178.04702759 383.41751099 C-178.36150848 382.61973236 -178.67598938 381.82195374 -179 381 C-179.28297943 380.26578827 -179.56595886 379.53157654 -179.85751343 378.77511597 C-180.74286801 376.51716488 -181.65456469 374.27153075 -182.57421875 372.02734375 C-182.90291458 371.21882462 -183.23161041 370.41030548 -183.57026672 369.57728577 C-184.60670173 367.02960474 -185.6470267 364.48353407 -186.6875 361.9375 C-187.39674377 360.19606916 -188.10573048 358.45453361 -188.81445312 356.71289062 C-190.54000318 352.47404557 -192.26904044 348.23663876 -194 344 C-196.60939857 344 -199.6401989 345.97026861 -202 347 Z M-159 383 C-161.80154134 386.98632836 -164.23007457 391.13463419 -166.625 395.375 C-179.15650845 417.11770269 -193.83135968 436.58866665 -210.8046875 455.05078125 C-211.28381592 455.57236816 -211.76294434 456.09395508 -212.2565918 456.63134766 C-213.61046974 458.10372745 -214.96725755 459.57343003 -216.32421875 461.04296875 C-219.27791691 464.30712861 -222.13510783 467.6576258 -225 471 C-162.96 471 -100.92 471 -37 471 C-34.86252445 439.85082873 -34.86252445 439.85082873 -49.04541016 419.23828125 C-52.54423809 415.23162943 -55.15906022 410.68177026 -57.875 406.125 C-58.41705078 405.23723877 -58.95910156 404.34947754 -59.51757812 403.43481445 C-61.80045384 399.69284981 -64.04780156 395.93348295 -66.23828125 392.13671875 C-75.00300035 377.18927195 -86.4040027 367.97115127 -103 363 C-124.45155496 357.89248692 -144.94507142 366.94622126 -159 383 Z M49 370 C49 378.58 49 387.16 49 396 C69.79 396 90.58 396 112 396 C112 387.42 112 378.84 112 370 C91.21 370 70.42 370 49 370 Z M124 370 C124 378.58 124 387.16 124 396 C144.79 396 165.58 396 187 396 C187 387.42 187 378.84 187 370 C166.21 370 145.42 370 124 370 Z M-43 407 C-41.2163834 411.4590415 -39.23085109 414.62177329 -36.3125 418.3125 C-35.90322266 418.84294922 -35.49394531 419.37339844 -35.07226562 419.91992188 C-34.20899837 421.0271848 -33.32893518 422.1215152 -32.43432617 423.20361328 C-31 425 -31 425 -29.54418945 427.18310547 C-27.08408672 430.57368223 -25.37941563 432.68841068 -21.19311523 433.6340332 C-17.93643876 433.78736934 -14.8181688 433.69938518 -11.5625 433.5 C-7.746875 433.335 -3.93125 433.17 0 433 C0 424.42 0 415.84 0 407 C-14.19 407 -28.38 407 -43 407 Z M12 407 C12 415.58 12 424.16 12 433 C32.79 433 53.58 433 75 433 C75 424.42 75 415.84 75 407 C54.21 407 33.42 407 12 407 Z M87 407 C87 415.58 87 424.16 87 433 C107.79 433 128.58 433 150 433 C150 424.42 150 415.84 150 407 C129.21 407 108.42 407 87 407 Z M161 407 C161 415.58 161 424.16 161 433 C179.81 433 198.62 433 218 433 C218 424.42 218 415.84 218 407 C199.19 407 180.38 407 161 407 Z M-25 445 C-25 453.58 -25 462.16 -25 471 C-4.21 471 16.58 471 38 471 C38 462.42 38 453.84 38 445 C17.21 445 -3.58 445 -25 445 Z M49 445 C49 453.58 49 462.16 49 471 C69.79 471 90.58 471 112 471 C112 462.42 112 453.84 112 445 C91.21 445 70.42 445 49 445 Z M124 445 C124 453.58 124 462.16 124 471 C144.79 471 165.58 471 187 471 C187 462.42 187 453.84 187 445 C166.21 445 145.42 445 124 445 Z " fill="#000000" transform="translate(267,15)"/>
<path d="M0 0 C3.0625 0.3125 3.0625 0.3125 4.72680664 1.45117188 C7.70620302 5.60304868 6.52787562 11.90132292 6.5 16.8125 C6.5299707 18.68615234 6.5299707 18.68615234 6.56054688 20.59765625 C6.55990234 21.79261719 6.55925781 22.98757813 6.55859375 24.21875 C6.56137329 25.86327148 6.56137329 25.86327148 6.56420898 27.54101562 C6.0625 30.3125 6.0625 30.3125 4.22680664 32.19726562 C2.0625 33.3125 2.0625 33.3125 -1.0625 33.25 C-3.9375 32.3125 -3.9375 32.3125 -5.3125 30.625 C-6.08001823 27.78518254 -6.07059772 25.24064973 -5.9375 22.3125 C-6.576875 22.168125 -7.21625 22.02375 -7.875 21.875 C-9.9375 21.3125 -9.9375 21.3125 -10.9375 20.3125 C-11.4039311 14.9485424 -11.4039311 14.9485424 -9.5625 12.4375 C-7.9375 11.3125 -7.9375 11.3125 -5.9375 11.3125 C-5.88851562 10.68601562 -5.83953125 10.05953125 -5.7890625 9.4140625 C-5.71429688 8.59679687 -5.63953125 7.77953125 -5.5625 6.9375 C-5.49289063 6.12539063 -5.42328125 5.31328125 -5.3515625 4.4765625 C-4.67477364 0.939383 -3.49791701 0.37211883 0 0 Z " fill="#000000" transform="translate(208.9375,335.6875)"/>
<path d="M0 0 C1.9375 1.0625 1.9375 1.0625 3 3 C3.3125 6.375 3.3125 6.375 2 10 C-1.06021439 12.30324804 -4.45850538 13.58979145 -8 15 C-9.1034375 15.49113281 -10.206875 15.98226563 -11.34375 16.48828125 C-20.12567088 20.22462603 -20.12567088 20.22462603 -24.390625 19.12890625 C-25.25171875 18.75636719 -26.1128125 18.38382812 -27 18 C-27.6875 14.6875 -27.6875 14.6875 -28 11 C-24.99027219 7.03155993 -20.14017811 5.67086301 -15.6875 3.8125 C-14.84509766 3.44447266 -14.00269531 3.07644531 -13.13476562 2.69726562 C-8.62996964 0.79884105 -4.98312309 -0.60354596 0 0 Z " fill="#000000" transform="translate(63,307)"/>
<path d="M0 0 C1.875 1.125 1.875 1.125 3 3 C3.39365568 6.14924548 3.52854531 8.11909116 1.875 10.875 C-0.88090884 12.52854531 -2.85075452 12.39365568 -6 12 C-7.875 10.875 -7.875 10.875 -9 9 C-9.39365568 5.85075452 -9.52854531 3.88090884 -7.875 1.125 C-5.11909116 -0.52854531 -3.14924548 -0.39365568 0 0 Z " fill="#000000" transform="translate(180,459)"/>
<path d="M0 0 C3.42201828 -0.37331109 5.90185629 -0.63763183 8.9375 1.125 C10.50422245 3.88980433 10.38976435 5.88188517 10 9 C8.9375 10.9375 8.9375 10.9375 7 12 C0.66666667 11.66666667 0.66666667 11.66666667 -2 9 C-2.34490322 4.94738713 -2.30163882 3.45245824 0 0 Z " fill="#000000" transform="translate(109,427)"/>
<path d="M0 0 C1.875 1.0625 1.875 1.0625 3 3 C3.3125 6.5625 3.3125 6.5625 3 10 C1 12 1 12 -1.875 12.375 C-5 12 -5 12 -7.375 10.3125 C-9 8 -9 8 -9.4375 5.4375 C-9 3 -9 3 -7.875 1.1875 C-5.12844028 -0.55198782 -3.18153026 -0.39769128 0 0 Z " fill="#000000" transform="translate(137,459)"/>
<path d="M0 0 C2.30163882 3.45245824 2.34490322 4.94738713 2 9 C0 11 0 11 -3.4375 11.3125 C-7 11 -7 11 -8.9375 9.875 C-10.50422245 7.11019567 -10.38976435 5.11811483 -10 2 C-7.65569181 -2.27491494 -4.20074737 -1.06928115 0 0 Z " fill="#000000" transform="translate(213,449)"/>
<path d="M0 0 C3.3125 0.8125 3.3125 0.8125 4.3125 1.8125 C4.76931382 7.97948656 4.76931382 7.97948656 3.25 10.75 C0.20157484 12.42171702 -2.29278797 12.18283222 -5.6875 11.8125 C-7.85301116 8.56423326 -8.23906953 7.58155843 -7.6875 3.8125 C-5.30743601 0.19480273 -4.38673794 -0.22305447 0 0 Z " fill="#000000" transform="translate(103.6875,448.1875)"/>
<path d="M0 0 C3.0625 0.5625 3.0625 0.5625 5.5 2.1875 C7.0625 4.5625 7.0625 4.5625 6.9375 7.6875 C6.0625 10.5625 6.0625 10.5625 4.0625 12.5625 C-1.13565668 13.11549539 -1.13565668 13.11549539 -3.75 11.3125 C-5.14955 9.25000526 -5.79014484 8.06753771 -5.9375 5.5625 C-4.52864416 1.9160496 -3.91435463 0.74955727 0 0 Z " fill="#000000" transform="translate(186.9375,426.4375)"/>
<path d="M0 0 C2.77389443 2.02419323 3.85519403 3.15185077 4.4375 6.5625 C4 9 4 9 2.875 10.8125 C0.12844028 12.55198782 -1.81846974 12.39769128 -5 12 C-7.12064392 10.53748695 -7.82274986 9.42267342 -8.8125 7.0625 C-9.05160495 4.43234551 -8.433564 3.18807136 -7 1 C-4.4086487 -0.29567565 -2.87704151 -0.34250494 0 0 Z " fill="#000000" transform="translate(158,416)"/>
<path d="M0 0 C1.875 1.0625 1.875 1.0625 3 3 C3.375 6.5625 3.375 6.5625 3 10 C-0.24826674 12.16551116 -1.23094157 12.55156953 -5 12 C-7.375 10.4375 -7.375 10.4375 -9 8 C-8.875 4.3125 -8.875 4.3125 -8 1 C-5.20129973 -0.39935013 -3.09501208 -0.25265405 0 0 Z " fill="#000000" transform="translate(169,395)"/>
</svg>
