<?xml version="1.0" encoding="UTF-8"?>
<svg version="1.1" xmlns="http://www.w3.org/2000/svg" width="512" height="512">
<path d="M0 0 C6.31520975 3.6778233 10.75899796 8.68079217 14.0390625 15.1875 C14.5340625 18.1575 14.5340625 18.1575 15.0390625 21.1875 C26.2590625 21.1875 37.4790625 21.1875 49.0390625 21.1875 C49.3690625 19.2075 49.6990625 17.2275 50.0390625 15.1875 C54.63357758 6.92653896 60.08239073 1.55835661 68.796875 -1.91015625 C77.49365857 -4.33058638 87.83823315 -3.93075059 96 0 C102.31520975 3.6778233 106.75899796 8.68079217 110.0390625 15.1875 C110.3690625 17.1675 110.6990625 19.1475 111.0390625 21.1875 C122.2590625 21.1875 133.4790625 21.1875 145.0390625 21.1875 C145.3690625 19.2075 145.6990625 17.2275 146.0390625 15.1875 C150.63357758 6.92653896 156.08239073 1.55835661 164.796875 -1.91015625 C173.49365857 -4.33058638 183.83823315 -3.93075059 192 0 C198.31520975 3.6778233 202.75899796 8.68079217 206.0390625 15.1875 C206.3690625 17.1675 206.6990625 19.1475 207.0390625 21.1875 C218.2590625 21.1875 229.4790625 21.1875 241.0390625 21.1875 C241.3690625 19.2075 241.6990625 17.2275 242.0390625 15.1875 C246.63357758 6.92653896 252.08239073 1.55835661 260.796875 -1.91015625 C269.49365857 -4.33058638 279.83823315 -3.93075059 288 0 C294.31520975 3.6778233 298.75899796 8.68079217 302.0390625 15.1875 C302.40327896 17.1821071 302.74011146 19.18207252 303.0390625 21.1875 C304.32538574 21.1560791 304.32538574 21.1560791 305.63769531 21.12402344 C308.82824722 21.05573473 312.01842596 21.00564487 315.20947266 20.96777344 C316.5888293 20.94769358 317.96810119 20.92042334 319.34716797 20.88574219 C321.33263229 20.83707183 323.31872504 20.81663582 325.3046875 20.796875 C326.49868164 20.77592773 327.69267578 20.75498047 328.92285156 20.73339844 C332.0390625 21.1875 332.0390625 21.1875 334.20138931 22.65906906 C336.84884755 26.30167285 336.59752204 29.76162441 336.55804443 34.09649658 C336.56929631 35.46144607 336.56929631 35.46144607 336.5807755 36.85397029 C336.60111031 39.90971289 336.59293856 42.96471759 336.58496094 46.02050781 C336.59369278 48.20826962 336.6041772 50.39602504 336.61628723 52.58377075 C336.64421525 58.52967579 336.64755041 64.47537315 336.64656734 70.42133427 C336.64969059 76.63272346 336.67529653 82.8440183 336.69854736 89.05535889 C336.73453927 99.48286687 336.7566206 109.91032825 336.76806641 120.33789062 C336.77989351 131.07816108 336.80008751 141.81836207 336.83154297 152.55859375 C336.83347907 153.22065587 336.83541517 153.882718 336.83740994 154.56484261 C336.84717447 157.88622431 336.85711257 161.20760546 336.86711454 164.52898645 C336.94958005 192.08179256 337.00363061 219.63459612 337.0390625 247.1875 C337.82442383 246.37071777 338.60978516 245.55393555 339.41894531 244.71240234 C342.37761309 241.64393646 345.35707954 238.5963548 348.34277344 235.55419922 C349.6244471 234.24262198 350.90065404 232.92567674 352.17089844 231.60302734 C369.32518523 213.75986761 369.32518523 213.75986761 381.359375 212.4609375 C392.02755963 212.7457145 399.81252202 213.89374738 407.9140625 221.3125 C415.33281512 229.41404048 416.480848 237.19900287 416.765625 247.8671875 C416.02565722 254.43735097 413.39291665 261.10017166 408.46376038 265.6376152 C404.44847297 268.77705442 400.16006706 271.53090811 395.91699219 274.34933281 C370.98478307 291.35282728 340.98051589 314.72694171 334.953125 345.93585205 C328.13554228 385.36839447 331.69763563 427.74655609 334.78125 467.42518616 C334.89014942 468.88208704 334.99892404 470.33899726 335.10756397 471.79591751 C335.30900756 474.48617465 335.54021892 477.1681137 335.78872967 479.85503769 C335.8804989 481.03385136 335.97226812 482.21266502 336.06681824 483.42720032 C336.15794482 484.44959966 336.24907141 485.471999 336.3429594 486.52538013 C336.0390625 489.1875 336.0390625 489.1875 334.44837552 491.32242221 C331.22317215 493.8190904 329.24352074 493.68873229 325.18615723 493.69086456 C324.49388377 493.69667833 323.80161032 493.70249209 323.08835888 493.70848203 C320.75712344 493.72313769 318.42693175 493.70917187 316.09570312 493.69543457 C314.41217763 493.70004131 312.72865615 493.7063927 311.04514313 493.71434355 C306.409952 493.73109126 301.77508893 493.7227659 297.13989639 493.71039867 C292.14459219 493.70137269 287.1493456 493.7153057 282.15405273 493.72631836 C272.36473551 493.74413444 262.57554073 493.74024986 252.78621864 493.7286678 C244.83248512 493.71964588 236.87878599 493.71840409 228.92504883 493.72276306 C227.79439829 493.72337599 226.66374776 493.72398893 225.49883509 493.72462043 C223.20216814 493.72589929 220.9055012 493.72719614 218.60883427 493.7285108 C197.05692038 493.73992564 175.50507447 493.7267887 153.95317173 493.70530933 C135.44791376 493.68743754 116.94275615 493.6905414 98.4375 493.70898438 C76.96437679 493.73037511 55.49131322 493.73882692 34.01818085 493.72653532 C31.72981263 493.72526108 29.44144441 493.7240036 27.15307617 493.72276306 C25.46405489 493.72183741 25.46405489 493.72183741 23.74091196 493.72089306 C15.79381285 493.71743476 7.84675147 493.72327881 -0.1003418 493.73268127 C-9.7810293 493.74388269 -19.46158702 493.74090039 -29.1422596 493.7195583 C-34.08450593 493.70902283 -39.02653563 493.70496843 -43.96878052 493.71815491 C-48.48894875 493.73003312 -53.0086986 493.72359225 -57.52882862 493.7022447 C-59.16806529 493.69775915 -60.80733697 493.70008841 -62.44655132 493.70974785 C-64.66755412 493.7218364 -66.88710638 493.70951606 -69.10803223 493.69086456 C-70.34375221 493.69021515 -71.5794722 493.68956574 -72.85263824 493.68889666 C-75.9609375 493.1875 -75.9609375 493.1875 -78.35778379 491.63900709 C-80.54846398 488.28906754 -80.51380241 485.33331726 -80.46430206 481.46002197 C-80.47011583 480.67319959 -80.47592959 479.88637721 -80.48191953 479.07571173 C-80.49658913 476.42288884 -80.48260224 473.77098115 -80.46887207 471.11816406 C-80.47347824 469.20365041 -80.47982924 467.28914029 -80.48778105 465.3746376 C-80.50453649 460.1009716 -80.49619982 454.82759375 -80.48383617 449.55392647 C-80.47481337 443.87150203 -80.48874161 438.18912834 -80.49975586 432.50671387 C-80.51757534 421.36984719 -80.51368584 410.23308812 -80.5021053 399.09621716 C-80.49308472 390.04790041 -80.49184101 380.9996139 -80.49620056 371.95129395 C-80.49681349 370.66522318 -80.49742643 369.37915242 -80.49805793 368.05410981 C-80.49933679 365.44177086 -80.50063364 362.82943192 -80.5019483 360.21709299 C-80.51303848 336.40018867 -80.50152269 312.58334965 -80.48057791 288.76645571 C-80.46159484 267.01484523 -80.46329332 245.26332841 -80.48242188 223.51171875 C-80.50383078 199.08528257 -80.51226541 174.65891015 -80.49997282 150.23246384 C-80.49869858 147.62954458 -80.49744109 145.02662532 -80.49620056 142.42370605 C-80.49527491 140.50249951 -80.49527491 140.50249951 -80.49433056 138.54248071 C-80.49087173 129.50133017 -80.49671745 120.46021279 -80.50611877 111.41906738 C-80.51731823 100.40622571 -80.51434201 89.39349813 -80.4929958 78.38066959 C-80.48245772 72.75794251 -80.47841043 67.13540588 -80.49159241 61.51268005 C-80.50346511 56.37078806 -80.4970387 51.22926404 -80.4756822 46.08740568 C-80.47119432 44.22205963 -80.47353099 42.35668284 -80.48318535 40.49135637 C-80.49526119 37.96544816 -80.48296528 35.44081824 -80.46430206 32.91497803 C-80.47366673 32.18221319 -80.48303139 31.44944835 -80.49267983 30.69447851 C-80.44221746 27.30278155 -80.18106665 25.48168347 -78.1242404 22.73291397 C-75.08585911 20.56236407 -72.93230573 20.73186196 -69.2265625 20.796875 C-67.28330078 20.81621094 -67.28330078 20.81621094 -65.30078125 20.8359375 C-63.93748926 20.86935634 -62.57420801 20.90321609 -61.2109375 20.9375 C-59.83205686 20.95757293 -58.45314838 20.97582233 -57.07421875 20.9921875 C-53.70242006 21.03934552 -50.33203063 21.10515462 -46.9609375 21.1875 C-46.82824463 20.25558838 -46.69555176 19.32367676 -46.55883789 18.36352539 C-45.37268611 12.06272976 -40.72663634 6.49482417 -35.86328125 2.4375 C-25.45881875 -4.29833699 -11.25372683 -5.41985506 0 0 Z M-26.9609375 18.1875 C-27.6209375 19.1775 -28.2809375 20.1675 -28.9609375 21.1875 C-20.3809375 21.1875 -11.8009375 21.1875 -2.9609375 21.1875 C-7.21347478 15.61312724 -7.21347478 15.61312724 -13.328125 13.8515625 C-19.06972581 13.76212947 -22.45946557 14.24871206 -26.9609375 18.1875 Z M69.0390625 18.1875 C68.3790625 19.1775 67.7190625 20.1675 67.0390625 21.1875 C75.6190625 21.1875 84.1990625 21.1875 93.0390625 21.1875 C88.78652522 15.61312724 88.78652522 15.61312724 82.671875 13.8515625 C76.93027419 13.76212947 73.54053443 14.24871206 69.0390625 18.1875 Z M165.0390625 18.1875 C164.3790625 19.1775 163.7190625 20.1675 163.0390625 21.1875 C171.6190625 21.1875 180.1990625 21.1875 189.0390625 21.1875 C184.78652522 15.61312724 184.78652522 15.61312724 178.671875 13.8515625 C172.93027419 13.76212947 169.54053443 14.24871206 165.0390625 18.1875 Z M261.0390625 18.1875 C260.3790625 19.1775 259.7190625 20.1675 259.0390625 21.1875 C267.6190625 21.1875 276.1990625 21.1875 285.0390625 21.1875 C280.78652522 15.61312724 280.78652522 15.61312724 274.671875 13.8515625 C268.93027419 13.76212947 265.54053443 14.24871206 261.0390625 18.1875 Z M-63.9609375 37.1875 C-63.9609375 50.3875 -63.9609375 63.5875 -63.9609375 77.1875 C62.7590625 77.1875 189.4790625 77.1875 320.0390625 77.1875 C320.0390625 63.9875 320.0390625 50.7875 320.0390625 37.1875 C314.4290625 37.1875 308.8190625 37.1875 303.0390625 37.1875 C302.4615625 38.54875 301.8840625 39.91 301.2890625 41.3125 C297.16196377 50.43781518 292.22833474 55.53495476 282.9765625 59.5 C279.38465506 60.34065919 275.6995468 60.72993946 272.0390625 61.1875 C272.0390625 55.5775 272.0390625 49.9675 272.0390625 44.1875 C275.5040625 43.6925 275.5040625 43.6925 279.0390625 43.1875 C281.47735158 41.77510554 282.99339377 40.18327437 285.0390625 38.1875 C285.0390625 37.8575 285.0390625 37.5275 285.0390625 37.1875 C259.2990625 37.1875 233.5590625 37.1875 207.0390625 37.1875 C205.7190625 40.1575 204.3990625 43.1275 203.0390625 46.1875 C199.47796622 52.91401519 193.8474607 56.55532934 186.9765625 59.5 C183.38465506 60.34065919 179.6995468 60.72993946 176.0390625 61.1875 C176.0390625 55.5775 176.0390625 49.9675 176.0390625 44.1875 C179.5040625 43.6925 179.5040625 43.6925 183.0390625 43.1875 C185.47735158 41.77510554 186.99339377 40.18327437 189.0390625 38.1875 C189.0390625 37.8575 189.0390625 37.5275 189.0390625 37.1875 C163.2990625 37.1875 137.5590625 37.1875 111.0390625 37.1875 C109.7190625 40.1575 108.3990625 43.1275 107.0390625 46.1875 C103.47796622 52.91401519 97.8474607 56.55532934 90.9765625 59.5 C87.38465506 60.34065919 83.6995468 60.72993946 80.0390625 61.1875 C80.0390625 55.5775 80.0390625 49.9675 80.0390625 44.1875 C83.5040625 43.6925 83.5040625 43.6925 87.0390625 43.1875 C89.47735158 41.77510554 90.99339377 40.18327437 93.0390625 38.1875 C93.0390625 37.8575 93.0390625 37.5275 93.0390625 37.1875 C67.2990625 37.1875 41.5590625 37.1875 15.0390625 37.1875 C13.7190625 40.1575 12.3990625 43.1275 11.0390625 46.1875 C7.47796622 52.91401519 1.8474607 56.55532934 -5.0234375 59.5 C-8.61534494 60.34065919 -12.3004532 60.72993946 -15.9609375 61.1875 C-15.9609375 55.5775 -15.9609375 49.9675 -15.9609375 44.1875 C-12.4959375 43.6925 -12.4959375 43.6925 -8.9609375 43.1875 C-6.52264842 41.77510554 -5.00660623 40.18327437 -2.9609375 38.1875 C-2.9609375 37.8575 -2.9609375 37.5275 -2.9609375 37.1875 C-23.0909375 37.1875 -43.2209375 37.1875 -63.9609375 37.1875 Z M-63.9609375 93.1875 C-63.9609375 219.9075 -63.9609375 346.6275 -63.9609375 477.1875 C62.7590625 477.1875 189.4790625 477.1875 320.0390625 477.1875 C320.0390625 436.5975 320.0390625 396.0075 320.0390625 354.1875 C315.48565692 358.09041907 311.21452168 361.89809711 307.08227539 366.18945312 C305.94195743 367.36272482 304.80149368 368.53585483 303.66090393 369.7088623 C303.06707979 370.32140366 302.47325565 370.93394501 301.86143684 371.56504822 C298.66512815 374.8546406 295.44733663 378.12313796 292.23242188 381.39453125 C288.1637183 385.53503898 284.10194546 389.68146597 280.0690918 393.85693359 C276.7894554 397.25138195 273.48498919 400.61987393 270.16326714 403.97312927 C268.91407236 405.24306504 267.67375402 406.52180559 266.44334602 407.80995178 C257.74612232 416.90186897 250.09836367 421.64020368 238.0390625 425.1875 C236.46739244 425.73976512 234.89875309 426.30091126 233.33618164 426.87841797 C229.97000641 428.04278386 226.60154185 429.19912155 223.22729492 430.33984375 C221.79562042 430.8265506 220.36595001 431.31918816 218.93823242 431.81738281 C203.47004519 437.21191967 203.47004519 437.21191967 196.0390625 436.1875 C194.01838906 434.67181421 193.16598039 433.7828417 192.63568115 431.29533386 C192.693528 424.98178342 194.13785038 419.6225162 196.1796875 413.67578125 C196.50314148 412.7039238 196.82659546 411.73206635 197.15985107 410.73075867 C197.84276125 408.68901315 198.53226607 406.64946265 199.22802734 404.61206055 C200.28768974 401.50402636 201.32303887 398.38865675 202.35546875 395.27148438 C203.02461603 393.28077023 203.69514242 391.290519 204.3671875 389.30078125 C204.82837982 387.91310295 204.82837982 387.91310295 205.29888916 386.49739075 C205.59889832 385.62595932 205.89890747 384.75452789 206.20800781 383.85668945 C206.59439423 382.71826347 206.59439423 382.71826347 206.98858643 381.55683899 C210.47470811 373.69392405 215.46562492 370.36151265 222.40722656 365.32177734 C263.0999853 334.61512351 285.58370979 306.45379452 320.0390625 265.1875 C320.0390625 208.4275 320.0390625 151.6675 320.0390625 93.1875 C193.3190625 93.1875 66.5990625 93.1875 -63.9609375 93.1875 Z M372.0390625 237.1875 C370.70725591 238.50154917 369.37400395 239.81413565 368.0390625 241.125 C367.03645537 242.14327287 366.03542437 243.16311545 365.0390625 244.1875 C366.4655203 247.4461636 368.20610412 249.5899854 370.734375 252.078125 C371.44980469 252.78710938 372.16523438 253.49609375 372.90234375 254.2265625 C373.64871094 254.95617187 374.39507812 255.68578125 375.1640625 256.4375 C375.91816406 257.18257813 376.67226563 257.92765625 377.44921875 258.6953125 C379.30807022 260.5306342 381.17143255 262.3611191 383.0390625 264.1875 C386.79085635 262.43732544 389.23387532 260.26018083 392.1640625 257.3125 C393.03289062 256.44882812 393.90171875 255.58515625 394.796875 254.6953125 C398.69193351 250.33881849 399.49713331 247.1796368 399.35546875 241.4375 C398.71899445 236.91146054 396.23137862 234.23954364 392.9140625 231.3125 C383.79889845 227.74569668 378.38979544 230.40465533 372.0390625 237.1875 Z M348.88764763 260.09281921 C347.98982126 260.99248917 347.0919949 261.89215912 346.16696167 262.8190918 C345.66705943 263.31728518 345.16715719 263.81547857 344.6521064 264.32876873 C342.96753787 266.01002626 341.29024625 267.69836414 339.61279297 269.38671875 C338.41097221 270.58910327 337.20871164 271.79104831 336.00604248 272.99258423 C332.73317591 276.26487494 329.46652964 279.54331324 326.20092535 282.82284927 C322.79051618 286.24572697 319.37447512 289.66297429 315.95901489 293.08081055 C309.4881144 299.55793724 303.02233071 306.04014713 296.55834782 312.5241766 C289.20082605 319.90402195 281.83765166 327.27821627 274.47398543 334.65192986 C259.3226911 349.82415201 244.17854704 365.00349413 229.0390625 380.1875 C230.57193836 383.41064687 232.18056938 385.56485598 234.734375 388.078125 C235.44980469 388.78710938 236.16523438 389.49609375 236.90234375 390.2265625 C237.64871094 390.95617187 238.39507812 391.68578125 239.1640625 392.4375 C239.91816406 393.18257812 240.67226563 393.92765625 241.44921875 394.6953125 C243.30807022 396.5306342 245.17143255 398.3611191 247.0390625 400.1875 C250.81454704 398.61870659 253.20459544 396.26848268 256.07574463 393.3913269 C256.56918861 392.89959177 257.06263259 392.40785664 257.57102942 391.90122044 C259.22173842 390.25380328 260.8652017 388.59934425 262.50878906 386.94482422 C263.69120043 385.76184867 264.87405244 384.57931342 266.05731201 383.39718628 C269.26807822 380.18699432 272.47263696 376.97066948 275.67612934 373.75322104 C279.02512038 370.39173474 282.37976905 367.03590441 285.73382568 363.67947388 C292.08424941 357.32283185 298.4295573 350.96110836 304.77305007 344.59755051 C311.99517924 337.35307328 319.22298244 330.11426845 326.45127153 322.87593818 C341.32019768 307.98610209 356.18197192 293.08914503 371.0390625 278.1875 C369.51734993 274.99490971 367.91989363 272.8114416 365.4140625 270.296875 C364.70765625 269.58789062 364.00125 268.87890625 363.2734375 268.1484375 C362.53609375 267.41882813 361.79875 266.68921875 361.0390625 265.9375 C360.30171875 265.19242187 359.564375 264.44734375 358.8046875 263.6796875 C358.09828125 262.97585938 357.391875 262.27203125 356.6640625 261.546875 C355.69339844 260.57959473 355.69339844 260.57959473 354.703125 259.59277344 C352.07524695 257.37357361 351.43038394 257.84094096 348.88764763 260.09281921 Z M219.0390625 398.1875 C218.20207864 400.64464547 217.36933826 403.10308857 216.5390625 405.5625 C216.30058594 406.26117188 216.06210937 406.95984375 215.81640625 407.6796875 C214.50170338 411.35153079 214.50170338 411.35153079 214.0390625 415.1875 C222.60439954 412.90595678 222.60439954 412.90595678 231.0390625 410.1875 C229.56939892 406.78890297 227.65868736 404.53786291 225.0390625 401.9375 C224.3378125 401.23109375 223.6365625 400.5246875 222.9140625 399.796875 C221.19795482 397.97039601 221.19795482 397.97039601 219.0390625 398.1875 Z " fill="#000000" transform="translate(87.9609375,10.8125)"/>
<path d="M0 0 C1.10794922 -0.01260864 2.21589844 -0.02521729 3.35742188 -0.03820801 C4.54916016 -0.03011108 5.74089844 -0.02201416 6.96875 -0.01367188 C8.19658203 -0.01749878 9.42441406 -0.02132568 10.68945312 -0.02526855 C13.28516459 -0.02799029 15.88090336 -0.02061099 18.4765625 -0.00390625 C22.45374599 0.01749738 26.42912282 -0.0037015 30.40625 -0.02929688 C32.92708733 -0.02665365 35.44792353 -0.02152878 37.96875 -0.01367188 C39.16048828 -0.0217688 40.35222656 -0.02986572 41.58007812 -0.03820801 C43.24200195 -0.01929504 43.24200195 -0.01929504 44.9375 0 C45.91138672 0.00318237 46.88527344 0.00636475 47.88867188 0.00964355 C51.22023106 0.66552063 52.41539079 1.85775473 54.46875 4.51757812 C54.89453125 7.87304688 54.89453125 7.87304688 54.78125 11.70507812 C54.76578125 12.36838135 54.7503125 13.03168457 54.734375 13.71508789 C54.58895609 18.69265612 54.16044638 23.58924144 53.46875 28.51757812 C54.0771875 28.64132813 54.685625 28.76507813 55.3125 28.89257812 C81.58547834 35.07445538 104.25468359 54.42733319 118.59375 76.70507812 C128.05230893 92.62635761 134.64403612 110.27362412 134.56640625 128.98242188 C134.56428383 129.99968102 134.56428383 129.99968102 134.56211853 131.03749084 C134.55657745 133.17673391 134.54403653 135.31586737 134.53125 137.45507812 C134.52622736 138.91666514 134.5216658 140.37825382 134.51757812 141.83984375 C134.50662745 145.39912339 134.48940445 148.95834004 134.46875 152.51757812 C135.06985596 152.63222412 135.67096191 152.74687012 136.2902832 152.86499023 C144.90567062 154.62044396 149.88744569 157.86806421 154.90625 165.20507812 C159.42649145 172.33646723 159.37888939 180.30591694 158.46875 188.51757812 C156.43606644 195.88843066 151.83082969 201.36791715 145.46875 205.51757812 C139.77243232 208.4523823 135.24231091 208.95066573 128.88664246 208.9119873 C127.46717826 208.92112396 127.46717826 208.92112396 126.01903802 208.93044519 C122.85786517 208.94705312 119.69709609 208.94230244 116.53588867 208.9375 C114.26539187 208.94484164 111.9948988 208.95342814 109.72441101 208.96316528 C103.5631605 208.98538099 97.40204373 208.98831188 91.24075866 208.98641777 C86.09422313 208.98629806 80.94771593 208.99486247 75.80118829 209.00319529 C62.96287768 209.02352945 50.12466528 209.02457944 37.28634796 209.01738816 C26.15162888 209.01181504 15.01714004 209.03263091 3.88247474 209.06574863 C-7.56485251 209.09953061 -19.01202558 209.11417431 -30.4594118 209.1100316 C-36.88051554 209.10796515 -43.30139 209.11342767 -49.72245216 209.13792419 C-55.7628242 209.16020705 -61.80271763 209.15830005 -67.84309196 209.13799667 C-70.05616758 209.13458931 -72.2692755 209.1396638 -74.48230743 209.15398026 C-97.40772271 209.29201914 -97.40772271 209.29201914 -105.64132404 201.52779388 C-112.18242644 194.77983823 -114.09748468 187.8907126 -114.01171875 178.58618164 C-113.71376877 170.09362725 -110.80834954 164.36940156 -104.71875 158.58007812 C-100.19420532 154.94673164 -95.45193186 152.51757812 -89.53125 152.51757812 C-89.55743408 151.65817627 -89.58361816 150.79877441 -89.6105957 149.91333008 C-90.51280462 115.69562954 -84.59968407 85.40427122 -60.53125 59.51757812 C-46.89076898 45.30707433 -28.46760774 31.82776583 -8.53125 28.51757812 C-8.69625 27.34195313 -8.86125 26.16632813 -9.03125 24.95507812 C-9.50178402 20.54469953 -9.74037173 16.13795986 -9.84375 11.70507812 C-9.89982422 9.80822266 -9.89982422 9.80822266 -9.95703125 7.87304688 C-9.1827231 1.77093031 -5.84265593 0.01909207 0 0 Z M7.46875 16.51757812 C8.11594586 23.75952072 8.76970596 31.00025255 9.44018555 38.23999023 C9.66605032 40.70025094 9.88810808 43.16086436 10.10620117 45.62182617 C10.42133362 49.17011709 10.75037966 52.71689143 11.08203125 56.26367188 C11.17591629 57.35465683 11.26980133 58.44564178 11.36653137 59.56968689 C11.95474059 65.69693787 12.58937552 71.9752226 15.46875 77.51757812 C18.61331551 79.61395513 20.62969676 79.88314258 24.3359375 80.17382812 C27.77516971 79.11560283 29.62136958 76.46703803 31.46875 73.51757812 C32.14124132 70.79761526 32.54127079 68.54263039 32.76171875 65.79492188 C32.83814102 65.06014114 32.91456329 64.32536041 32.99330139 63.5683136 C33.23481525 61.19875049 33.44587894 58.82758959 33.65625 56.45507812 C33.81611922 54.8289122 33.97791006 53.20293406 34.14160156 51.57714844 C34.53646029 47.60933253 34.9075902 43.63976153 35.27020264 39.66888428 C35.6386985 35.67614715 36.03990258 31.68662574 36.43579102 27.6965332 C36.79563949 23.97168238 37.12994781 20.24440219 37.46875 16.51757812 C27.56875 16.51757812 17.66875 16.51757812 7.46875 16.51757812 Z M-7.53125 45.51757812 C-10.83125 46.83757812 -14.13125 48.15757812 -17.53125 49.51757812 C-17.53489563 50.27655396 -17.53854126 51.03552979 -17.54229736 51.81750488 C-17.58028363 58.9967743 -17.63725546 66.17553087 -17.71515274 73.3544693 C-17.75453476 77.04459825 -17.78676814 80.73449191 -17.80224609 84.42480469 C-17.81747464 87.99127395 -17.85202753 91.55709593 -17.89955902 95.12327576 C-17.9214509 97.13485851 -17.9237184 99.1466242 -17.92559814 101.1583252 C-18.05587836 109.35546586 -18.76592797 115.15418481 -24.27734375 121.54101562 C-24.83550781 121.98703125 -25.39367187 122.43304688 -25.96875 122.89257812 C-26.80212891 123.58480469 -26.80212891 123.58480469 -27.65234375 124.29101562 C-34.13362506 128.52203918 -41.03886669 128.1879046 -48.53125 127.51757812 C-54.73719371 125.8854638 -59.06743117 121.82361907 -62.53125 116.51757812 C-64.26377036 112.88409794 -64.86691701 109.70751779 -65.15625 105.70507812 C-65.23101562 104.72925781 -65.30578125 103.7534375 -65.3828125 102.74804688 C-65.43179688 102.01199219 -65.48078125 101.2759375 -65.53125 100.51757812 C-67.72834177 103.81321578 -68.53516882 106.5849059 -69.59375 110.39257812 C-69.93535156 111.606875 -70.27695313 112.82117188 -70.62890625 114.07226562 C-73.94394597 126.72968999 -73.53125 139.44498691 -73.53125 152.51757812 C-52.41125 152.51757812 -31.29125 152.51757812 -9.53125 152.51757812 C-9.20125 143.27757812 -8.87125 134.03757812 -8.53125 124.51757812 C-5.10661673 121.09294486 -4.6721934 121.14054574 -0.09765625 121.12939453 C1.01359619 121.11993805 2.12484863 121.11048157 3.26977539 121.10073853 C4.46981201 121.10681122 5.66984863 121.11288391 6.90625 121.11914062 C8.13786865 121.11627045 9.3694873 121.11340027 10.63842773 121.11044312 C13.91222957 121.10787655 17.18560537 121.11996203 20.45935059 121.13671875 C22.46685385 121.1425726 24.47396369 121.13674017 26.48144531 121.12646484 C30.33156695 121.10796832 34.18110434 121.1101682 38.03125 121.11914062 C39.23128662 121.11306793 40.43132324 121.10699524 41.66772461 121.10073853 C43.33460327 121.11492325 43.33460327 121.11492325 45.03515625 121.12939453 C46.50384155 121.1329747 46.50384155 121.1329747 48.00219727 121.1366272 C50.46875 121.51757812 50.46875 121.51757812 53.46875 124.51757812 C53.79875 133.75757813 54.12875 142.99757813 54.46875 152.51757812 C75.58875 152.51757812 96.70875 152.51757812 118.46875 152.51757812 C118.58270626 139.74741947 118.58270626 139.74741947 117.78125 127.08007812 C117.7002002 126.30365967 117.61915039 125.52724121 117.53564453 124.72729492 C116.53209024 116.36462457 114.13997987 108.48029007 111.46875 100.51757812 C111.13875 100.51757812 110.80875 100.51757812 110.46875 100.51757812 C110.44296875 101.21882813 110.4171875 101.92007813 110.390625 102.64257812 C109.88753774 111.05785593 108.41596916 117.11990176 102.03125 122.89257812 C95.31519572 128.47111045 87.84170666 128.2666875 79.46875 127.51757812 C73.26280629 125.8854638 68.93256883 121.82361907 65.46875 116.51757812 C63.63188206 112.64780605 63.20206253 109.52698694 63.14990234 105.25854492 C63.12009781 103.39718147 63.12009781 103.39718147 63.08969116 101.49821472 C63.07781671 100.15441058 63.06615374 98.81060456 63.0546875 97.46679688 C63.03596502 96.08387612 63.0163908 94.70096665 62.9960022 93.31806946 C62.94478882 89.68991774 62.90510569 86.06172904 62.86785889 82.43341064 C62.82775125 78.72634817 62.77668985 75.01943813 62.7265625 71.3125 C62.62993107 64.04762296 62.54649901 56.78268628 62.46875 49.51757812 C57.02375 47.53757812 57.02375 47.53757812 51.46875 45.51757812 C51.200625 47.39445312 50.9325 49.27132812 50.65625 51.20507812 C50.46933594 52.4709375 50.28242188 53.73679687 50.08984375 55.04101562 C49.62210436 58.29080686 49.23702225 61.54302188 48.87890625 64.80664062 C46.67885196 83.86194955 46.67885196 83.86194955 40.46875 89.51757812 C32.59148424 95.60455621 25.31435121 96.42316283 15.46875 95.51757812 C8.85448205 93.63282001 4.55903273 90.24713536 0.625 84.67773438 C-1.86490802 80.02598054 -2.81514717 75.37961829 -3.3125 70.16601562 C-3.43238281 68.98523438 -3.55226563 67.80445313 -3.67578125 66.58789062 C-3.91350506 64.11660798 -4.15047959 61.64525314 -4.38671875 59.17382812 C-4.50660156 57.995625 -4.62648438 56.81742188 -4.75 55.60351562 C-4.9037207 53.99549072 -4.9037207 53.99549072 -5.06054688 52.35498047 C-5.43885388 49.21102703 -5.43885388 49.21102703 -7.53125 45.51757812 Z M-39.28125 63.70507812 C-40.14234375 64.48238281 -41.0034375 65.2596875 -41.890625 66.06054688 C-42.76203125 66.87136719 -43.6334375 67.6821875 -44.53125 68.51757812 C-45.3984668 69.2476709 -46.26568359 69.97776367 -47.15917969 70.72998047 C-50.14756957 74.24186145 -50.15119105 76.01625049 -50.125 80.57617188 C-50.12504028 81.24294449 -50.12508057 81.9097171 -50.12512207 82.59669495 C-50.11978216 84.00116443 -50.10226416 85.4056347 -50.07324219 86.80981445 C-50.03143229 88.94576562 -50.03217362 91.07855267 -50.0390625 93.21484375 C-50.00161185 102.25488011 -50.00161185 102.25488011 -46.53125 110.51757812 C-43.69041359 111.93799633 -41.67647722 111.83210085 -38.53125 111.51757812 C-35.68344381 109.28551382 -34.68127334 107.96764814 -33.53125 104.51757812 C-33.44474416 103.02913097 -33.41354827 101.53709555 -33.41772461 100.04614258 C-33.41780014 99.14543533 -33.41787567 98.24472809 -33.41795349 97.31672668 C-33.42311478 96.34789047 -33.42827606 95.37905426 -33.43359375 94.38085938 C-33.4350087 93.3862822 -33.43642365 92.39170502 -33.43788147 91.36698914 C-33.44348239 88.1879883 -33.45603504 85.0090577 -33.46875 81.83007812 C-33.47376488 79.67578227 -33.47832781 77.52148531 -33.48242188 75.3671875 C-33.49345212 70.08396038 -33.51019114 64.80077427 -33.53125 59.51757812 C-35.66760359 59.51757812 -37.83257597 62.39141365 -39.28125 63.70507812 Z M78.46875 59.51757812 C78.39251782 65.81632715 78.3400738 72.11495663 78.30395508 78.4140625 C78.28889359 80.55570929 78.26844028 82.69732537 78.24243164 84.83886719 C78.20593272 87.92195224 78.18899698 91.0046285 78.17578125 94.08789062 C78.16029739 95.04124298 78.14481354 95.99459534 78.12886047 96.97683716 C78.12753663 102.23777258 78.45343068 105.99345368 81.46875 110.51757812 C84.30958641 111.93799633 86.32352278 111.83210085 89.46875 111.51757812 C92.31655619 109.28551382 93.31872666 107.96764814 94.46875 104.51757812 C96.82634109 86.00045851 96.82634109 86.00045851 91.93359375 68.86914062 C88.08959699 64.64344489 83.55987142 62.02402914 78.46875 59.51757812 Z M6.46875 136.51757812 C6.46875 141.79757812 6.46875 147.07757813 6.46875 152.51757812 C17.02875 152.51757812 27.58875 152.51757812 38.46875 152.51757812 C38.46875 147.23757813 38.46875 141.95757812 38.46875 136.51757812 C27.90875 136.51757812 17.34875 136.51757812 6.46875 136.51757812 Z M-94.96875 173.70507812 C-97.00324168 177.36716314 -97.44082084 180.47591989 -96.53125 184.51757812 C-93.47009391 189.37941427 -91.01417364 191.13305942 -85.53125 192.51757812 C-82.57022048 192.78994889 -79.6286221 192.79200249 -76.65663147 192.77827454 C-75.33327912 192.78401286 -75.33327912 192.78401286 -73.98319238 192.7898671 C-71.03308617 192.80016884 -68.0831756 192.79621032 -65.13305664 192.79223633 C-63.01547567 192.79658434 -60.89789627 192.80176779 -58.78031921 192.807724 C-53.0324362 192.82111507 -47.28461894 192.82169257 -41.53672338 192.8191607 C-36.73790788 192.81809114 -31.9391057 192.82297394 -27.14029306 192.82776612 C-15.81951142 192.83886152 -4.49876296 192.83929841 6.82202148 192.83325195 C18.50089987 192.82721017 30.17965784 192.83952835 41.85851568 192.86082202 C51.88669635 192.87843377 61.91483867 192.88444008 71.94303423 192.88118428 C77.93196007 192.87937072 83.9208 192.88201498 89.90971184 192.89589882 C95.54121972 192.90846565 101.17253975 192.90654378 106.80404472 192.89348793 C108.87002119 192.89112018 110.93601083 192.89386392 113.0019722 192.90211105 C115.82391569 192.91256317 118.64522703 192.90449004 121.46714783 192.89179993 C122.69109116 192.90286135 122.69109116 192.90286135 123.93976063 192.91414624 C130.26334598 192.85439255 135.06355389 191.67608746 139.90625 187.33007812 C141.94074168 183.66799311 142.37832084 180.55923636 141.46875 176.51757812 C138.40759391 171.65574198 135.95167364 169.90209683 130.46875 168.51757812 C127.50772048 168.24520736 124.5661221 168.24315376 121.59413147 168.25688171 C120.71189657 168.25305617 119.82966167 168.24923062 118.92069238 168.24528915 C115.97058617 168.23498741 113.0206756 168.23894593 110.07055664 168.24291992 C107.95297567 168.23857191 105.83539627 168.23338846 103.71781921 168.22743225 C97.9699362 168.21404118 92.22211894 168.21346368 86.47422338 168.21599555 C81.67540788 168.21706511 76.8766057 168.21218231 72.07779306 168.20739013 C60.75701142 168.19629473 49.43626296 168.19585784 38.11547852 168.2019043 C26.43660013 168.20794608 14.75784216 168.1956279 3.07898432 168.17433423 C-6.94919635 168.15672248 -16.97733867 168.15071617 -27.00553423 168.15397197 C-32.99446007 168.15578553 -38.9833 168.15314127 -44.97221184 168.13925743 C-50.60371972 168.1266906 -56.23503975 168.12861247 -61.86654472 168.14166832 C-63.93252119 168.14403607 -65.99851083 168.14129233 -68.0644722 168.1330452 C-70.88641569 168.12259308 -73.70772703 168.13066621 -76.52964783 168.14335632 C-77.75359116 168.1322949 -77.75359116 168.1322949 -79.00226063 168.12101001 C-85.32584598 168.1807637 -90.12605389 169.35906879 -94.96875 173.70507812 Z " fill="#000000" transform="translate(193.53125,119.482421875)"/>
<path d="M0 0 C52.8 0 105.6 0 160 0 C160 5.28 160 10.56 160 16 C107.2 16 54.4 16 0 16 C0 10.72 0 5.44 0 0 Z " fill="#000000" transform="translate(104,440)"/>
<path d="M0 0 C52.8 0 105.6 0 160 0 C160 5.28 160 10.56 160 16 C107.2 16 54.4 16 0 16 C0 10.72 0 5.44 0 0 Z " fill="#000000" transform="translate(104,376)"/>
<path d="M0 0 C3.63303084 1.69586126 5.94549046 3.73800488 8.75 6.625 C9.54921875 7.44226563 10.3484375 8.25953125 11.171875 9.1015625 C11.77515625 9.72804688 12.3784375 10.35453125 13 11 C11.69093232 13.88959254 10.29334405 15.95569234 8.05078125 18.19213867 C7.45676514 18.78923141 6.86274902 19.38632416 6.25073242 20.00151062 C5.61111572 20.6339418 4.97149902 21.26637299 4.3125 21.91796875 C3.65419189 22.57581863 2.99588379 23.23366852 2.31762695 23.91145325 C0.92798406 25.29807992 -0.46408362 26.68228022 -1.85839844 28.06420898 C-3.99733337 30.18485617 -6.12812668 32.31342786 -8.2578125 34.44335938 C-9.60890339 35.789536 -10.96045036 37.13525506 -12.3125 38.48046875 C-12.9521167 39.11897263 -13.5917334 39.7574765 -14.25073242 40.41532898 C-14.84474854 41.00296524 -15.43876465 41.5906015 -16.05078125 42.19604492 C-16.57325439 42.71470627 -17.09572754 43.23336761 -17.6340332 43.76774597 C-20.37999676 46.24491061 -23.1489157 46.52654828 -26.796875 46.4609375 C-31.22774028 45.53391249 -33.94020425 42.1426422 -37 39 C-37.89976563 38.11183594 -38.79953125 37.22367187 -39.7265625 36.30859375 C-42.16944561 33.8897954 -44.59147727 31.4529422 -47 29 C-45.46356148 25.31930113 -43.21849055 23.01224796 -40.375 20.25 C-39.55773438 19.45078125 -38.74046875 18.6515625 -37.8984375 17.828125 C-37.27195312 17.22484375 -36.64546875 16.6215625 -36 16 C-31.70621187 17.92287034 -29.22846299 20.62478869 -26 24 C-22.13671373 22.4152642 -19.71123077 19.94043113 -16.796875 16.9921875 C-16.3142218 16.50670441 -15.8315686 16.02122131 -15.33428955 15.52102661 C-13.80141438 13.97700134 -12.27565996 12.42615176 -10.75 10.875 C-9.70879639 9.82375991 -8.66713459 8.77297343 -7.625 7.72265625 C-5.07800536 5.15366996 -2.53734823 2.57851839 0 0 Z " fill="#000000" transform="translate(89,410)"/>
<path d="M0 0 C3.63303084 1.69586126 5.94549046 3.73800488 8.75 6.625 C9.54921875 7.44226563 10.3484375 8.25953125 11.171875 9.1015625 C11.77515625 9.72804688 12.3784375 10.35453125 13 11 C11.69093232 13.88959254 10.29334405 15.95569234 8.05078125 18.19213867 C7.45676514 18.78923141 6.86274902 19.38632416 6.25073242 20.00151062 C5.61111572 20.6339418 4.97149902 21.26637299 4.3125 21.91796875 C3.65419189 22.57581863 2.99588379 23.23366852 2.31762695 23.91145325 C0.92798406 25.29807992 -0.46408362 26.68228022 -1.85839844 28.06420898 C-3.99733337 30.18485617 -6.12812668 32.31342786 -8.2578125 34.44335938 C-9.60890339 35.789536 -10.96045036 37.13525506 -12.3125 38.48046875 C-12.9521167 39.11897263 -13.5917334 39.7574765 -14.25073242 40.41532898 C-14.84474854 41.00296524 -15.43876465 41.5906015 -16.05078125 42.19604492 C-16.57325439 42.71470627 -17.09572754 43.23336761 -17.6340332 43.76774597 C-20.37999676 46.24491061 -23.1489157 46.52654828 -26.796875 46.4609375 C-31.22774028 45.53391249 -33.94020425 42.1426422 -37 39 C-37.89976563 38.11183594 -38.79953125 37.22367187 -39.7265625 36.30859375 C-42.16944561 33.8897954 -44.59147727 31.4529422 -47 29 C-45.46356148 25.31930113 -43.21849055 23.01224796 -40.375 20.25 C-39.55773438 19.45078125 -38.74046875 18.6515625 -37.8984375 17.828125 C-37.27195312 17.22484375 -36.64546875 16.6215625 -36 16 C-31.70621187 17.92287034 -29.22846299 20.62478869 -26 24 C-22.13671373 22.4152642 -19.71123077 19.94043113 -16.796875 16.9921875 C-16.3142218 16.50670441 -15.8315686 16.02122131 -15.33428955 15.52102661 C-13.80141438 13.97700134 -12.27565996 12.42615176 -10.75 10.875 C-9.70879639 9.82375991 -8.66713459 8.77297343 -7.625 7.72265625 C-5.07800536 5.15366996 -2.53734823 2.57851839 0 0 Z " fill="#000000" transform="translate(89,346)"/>
</svg>
