<?xml version="1.0" encoding="UTF-8"?>
<svg version="1.1" xmlns="http://www.w3.org/2000/svg" width="512" height="512">
<path d="M0 0 C2.04374995 0.00851056 4.08469921 -0.02029159 6.12817383 -0.05200195 C18.61651192 -0.04582878 18.61651192 -0.04582878 24.11450195 4.44604492 C25.6730957 6.37573242 25.6730957 6.37573242 26.55200195 8.32104492 C26.86008789 8.9578418 27.16817383 9.59463867 27.4855957 10.25073242 C28.28331535 13.03531901 28.21709927 15.56511227 28.11450195 18.44604492 C28.8415332 18.53241211 29.56856445 18.6187793 30.31762695 18.70776367 C48.16314586 21.20156054 64.07879228 30.45113607 75.52856445 44.38354492 C82.24482488 53.54820798 87.55125609 63.72492071 88.92700195 75.13354492 C89.19801098 77.47986813 89.19801098 77.47986813 90.11450195 79.44604492 C92.31659851 80.91992341 94.41404628 81.73294822 96.91918945 82.58276367 C100.68208731 84.06247973 102.37017966 86.95740033 104.11450195 90.44604492 C104.360638 95.02458904 104.29971433 99.61163994 104.30200195 104.19604492 C104.31424805 105.4722168 104.32649414 106.74838867 104.33911133 108.06323242 C104.34104492 109.2981543 104.34297852 110.53307617 104.3449707 111.80541992 C104.34907959 112.93431641 104.35318848 114.06321289 104.35742188 115.22631836 C104.10386191 118.587071 103.19667802 121.27267147 102.11450195 124.44604492 C103.01473599 126.5557934 103.01473599 126.5557934 104.73950195 128.25854492 C111.91568188 136.83054932 114.08578869 146.42887824 113.11450195 157.44604492 C111.37850453 166.25152582 108.30784091 172.94962767 102.11450195 179.44604492 C101.59114258 180.00936523 101.0677832 180.57268555 100.52856445 181.15307617 C95.58376298 185.91697028 89.4684794 188.08808285 83.11450195 190.44604492 C83.0887207 191.30584961 83.06293945 192.1656543 83.03637695 193.05151367 C82.35859517 207.17710224 79.17380482 218.45788641 69.73950195 229.13354492 C60.24597377 237.49689118 53.15174112 241.14232101 40.11450195 242.44604492 C40.11450195 250.03604492 40.11450195 257.62604492 40.11450195 265.44604492 C41.76450195 265.77604492 43.41450195 266.10604492 45.11450195 266.44604492 C47.03158775 267.20704579 48.92797012 268.02195048 50.80200195 268.88354492 C51.75461914 269.31538086 52.70723633 269.7472168 53.6887207 270.19213867 C56.11450195 271.44604492 56.11450195 271.44604492 58.11450195 273.44604492 C58.43364337 277.40339845 58.56666046 280.2402889 57.17700195 283.94604492 C54.46311652 285.91977978 52.11223748 286.04404066 48.80981445 285.91870117 C43.59399959 285.00404378 38.87356677 282.7007626 34.11450195 280.44604492 C33.84661865 281.1742041 33.57873535 281.90236328 33.30273438 282.65258789 C32.1301371 285.40928771 30.78172441 287.66608348 29.1027832 290.14135742 C28.50916992 291.02307617 27.91555664 291.90479492 27.30395508 292.81323242 C26.68456055 293.72331055 26.06516602 294.63338867 25.42700195 295.57104492 C23.59113991 298.28441353 21.76116875 300.99840125 19.96875 303.74072266 C18.11450195 306.44604492 18.11450195 306.44604492 16.12939453 308.76269531 C8.75245023 318.06929839 10.11916923 329.34322237 10.17700195 340.63354492 C10.15637695 347.83166992 10.13575195 355.02979492 10.11450195 362.44604492 C31.89450195 362.44604492 53.67450195 362.44604492 76.11450195 362.44604492 C76.11450195 355.84604492 76.11450195 349.24604492 76.11450195 342.44604492 C78.18151859 328.52088019 82.51718017 317.24669594 90.11450195 305.44604492 C85.46597813 302.42944967 80.87145653 299.7373978 75.77856445 297.53588867 C73.62491829 296.1254021 73.00141674 294.83980983 72.11450195 292.44604492 C72.26038748 288.94479222 72.75607832 286.96989484 74.73950195 284.07104492 C78.0452968 281.80918529 80.15061481 282.14680629 84.11450195 282.44604492 C97.68513164 287.30273748 108.78440294 296.36599338 115.11450195 309.44604492 C118.13578564 317.23257316 120.124105 325.3493623 122.11450195 333.44604492 C122.68370361 333.2141748 123.25290527 332.98230469 123.83935547 332.7434082 C126.45040803 331.68222892 129.0636724 330.62660361 131.67700195 329.57104492 C132.57225586 329.20624023 133.46750977 328.84143555 134.38989258 328.46557617 C139.25197881 326.50649381 144.04093549 324.76837363 149.11450195 323.44604492 C149.11450195 319.48604492 149.11450195 315.52604492 149.11450195 311.44604492 C147.16543945 311.10573242 147.16543945 311.10573242 145.17700195 310.75854492 C135.81495813 308.61613364 128.31356697 303.61759464 123.11450195 295.44604492 C119.73009834 287.97426309 118.54660596 281.46158668 118.72387695 273.30932617 C118.72953674 272.30387253 118.73519653 271.29841888 118.74102783 270.26249695 C118.76317491 267.09400017 118.81332884 263.92669195 118.86450195 260.75854492 C118.88459501 258.59254579 118.90284082 256.42652868 118.91918945 254.26049805 C118.96296792 248.98861749 119.02965749 243.71741615 119.11450195 238.44604492 C118.0265332 238.48084961 116.93856445 238.5156543 115.81762695 238.55151367 C111.29204329 238.42262047 109.54747948 237.33286694 106.11450195 234.44604492 C103.51812483 230.82512645 102.7319043 228.31870337 102.71606445 223.88354492 C102.71219727 222.8394043 102.70833008 221.79526367 102.7043457 220.71948242 C102.72174805 219.09913086 102.72174805 219.09913086 102.73950195 217.44604492 C102.72790039 216.36581055 102.71629883 215.28557617 102.7043457 214.17260742 C102.70821289 213.1284668 102.71208008 212.08432617 102.71606445 211.00854492 C102.71944824 210.06108398 102.72283203 209.11362305 102.72631836 208.13745117 C103.36520947 203.70780615 105.38139156 201.12417203 108.61450195 198.13354492 C111.11450195 196.44604492 111.11450195 196.44604492 114.11450195 196.44604492 C114.13512695 195.24979492 114.15575195 194.05354492 114.17700195 192.82104492 C115.4701175 181.57271102 122.74690784 170.75028366 131.11450195 163.44604492 C138.75618177 157.83703276 147.34701647 152.44604492 157.11450195 152.44604492 C157.19700195 151.55916992 157.27950195 150.67229492 157.36450195 149.75854492 C158.2258528 145.95424537 159.41418647 144.22351228 162.11450195 141.44604492 C166.91700175 138.4675746 172.07581993 139.1165908 177.55200195 139.13354492 C179.10757813 139.109375 179.10757813 139.109375 180.69458008 139.0847168 C190.1414598 139.07864944 190.1414598 139.07864944 194.11450195 142.44604492 C198.07769594 146.51635226 198.07769594 146.51635226 198.2199707 150.11010742 C198.18516602 150.8809668 198.15036133 151.65182617 198.11450195 152.44604492 C198.6971582 152.52081055 199.27981445 152.59557617 199.88012695 152.67260742 C214.20594335 154.97014401 225.380086 162.80526562 233.98950195 174.32104492 C238.39669061 180.99419379 241.2521919 188.4696769 242.11450195 196.44604492 C242.67137695 196.50791992 243.22825195 196.56979492 243.80200195 196.63354492 C247.21836466 197.83388858 248.82086803 199.66954071 251.11450195 202.44604492 C252.90812791 207.48056744 253.42544036 212.14440337 253.36450195 217.44604492 C253.37223633 218.11893555 253.3799707 218.79182617 253.38793945 219.48510742 C253.36503053 225.41851725 252.54232945 230.45573992 249.05200195 235.32104492 C246.02265623 237.51248651 244.99914613 237.77531501 241.4309082 238.07885742 C240.62210205 238.15249512 239.8132959 238.22613281 238.97998047 238.30200195 C238.36437256 238.34953613 237.74876465 238.39707031 237.11450195 238.44604492 C237.12497559 239.67121826 237.13544922 240.8963916 237.14624023 242.15869141 C237.18265172 246.73776283 237.20547893 251.31682164 237.22436523 255.89599609 C237.23437485 257.87160398 237.24798664 259.84719724 237.26538086 261.82275391 C237.28985204 264.67508575 237.30103571 267.52722039 237.30981445 270.37963867 C237.32013702 271.25188583 237.33045959 272.124133 237.34109497 273.02281189 C237.3431225 284.29973122 234.67319959 293.7556126 226.92700195 302.19604492 C221.4953168 307.29566198 214.59683797 310.85533418 207.11450195 311.44604492 C207.11450195 315.40604492 207.11450195 319.36604492 207.11450195 323.44604492 C208.41282959 323.86571533 209.71115723 324.28538574 211.04882812 324.71777344 C215.84195068 326.31719668 220.50289375 328.15453816 225.1652832 330.09838867 C225.98651169 330.43979385 226.80774017 330.78119904 227.65385437 331.13294983 C229.37303419 331.84964561 231.09143667 332.56820868 232.80908203 333.28857422 C235.4337437 334.38636472 238.06400277 335.46994222 240.69458008 336.5534668 C242.37267755 337.25507293 244.05042471 337.95751765 245.7277832 338.66088867 C246.90127068 339.14077492 246.90127068 339.14077492 248.09846497 339.63035583 C248.82990219 339.94070267 249.56133942 340.2510495 250.31494141 340.57080078 C250.95397903 340.837108 251.59301666 341.10341522 252.25141907 341.37779236 C254.70324341 342.7836169 256.28564936 344.28296799 258.11450195 346.44604492 C258.61786652 348.92608643 258.61786652 348.92608643 258.62243652 351.75952148 C258.63371582 352.83625122 258.64499512 353.91298096 258.65661621 355.02233887 C258.64447083 356.78668274 258.64447083 356.78668274 258.63208008 358.58666992 C258.64259399 360.45059387 258.64259399 360.45059387 258.65332031 362.35217285 C258.66791068 365.75739678 258.66448943 369.16164874 258.65180397 372.56681824 C258.64167311 376.1310659 258.65106987 379.69527218 258.65734863 383.25952148 C258.66462483 389.24494886 258.65503823 395.23017878 258.63598633 401.21557617 C258.61421742 408.1344345 258.62126882 415.05282134 258.64329195 421.97166824 C258.6614469 427.91320454 258.66400388 433.85459895 258.65353727 439.79615402 C258.64730278 443.34428383 258.64646524 446.89219206 258.65968323 450.44030762 C258.67338874 454.39553133 258.6543903 458.35022741 258.63208008 462.30541992 C258.640177 463.48164917 258.64827393 464.65787842 258.65661621 465.86975098 C258.64533691 466.94648071 258.63405762 468.02321045 258.62243652 469.13256836 C258.62017437 470.53511871 258.62017437 470.53511871 258.61786652 471.96600342 C257.95540192 475.22991948 256.71629484 476.42462371 254.11450195 478.44604492 C250.28891478 478.99255738 248.12964251 479.15939914 244.92016602 476.90405273 C242.45490325 473.54814879 242.6091744 470.61805869 242.72387695 466.61791992 C242.72991943 465.62139404 242.72991943 465.62139404 242.73608398 464.60473633 C242.75693371 462.13488957 242.81277972 459.66543807 242.86450195 457.19604492 C242.94700195 451.66854492 243.02950195 446.14104492 243.11450195 440.44604492 C224.30450195 440.44604492 205.49450195 440.44604492 186.11450195 440.44604492 C186.23296202 450.75231492 186.23296202 450.75231492 186.38476562 461.05810547 C186.39600464 462.98843628 186.39600464 462.98843628 186.4074707 464.95776367 C186.42318115 466.27220459 186.4388916 467.58664551 186.45507812 468.94091797 C186.09458973 472.65097669 185.36454911 474.51288058 183.11450195 477.44604492 C180.26125758 478.87266711 178.27995646 478.7563836 175.11450195 478.44604492 C172.44580078 476.91577148 172.44580078 476.91577148 170.11450195 474.44604492 C169.66670503 471.62559838 169.52609652 469.42327252 169.6262207 466.61791992 C169.63329544 465.86891418 169.64037018 465.11990845 169.6476593 464.34820557 C169.67558057 461.96312255 169.7383066 459.58041436 169.80200195 457.19604492 C169.82708813 455.57628724 169.84990075 453.95649264 169.87036133 452.33666992 C169.92114495 448.37148447 170.01897652 444.41141196 170.11450195 440.44604492 C163.18450195 440.77604492 156.25450195 441.10604492 149.11450195 441.44604492 C149.54762695 443.07413086 149.98075195 444.7022168 150.42700195 446.37963867 C150.99007226 448.54745937 151.55254041 450.71543654 152.11450195 452.88354492 C152.40067383 453.95282227 152.6868457 455.02209961 152.98168945 456.1237793 C154.59534979 462.40552845 155.65096941 467.95609719 155.11450195 474.44604492 C152.54689305 477.54227919 151.00080801 478.30134189 147.05200195 478.94604492 C143.33020794 478.31254807 142.47140103 477.36464941 140.11450195 474.44604492 C139.19266824 471.98389413 138.48839075 469.70126604 137.85986328 467.1652832 C137.65668645 466.39182116 137.45350962 465.61835911 137.24417591 464.82145882 C136.51820881 462.03355117 135.81592728 459.24022571 135.11450195 456.44604492 C134.53102612 454.15511213 133.94730122 451.86424277 133.3633728 449.57342529 C131.46889061 442.10694168 129.60327063 434.633404 127.74194312 427.15859747 C126.80411637 423.39461817 125.86354745 419.63132414 124.92329407 415.86795044 C123.15076393 408.77166284 121.38062942 401.67478005 119.61139852 394.57766926 C117.59386721 386.48503454 115.57359961 378.3930837 113.55312479 370.30118346 C109.40391537 353.68355227 105.25806856 337.06508402 101.11450195 320.44604492 C94.45483547 332.10704196 92.65510371 343.48304661 92.76147461 356.77612305 C92.75815906 358.71283701 92.75483892 360.64955096 92.75134444 362.58626461 C92.7503839 364.6386207 92.75664626 366.69084097 92.76494217 368.74317932 C92.78146842 373.03871373 92.77276368 377.33398226 92.76010132 381.6295166 C92.73015128 393.06010776 92.73149941 404.49064604 92.75035417 415.92125654 C92.76268749 423.45762899 92.76084225 430.99369552 92.73196638 438.53003263 C92.71675723 442.79820025 92.72417258 447.06553427 92.74867654 451.33364964 C92.76111263 454.60620534 92.741175 457.87859469 92.72631836 461.15112305 C92.73965714 462.32831909 92.75299591 463.50551514 92.76673889 464.71838379 C92.68634371 472.66046683 92.68634371 472.66046683 89.76376343 476.67541504 C87.11450195 478.44604492 87.11450195 478.44604492 84.11450195 479.07104492 C79.91146778 478.1954128 78.68312906 476.89684302 76.11450195 473.44604492 C75.42281622 469.77828201 75.5320584 466.17873166 75.6262207 462.45776367 C75.6312561 461.51920532 75.6362915 460.58064697 75.64147949 459.61364746 C75.66756752 456.11996759 75.73737487 452.62672442 75.80200195 449.13354492 C75.90512695 441.31666992 76.00825195 433.49979492 76.11450195 425.44604492 C54.33450195 425.44604492 32.55450195 425.44604492 10.11450195 425.44604492 C10.31217616 441.0181367 10.31217616 441.0181367 10.56494141 456.58935547 C10.57954817 458.54547767 10.59228839 460.50161509 10.6027832 462.45776367 C10.62836304 463.46859009 10.65394287 464.4794165 10.68029785 465.52087402 C10.68473953 472.67996458 10.68473953 472.67996458 7.77148438 476.59375 C5.11450195 478.44604492 5.11450195 478.44604492 2.11450195 479.07104492 C-2.08853222 478.1954128 -3.31687094 476.89684302 -5.88549805 473.44604492 C-6.57718378 469.77828201 -6.4679416 466.17873166 -6.3737793 462.45776367 C-6.3687439 461.51920532 -6.3637085 460.58064697 -6.35852051 459.61364746 C-6.33243248 456.11996759 -6.26262513 452.62672442 -6.19799805 449.13354492 C-6.09487305 441.31666992 -5.99174805 433.49979492 -5.88549805 425.44604492 C-27.66549805 425.44604492 -49.44549805 425.44604492 -71.88549805 425.44604492 C-71.68782384 441.0181367 -71.68782384 441.0181367 -71.43505859 456.58935547 C-71.42045183 458.54547767 -71.40771161 460.50161509 -71.3972168 462.45776367 C-71.37163696 463.46859009 -71.34605713 464.4794165 -71.31970215 465.52087402 C-71.31526047 472.67996458 -71.31526047 472.67996458 -74.22851562 476.59375 C-76.88549805 478.44604492 -76.88549805 478.44604492 -79.88549805 479.07104492 C-84.13788053 478.1851319 -85.31408128 476.97681072 -87.88549805 473.44604492 C-88.62904815 469.36844028 -88.53402222 465.333289 -88.48144531 461.19873047 C-88.48550385 459.95573685 -88.48956238 458.71274323 -88.4937439 457.43208313 C-88.49926666 454.73104414 -88.4957976 452.03177871 -88.47708321 449.33096886 C-88.4478911 445.04557829 -88.45581444 440.76073651 -88.46897888 436.47529602 C-88.48963994 428.13406912 -88.47407585 419.79310839 -88.45350647 411.45189667 C-88.4283765 400.87534543 -88.41573593 390.29894982 -88.44346279 379.72239333 C-88.45171504 376.16822228 -88.45132627 372.61449667 -88.43020821 369.06036949 C-88.01753548 343.71641008 -88.01753548 343.71641008 -96.88549805 320.44604492 C-97.0785745 321.22480327 -97.27165094 322.00356161 -97.47057819 322.80591869 C-102.16886235 341.75363768 -106.87626039 360.69907079 -111.5938158 379.64200115 C-113.87496847 388.80270765 -116.1530288 397.96416247 -118.42382812 407.12744141 C-120.40303564 415.11403633 -122.38802698 423.09916735 -124.37998027 431.08259326 C-125.43452381 435.30989388 -126.48615473 439.53787133 -127.53086281 443.76761436 C-128.51441824 447.74937364 -129.50570035 451.72912881 -130.50292015 455.70748711 C-130.86738133 457.16725641 -131.22902351 458.6277329 -131.58761597 460.08895493 C-132.07816508 462.08605045 -132.57885551 464.08033824 -133.08210754 466.07426453 C-133.35956723 467.19055583 -133.63702692 468.30684713 -133.92289448 469.45696545 C-134.89922822 472.48867988 -136.06409192 474.8393966 -137.88549805 477.44604492 C-140.73874242 478.87266711 -142.72004354 478.7563836 -145.88549805 478.44604492 C-148.76049805 477.00854492 -148.76049805 477.00854492 -150.88549805 474.44604492 C-151.51407217 466.84183115 -149.84340232 460.1992278 -147.88549805 452.88354492 C-147.59932617 451.77946289 -147.3131543 450.67538086 -147.01831055 449.5378418 C-146.31706348 446.83804059 -145.60262441 444.14167171 -144.88549805 441.44604492 C-151.81549805 441.11604492 -158.74549805 440.78604492 -165.88549805 440.44604492 C-165.82749023 442.85401367 -165.76948242 445.26198242 -165.7097168 447.74291992 C-165.67070434 450.07947497 -165.64035546 452.41599352 -165.61083984 454.75268555 C-165.58572033 456.37459597 -165.55161777 457.99639346 -165.50830078 459.61791992 C-165.44752951 461.95153664 -165.4192651 464.2836554 -165.3972168 466.61791992 C-165.37141037 467.34098328 -165.34560394 468.06404663 -165.3190155 468.809021 C-165.31691825 472.58754497 -165.57882689 474.12378574 -168.22460938 476.90405273 C-171.47342325 478.78674917 -173.1893422 479.07517783 -176.88549805 478.44604492 C-179.18825361 476.57894582 -180.56373675 475.08956751 -181.88549805 472.44604492 C-181.97188692 470.03793178 -182.00125006 467.65846602 -181.9831543 465.25073242 C-181.98065674 463.95635254 -181.97815918 462.66197266 -181.97558594 461.32836914 C-181.96648193 459.67595215 -181.95737793 458.02353516 -181.94799805 456.32104492 C-181.92737305 451.08229492 -181.90674805 445.84354492 -181.88549805 440.44604492 C-200.69549805 440.44604492 -219.50549805 440.44604492 -238.88549805 440.44604492 C-238.72740622 451.45571835 -238.72740622 451.45571835 -238.52514648 462.46459961 C-238.51345955 463.84902716 -238.50326773 465.23346849 -238.49487305 466.61791992 C-238.47440918 467.33157715 -238.45394531 468.04523438 -238.43286133 468.78051758 C-238.43045672 472.21188689 -238.63419348 474.10394995 -240.69116211 476.90405273 C-243.9006386 479.15939914 -246.05991087 478.99255738 -249.88549805 478.44604492 C-252.48729093 476.42462371 -253.72639802 475.22991948 -254.38886261 471.96600342 C-254.39037071 471.03096985 -254.39187881 470.09593628 -254.39343262 469.13256836 C-254.40471191 468.05583862 -254.41599121 466.97910889 -254.4276123 465.86975098 C-254.41951538 464.69352173 -254.41141846 463.51729248 -254.40307617 462.30541992 C-254.41008545 461.06280396 -254.41709473 459.82018799 -254.42431641 458.53991699 C-254.43890677 455.13469306 -254.43548552 451.7304411 -254.42280006 448.32527161 C-254.41266921 444.76102394 -254.42206597 441.19681766 -254.42834473 437.63256836 C-254.43562092 431.64714098 -254.42603432 425.66191106 -254.40698242 419.67651367 C-254.38521351 412.75765535 -254.39226492 405.8392685 -254.41428804 398.9204216 C-254.43244299 392.9788853 -254.43499997 387.0374909 -254.42453337 381.09593582 C-254.41829887 377.54780601 -254.41746134 373.99989778 -254.43067932 370.45178223 C-254.44438483 366.49655851 -254.4253864 362.54186244 -254.40307617 358.58666992 C-254.4111731 357.41044067 -254.41927002 356.23421143 -254.4276123 355.02233887 C-254.41633301 353.94560913 -254.40505371 352.86887939 -254.39343262 351.75952148 C-254.39192451 350.82448792 -254.39041641 349.88945435 -254.38886261 348.92608643 C-253.73327315 345.69604363 -252.38699436 344.52034346 -249.88549805 342.44604492 C-247.7989502 341.28840637 -247.7989502 341.28840637 -245.54760742 340.35546875 C-244.27608826 339.82020317 -244.27608826 339.82020317 -242.97888184 339.27412415 C-241.61781311 338.7192054 -241.61781311 338.7192054 -240.22924805 338.15307617 C-239.2899646 337.76157883 -238.35068115 337.37008148 -237.38293457 336.96672058 C-235.40116784 336.14278512 -233.41743103 335.32357434 -231.43188477 334.50878906 C-228.39267287 333.26148948 -225.35938165 332.00063374 -222.3269043 330.73706055 C-220.39884823 329.93743783 -218.47047329 329.13858345 -216.54174805 328.34057617 C-215.6343689 327.96455765 -214.72698975 327.58853912 -213.79211426 327.2011261 C-212.94443481 326.85373886 -212.09675537 326.50635162 -211.22338867 326.1484375 C-210.108974 325.69021355 -210.108974 325.69021355 -208.9720459 325.22273254 C-206.88549805 324.44604492 -206.88549805 324.44604492 -202.88549805 323.44604492 C-202.88549805 319.48604492 -202.88549805 315.52604492 -202.88549805 311.44604492 C-204.18487305 311.23979492 -205.48424805 311.03354492 -206.82299805 310.82104492 C-215.80234614 308.79117659 -222.67393114 302.87760397 -227.88549805 295.44604492 C-232.40165936 287.36088074 -233.03608983 279.77741575 -232.9831543 270.67260742 C-232.98173935 269.74886322 -232.9803244 268.82511902 -232.97886658 267.87338257 C-232.97329414 264.9392363 -232.96074674 262.00516791 -232.94799805 259.07104492 C-232.94297948 257.07495228 -232.9384172 255.07885843 -232.93432617 253.08276367 C-232.92333373 248.20382767 -232.90608815 243.32494948 -232.88549805 238.44604492 C-233.80975586 238.48213867 -234.73401367 238.51823242 -235.6862793 238.55541992 C-240.5722633 238.38837773 -243.42961495 236.00233375 -246.69799805 232.50854492 C-250.66141093 225.62472254 -249.68793957 214.14696221 -248.3894043 206.53979492 C-246.99872318 201.82562166 -245.28934918 198.97825932 -240.88549805 196.44604492 C-239.89549805 196.44604492 -238.90549805 196.44604492 -237.88549805 196.44604492 C-237.7875293 195.83116211 -237.68956055 195.2162793 -237.58862305 194.58276367 C-236.37500854 188.022968 -236.37500854 188.022968 -234.13549805 185.38354492 C-231.06638407 184.10474743 -229.1835091 183.90759414 -225.88549805 184.44604492 C-223.01049805 186.57104492 -223.01049805 186.57104492 -220.88549805 189.44604492 C-220.88549805 191.42604492 -220.88549805 193.40604492 -220.88549805 195.44604492 C-211.97549805 195.44604492 -203.06549805 195.44604492 -193.88549805 195.44604492 C-194.38049805 182.57604492 -194.38049805 182.57604492 -194.88549805 169.44604492 C-199.83549805 171.42604492 -199.83549805 171.42604492 -204.88549805 173.44604492 C-208.52506066 173.38827409 -210.69734907 173.19853927 -213.76049805 171.25854492 C-215.40811497 168.604051 -215.76082904 166.56277005 -215.88549805 163.44604492 C-213.31172612 157.71274608 -209.50783786 156.61446288 -203.91674805 154.44995117 C-200.49823343 153.31778847 -197.46724506 152.69025495 -193.88549805 152.44604492 C-193.79268555 150.86823242 -193.79268555 150.86823242 -193.69799805 149.25854492 C-192.74412357 144.78267236 -191.35502817 143.32321625 -187.88549805 140.44604492 C-183.80227583 138.40443381 -178.56076996 139.21697913 -174.07299805 139.19604492 C-172.43234375 139.16510742 -172.43234375 139.16510742 -170.75854492 139.13354492 C-169.70086914 139.12838867 -168.64319336 139.12323242 -167.5534668 139.11791992 C-166.58691162 139.10857422 -165.62035645 139.09922852 -164.62451172 139.08959961 C-159.9094004 139.70320711 -157.46621781 141.70837387 -154.57299805 145.38354492 C-152.88549805 148.44604492 -152.88549805 148.44604492 -152.88549805 152.44604492 C-152.3028418 152.52081055 -151.72018555 152.59557617 -151.11987305 152.67260742 C-137.94465981 154.78561332 -126.9960772 161.52926771 -118.8503418 172.08276367 C-113.9772515 179.33549466 -109.48476122 187.50159902 -109.88549805 196.44604492 C-109.16362305 196.50791992 -108.44174805 196.56979492 -107.69799805 196.63354492 C-103.98574155 197.70597458 -102.37328736 199.54362405 -99.88549805 202.44604492 C-98.27618892 207.27397229 -98.61774533 212.20210221 -98.57299805 217.25854492 C-98.54399414 218.33942383 -98.51499023 219.42030273 -98.48510742 220.53393555 C-98.43485489 226.83096438 -98.59752559 230.69301663 -102.88549805 235.44604492 C-106.89039359 238.69325753 -109.85199527 238.55226186 -114.88549805 238.44604492 C-114.87550529 239.28050392 -114.87550529 239.28050392 -114.86531067 240.13182068 C-114.79860247 245.95614809 -114.75355117 251.78036581 -114.72070312 257.60498047 C-114.70567768 259.77462172 -114.68525151 261.94423291 -114.65917969 264.11376953 C-114.62252099 267.24413502 -114.60570878 270.37409662 -114.5925293 273.50463867 C-114.57704544 274.46438095 -114.56156158 275.42412323 -114.54560852 276.41294861 C-114.54317047 286.31473954 -117.07534537 294.16111036 -123.88549805 301.44604492 C-129.85807155 307.05868933 -136.45102272 311.44604492 -144.88549805 311.44604492 C-144.88549805 315.40604492 -144.88549805 319.36604492 -144.88549805 323.44604492 C-143.59772461 323.86499023 -142.30995117 324.28393555 -140.9831543 324.71557617 C-136.03215818 326.36590821 -131.17718201 328.21983783 -126.32299805 330.13354492 C-125.50508789 330.45387695 -124.68717773 330.77420898 -123.84448242 331.10424805 C-121.85736183 331.88282746 -119.87131378 332.66414337 -117.88549805 333.44604492 C-117.65999268 332.5249292 -117.65999268 332.5249292 -117.42993164 331.58520508 C-111.7555555 308.74616277 -111.7555555 308.74616277 -105.88549805 301.44604492 C-105.21647461 300.59010742 -104.54745117 299.73416992 -103.8581543 298.85229492 C-93.93170983 286.98940874 -80.16193174 282.42519224 -66.19799805 276.75854492 C-64.32724631 275.99302365 -62.45680096 275.22675316 -60.58666992 274.4597168 C-57.94989874 273.37848361 -55.31275541 272.29830388 -52.673172 271.22395325 C-51.8851268 270.90319321 -51.0970816 270.58243317 -50.28515625 270.25195312 C-49.53843658 269.94867096 -48.79171692 269.64538879 -48.02236938 269.33291626 C-45.99554134 268.49171648 -43.99470418 267.6045695 -41.99169922 266.70849609 C-38.88549805 265.44604492 -38.88549805 265.44604492 -35.88549805 265.44604492 C-35.88549805 257.85604492 -35.88549805 250.26604492 -35.88549805 242.44604492 C-39.18549805 242.11604492 -42.48549805 241.78604492 -45.88549805 241.44604492 C-49.71362305 239.99291992 -49.71362305 239.99291992 -53.13549805 238.19604492 C-54.2750293 237.61338867 -55.41456055 237.03073242 -56.58862305 236.43041992 C-66.94732246 230.19556293 -73.29829816 220.92122735 -76.88549805 209.44604492 C-77.87565115 205.36251693 -78.17400881 201.32166615 -78.44799805 197.13354492 C-78.53178711 195.87928711 -78.61557617 194.6250293 -78.7019043 193.33276367 C-78.76249023 192.38014648 -78.82307617 191.4275293 -78.88549805 190.44604492 C-80.01084961 190.06125977 -80.01084961 190.06125977 -81.15893555 189.66870117 C-91.168146 185.92470179 -99.61201394 180.11199163 -104.92456055 170.59838867 C-109.51636568 160.3134918 -110.52287742 149.67068305 -106.9440918 138.93432617 C-105.39566482 135.29466571 -103.4172582 131.99948191 -101.2878418 128.67260742 C-100.82506836 127.9378418 -100.36229492 127.20307617 -99.88549805 126.44604492 C-99.45366211 125.7731543 -99.02182617 125.10026367 -98.5769043 124.40698242 C-98.34874023 123.75987305 -98.12057617 123.11276367 -97.88549805 122.44604492 C-98.3487146 121.59042969 -98.3487146 121.59042969 -98.82128906 120.7175293 C-101.10409521 115.84502909 -100.25515402 109.85629044 -100.26049805 104.57104492 C-100.28499023 103.30389648 -100.30948242 102.03674805 -100.3347168 100.73120117 C-100.37153582 89.05957222 -100.37153582 89.05957222 -95.88549805 84.44604492 C-92.88405363 82.09007242 -89.5014243 80.65135367 -85.88549805 79.44604492 C-85.16830821 77.03008762 -84.62434436 74.72148017 -84.13549805 72.25854492 C-80.10005666 54.44150213 -70.05669917 39.7549232 -54.88549805 29.44604492 C-45.66192408 23.86496372 -34.92208401 18.44604492 -23.88549805 18.44604492 C-23.8597168 17.8659668 -23.83393555 17.28588867 -23.80737305 16.68823242 C-23.41215672 11.24502567 -22.61259255 7.67680084 -18.88549805 3.44604492 C-12.67863991 -0.29884699 -7.07496259 -0.04496619 0 0 Z M-7.88549805 16.44604492 C-7.88549805 37.56604492 -7.88549805 58.68604492 -7.88549805 80.44604492 C-1.28549805 80.44604492 5.31450195 80.44604492 12.11450195 80.44604492 C12.11450195 59.32604492 12.11450195 38.20604492 12.11450195 16.44604492 C5.51450195 16.44604492 -1.08549805 16.44604492 -7.88549805 16.44604492 Z M28.11450195 34.44604492 C28.11450195 49.62604492 28.11450195 64.80604492 28.11450195 80.44604492 C42.96450195 80.44604492 57.81450195 80.44604492 73.11450195 80.44604492 C71.94785244 71.11284879 69.6774065 63.99570109 64.11450195 56.44604492 C63.45063477 56.86756836 62.78676758 57.2890918 62.1027832 57.72338867 C61.21977539 58.27124023 60.33676758 58.8190918 59.42700195 59.38354492 C58.55688477 59.92881836 57.68676758 60.4740918 56.7902832 61.03588867 C53.04992091 63.0070869 50.45930419 63.84337286 46.36450195 62.63354492 C44.11450195 61.44604492 44.11450195 61.44604492 43.11450195 59.44604492 C42.98092742 55.77274528 42.94734515 52.94751533 44.11450195 49.44604492 C45.76888808 48.74946129 47.43704513 48.08507609 49.11450195 47.44604492 C50.14546834 46.47800137 51.15176697 45.48197028 52.11450195 44.44604492 C45.40860756 39.90480718 36.50840455 34.44604492 28.11450195 34.44604492 Z M-47.88549805 44.44604492 C-45.19707946 46.69850374 -43.2390793 48.3281845 -39.88549805 49.44604492 C-38.70098495 52.99958421 -38.6190791 55.7161797 -38.88549805 59.44604492 C-40.2847275 61.54488909 -41.40905259 62.20782219 -43.63549805 63.32104492 C-49.31815383 63.63674802 -55.14897753 59.24929176 -59.88549805 56.44604492 C-64.84867384 63.61507662 -68.88549805 71.56574831 -68.88549805 80.44604492 C-54.03549805 80.44604492 -39.18549805 80.44604492 -23.88549805 80.44604492 C-23.88549805 65.26604492 -23.88549805 50.08604492 -23.88549805 34.44604492 C-32.27940064 34.44604492 -41.17960365 39.90480718 -47.88549805 44.44604492 Z M-83.88549805 96.44604492 C-83.88549805 102.05604492 -83.88549805 107.66604492 -83.88549805 113.44604492 C-27.12549805 113.44604492 29.63450195 113.44604492 88.11450195 113.44604492 C88.11450195 107.83604492 88.11450195 102.22604492 88.11450195 96.44604492 C31.35450195 96.44604492 -25.40549805 96.44604492 -83.88549805 96.44604492 Z M-61.88549805 129.44604492 C-61.94737305 141.30541992 -62.00924805 153.16479492 -62.07299805 165.38354492 C-62.10031006 169.11272217 -62.12762207 172.84189941 -62.15576172 176.68408203 C-62.16580191 180.05957381 -62.16580191 180.05957381 -62.17182922 183.43507385 C-62.17640233 184.9255391 -62.18688301 186.41599403 -62.20222473 187.90638733 C-62.3944101 203.44135044 -62.3944101 203.44135044 -54.82299805 216.69604492 C-54.13077148 217.48495117 -53.43854492 218.27385742 -52.7253418 219.08666992 C-42.78178243 227.34789394 -33.23013846 227.18996594 -20.88549805 227.11010742 C-19.04044272 227.11348201 -17.19538958 227.11833996 -15.3503418 227.12460327 C-11.49726035 227.13194432 -7.64476137 227.121359 -3.79174805 227.09790039 C1.12416966 227.06941411 6.03872211 227.08583304 10.95458984 227.11576271 C14.76043817 227.13391096 18.56596776 227.12804335 22.37182617 227.11512375 C24.18335129 227.11181049 25.99490624 227.11580283 27.80639648 227.12752151 C39.84903951 227.18834736 48.64502928 226.50506044 57.98950195 218.13354492 C64.25975658 211.36048685 66.24365026 204.35206168 66.22802734 195.29077148 C66.22814788 194.56669979 66.22826841 193.8426281 66.2283926 193.09661484 C66.22764804 190.75993495 66.22004064 188.42333548 66.2121582 186.08666992 C66.21068737 184.64119505 66.20966753 183.19571965 66.20910645 181.75024414 C66.20386996 176.39883626 66.18990872 171.0474398 66.17700195 165.69604492 C66.14606445 147.75229492 66.14606445 147.75229492 66.11450195 129.44604492 C23.87450195 129.44604492 -18.36549805 129.44604492 -61.88549805 129.44604492 Z M-86.9440918 136.25073242 C-90.96936113 140.80244543 -92.53854729 146.01738964 -93.38549805 151.94604492 C-92.19365249 160.2889638 -89.33114133 165.8310768 -82.7878418 171.16870117 C-80.81024135 172.61907994 -80.81024135 172.61907994 -77.88549805 173.44604492 C-77.88549805 159.58604492 -77.88549805 145.72604492 -77.88549805 131.44604492 C-82.18058268 131.44604492 -83.85009662 133.43593754 -86.9440918 136.25073242 Z M82.11450195 131.44604492 C82.11450195 145.30604492 82.11450195 159.16604492 82.11450195 173.44604492 C89.62715208 169.15310199 93.92505368 165.59492788 96.60668945 157.44213867 C98.36155415 150.54417053 96.59160704 144.47559558 93.11450195 138.44604492 C90.70854301 135.72542334 88.2074381 133.3640464 85.11450195 131.44604492 C84.12450195 131.44604492 83.13450195 131.44604492 82.11450195 131.44604492 Z M-177.88549805 155.44604492 C-177.88549805 168.64604492 -177.88549805 181.84604492 -177.88549805 195.44604492 C-174.91549805 195.44604492 -171.94549805 195.44604492 -168.88549805 195.44604492 C-168.88549805 182.24604492 -168.88549805 169.04604492 -168.88549805 155.44604492 C-171.85549805 155.44604492 -174.82549805 155.44604492 -177.88549805 155.44604492 Z M173.11450195 155.44604492 C173.11450195 168.64604492 173.11450195 181.84604492 173.11450195 195.44604492 C176.08450195 195.44604492 179.05450195 195.44604492 182.11450195 195.44604492 C182.11450195 182.24604492 182.11450195 169.04604492 182.11450195 155.44604492 C179.14450195 155.44604492 176.17450195 155.44604492 173.11450195 155.44604492 Z M-152.88549805 168.44604492 C-152.88549805 177.35604492 -152.88549805 186.26604492 -152.88549805 195.44604492 C-143.97549805 195.44604492 -135.06549805 195.44604492 -125.88549805 195.44604492 C-129.64270848 184.17441361 -134.19393335 176.9502826 -144.88549805 171.44604492 C-147.52549805 170.45604492 -150.16549805 169.46604492 -152.88549805 168.44604492 Z M198.11450195 168.44604492 C198.11450195 177.35604492 198.11450195 186.26604492 198.11450195 195.44604492 C207.02450195 195.44604492 215.93450195 195.44604492 225.11450195 195.44604492 C223.33186669 186.53286861 218.52697691 180.33532151 211.9465332 174.23510742 C207.72088473 171.56566328 202.81178062 170.15414625 198.11450195 168.44604492 Z M138.57543945 178.81713867 C133.90713104 184.02217773 132.0571308 188.64684395 130.11450195 195.44604492 C139.02450195 195.44604492 147.93450195 195.44604492 157.11450195 195.44604492 C157.11450195 186.53604492 157.11450195 177.62604492 157.11450195 168.44604492 C151.17411345 168.44604492 142.82167759 174.85053085 138.57543945 178.81713867 Z M-232.88549805 211.44604492 C-232.88549805 215.07604492 -232.88549805 218.70604492 -232.88549805 222.44604492 C-193.94549805 222.44604492 -155.00549805 222.44604492 -114.88549805 222.44604492 C-114.88549805 218.81604492 -114.88549805 215.18604492 -114.88549805 211.44604492 C-153.82549805 211.44604492 -192.76549805 211.44604492 -232.88549805 211.44604492 Z M119.11450195 211.44604492 C119.11450195 215.07604492 119.11450195 218.70604492 119.11450195 222.44604492 C158.05450195 222.44604492 196.99450195 222.44604492 237.11450195 222.44604492 C237.11450195 218.81604492 237.11450195 215.18604492 237.11450195 211.44604492 C198.17450195 211.44604492 159.23450195 211.44604492 119.11450195 211.44604492 Z M-216.88549805 238.44604492 C-216.9546128 244.13905289 -217.01427289 249.83058741 -217.05029297 255.52368164 C-217.0653188 257.45765127 -217.08574531 259.39158718 -217.11181641 261.32543945 C-217.14847396 264.11572628 -217.16528673 266.90556003 -217.1784668 269.69604492 C-217.19395065 270.55157959 -217.20943451 271.40711426 -217.22538757 272.28857422 C-217.22718977 278.8123652 -216.32078176 284.58360458 -211.94799805 289.72338867 C-211.26737305 290.27124023 -210.58674805 290.8190918 -209.88549805 291.38354492 C-209.20487305 291.94944336 -208.52424805 292.5153418 -207.82299805 293.09838867 C-204.35649282 295.5095667 -201.35693155 295.58707334 -197.25585938 295.63891602 C-196.10068314 295.65497894 -194.9455069 295.67104187 -193.75532532 295.68759155 C-188.46724998 295.73211383 -183.17932246 295.77355085 -177.89111328 295.79614258 C-175.10431902 295.80945477 -172.31826174 295.83725812 -169.53173828 295.87817383 C-165.51021106 295.93721211 -161.48946765 295.95483215 -157.4675293 295.96948242 C-156.22767776 295.99215179 -154.98782623 296.01482117 -153.71040344 296.03817749 C-146.55003365 296.0207493 -141.17964596 295.58336289 -135.88549805 290.44604492 C-130.76003766 284.76359671 -130.18909288 279.46874252 -130.3972168 272.03979492 C-130.40429153 271.07448853 -130.41136627 270.10918213 -130.4186554 269.11462402 C-130.44645119 266.05761362 -130.50916144 263.00249356 -130.57299805 259.94604492 C-130.59810008 257.8627382 -130.6209099 255.77940252 -130.64135742 253.69604492 C-130.69196085 248.61141286 -130.7898396 243.53082266 -130.88549805 238.44604492 C-142.43549805 238.44604492 -153.98549805 238.44604492 -165.88549805 238.44604492 C-166.21549805 243.06604492 -166.54549805 247.68604492 -166.88549805 252.44604492 C-171.05189195 255.57084035 -171.95912645 256.07494342 -176.88549805 255.44604492 C-178.92217419 253.90098026 -179.74622883 252.72458336 -180.88549805 250.44604492 C-181.38049805 244.50604492 -181.38049805 244.50604492 -181.88549805 238.44604492 C-193.43549805 238.44604492 -204.98549805 238.44604492 -216.88549805 238.44604492 Z M135.11450195 238.44604492 C134.99934968 244.56702787 134.89992154 250.68421447 134.83984375 256.80541992 C134.8147869 258.88497694 134.78073174 260.96444666 134.73730469 263.04370117 C134.6762635 266.04261886 134.64820353 269.0403667 134.6262207 272.03979492 C134.60041428 272.96095093 134.57460785 273.88210693 134.54801941 274.83117676 C134.54526587 281.24963235 135.76268996 285.62413941 140.11450195 290.44604492 C146.32862586 296.44383571 153.32569418 296.16385984 161.5559082 296.07495117 C163.47837624 296.07856911 163.47837624 296.07856911 165.43968201 296.08226013 C168.14045302 296.08510436 170.84038839 296.07055302 173.54101562 296.04296875 C176.98653124 296.00885171 180.43055796 296.01492746 183.87614536 296.03363132 C187.1862117 296.04679433 190.49585222 296.02847196 193.8059082 296.01245117 C195.64989952 296.01989098 195.64989952 296.01989098 197.53114319 296.02748108 C205.00940467 295.92493462 209.97480981 295.38243828 215.56178284 290.06983948 C221.12915027 283.95775103 221.40308602 277.71497614 221.30981445 269.89135742 C221.30556961 268.53903519 221.30556961 268.53903519 221.30123901 267.15939331 C221.29009634 264.29647216 221.26500275 261.43387059 221.23950195 258.57104492 C221.22946451 256.62313279 221.22033999 254.67521573 221.2121582 252.72729492 C221.19188292 247.96665783 221.15272314 243.20670664 221.11450195 238.44604492 C209.56450195 238.44604492 198.01450195 238.44604492 186.11450195 238.44604492 C185.78450195 242.40604492 185.45450195 246.36604492 185.11450195 250.44604492 C183.11450195 254.44604492 183.11450195 254.44604492 181.11450195 255.44604492 C176.16343035 255.87657289 175.32828013 255.60637855 171.11450195 252.44604492 C170.78450195 247.82604492 170.45450195 243.20604492 170.11450195 238.44604492 C158.56450195 238.44604492 147.01450195 238.44604492 135.11450195 238.44604492 Z M-19.88549805 242.44604492 C-19.88549805 249.04604492 -19.88549805 255.64604492 -19.88549805 262.44604492 C-5.36549805 262.44604492 9.15450195 262.44604492 24.11450195 262.44604492 C24.11450195 255.84604492 24.11450195 249.24604492 24.11450195 242.44604492 C9.59450195 242.44604492 -4.92549805 242.44604492 -19.88549805 242.44604492 Z M-11.88549805 278.44604492 C-8.86766709 283.87814064 -6.02405412 288.91969952 -2.57299805 294.00854492 C-1.87561523 295.04108398 -1.17823242 296.07362305 -0.4597168 297.13745117 C0.31952148 298.28020508 0.31952148 298.28020508 1.11450195 299.44604492 C4.70794028 298.24823215 5.08287508 297.36728879 7.0324707 294.22729492 C7.56420898 293.37780273 8.09594727 292.52831055 8.64379883 291.65307617 C9.19100586 290.75975586 9.73821289 289.86643555 10.30200195 288.94604492 C10.86081055 288.05272461 11.41961914 287.1594043 11.99536133 286.23901367 C14.72390828 282.57642662 14.72390828 282.57642662 16.11450195 278.44604492 C6.87450195 278.44604492 -2.36549805 278.44604492 -11.88549805 278.44604492 Z M-36.67578125 281.89550781 C-37.43119705 282.21326675 -38.18661285 282.5310257 -38.96492004 282.8584137 C-40.18824287 283.383256 -40.18824287 283.383256 -41.4362793 283.91870117 C-42.28667282 284.27943222 -43.13706635 284.64016327 -44.01322937 285.01182556 C-45.8208083 285.7801651 -47.62724186 286.55120386 -49.43261719 287.32470703 C-52.14628369 288.48640641 -54.86414063 289.63779809 -57.58276367 290.7878418 C-67.53046874 295.01749108 -77.29751774 299.44906825 -86.88549805 304.44604492 C-86.3225 305.4334668 -85.75950195 306.42088867 -85.17944336 307.43823242 C-81.4119292 314.08525203 -78.20083089 320.62758371 -75.94799805 327.94604492 C-75.74924072 328.5912207 -75.5504834 329.23639648 -75.34570312 329.90112305 C-72.22322576 340.62259882 -72.44722491 351.2115077 -71.88549805 362.44604492 C-50.10549805 362.44604492 -28.32549805 362.44604492 -5.88549805 362.44604492 C-2.80340306 327.22418699 -2.80340306 327.22418699 -18.05102539 297.59057617 C-20.96835225 294.18016904 -23.22064569 290.38154895 -25.57299805 286.57104492 C-26.93085939 284.40607476 -28.29186119 282.45609377 -29.88549805 280.44604492 C-32.81271229 280.44604492 -34.05721476 280.78394566 -36.67578125 281.89550781 Z M-186.88549805 311.44604492 C-186.88549805 314.41604492 -186.88549805 317.38604492 -186.88549805 320.44604492 C-178.30549805 320.44604492 -169.72549805 320.44604492 -160.88549805 320.44604492 C-160.88549805 317.47604492 -160.88549805 314.50604492 -160.88549805 311.44604492 C-169.46549805 311.44604492 -178.04549805 311.44604492 -186.88549805 311.44604492 Z M165.11450195 311.44604492 C165.11450195 314.41604492 165.11450195 317.38604492 165.11450195 320.44604492 C173.69450195 320.44604492 182.27450195 320.44604492 191.11450195 320.44604492 C191.11450195 317.47604492 191.11450195 314.50604492 191.11450195 311.44604492 C182.53450195 311.44604492 173.95450195 311.44604492 165.11450195 311.44604492 Z M-180.88549805 336.44604492 C-179.49403838 340.62042391 -178.38103568 343.63800588 -176.26049805 347.32104492 C-175.81448242 348.1022168 -175.3684668 348.88338867 -174.90893555 349.68823242 C-174.57120117 350.26831055 -174.2334668 350.84838867 -173.88549805 351.44604492 C-171.39922288 348.38377052 -169.785604 345.30033953 -168.19799805 341.69604492 C-167.43487305 339.96354492 -166.67174805 338.23104492 -165.88549805 336.44604492 C-170.83549805 336.44604492 -175.78549805 336.44604492 -180.88549805 336.44604492 Z M170.11450195 336.44604492 C172.42450195 341.39604492 174.73450195 346.34604492 177.11450195 351.44604492 C179.87052373 348.69002314 181.12322754 346.80663149 182.80200195 343.38354492 C183.23899414 342.50569336 183.67598633 341.6278418 184.1262207 340.72338867 C185.24719966 338.55401957 185.24719966 338.55401957 185.11450195 336.44604492 C180.16450195 336.44604492 175.21450195 336.44604492 170.11450195 336.44604492 Z M-204.71435547 340.91479492 C-205.47491745 341.23512695 -206.23547943 341.55545898 -207.01908875 341.88549805 C-208.24266838 342.41046875 -208.24266838 342.41046875 -209.4909668 342.94604492 C-210.33017166 343.30118164 -211.16937653 343.65631836 -212.03401184 344.0222168 C-214.71583368 345.15847965 -217.3944192 346.302161 -220.07299805 347.44604492 C-221.88984722 348.21736866 -223.70690209 348.98820808 -225.52416992 349.75854492 C-229.9807668 351.64786511 -234.4329118 353.54717901 -238.88549805 355.44604492 C-238.88549805 367.32604492 -238.88549805 379.20604492 -238.88549805 391.44604492 C-220.07549805 391.44604492 -201.26549805 391.44604492 -181.88549805 391.44604492 C-181.25741448 372.76490364 -181.25741448 372.76490364 -187.63549805 357.57104492 C-188.17432617 356.57975586 -188.7131543 355.5884668 -189.26831055 354.56713867 C-190.76498207 351.83297533 -192.31259669 349.13686744 -193.88549805 346.44604492 C-194.68366379 345.04834372 -195.4807393 343.65001864 -196.27612305 342.25073242 C-196.8072168 341.32518555 -197.33831055 340.39963867 -197.88549805 339.44604492 C-200.82496376 339.44604492 -202.08280702 339.79573113 -204.71435547 340.91479492 Z M-148.88549805 339.44604492 C-149.53292565 340.66724423 -150.17997655 341.88864324 -150.8269043 343.11010742 C-151.24278809 343.89514648 -151.65867187 344.68018555 -152.0871582 345.48901367 C-153.00247441 347.22571698 -153.9122178 348.96536767 -154.81665039 350.70776367 C-156.82864931 354.58198493 -158.83626043 358.42794283 -161.1081543 362.15698242 C-166.92738136 372.21815118 -166.46393777 380.04251891 -165.88549805 391.44604492 C-154.66549805 391.44604492 -143.44549805 391.44604492 -131.88549805 391.44604492 C-129.17583387 381.84609185 -126.52584736 372.23998996 -124.07299805 362.57104492 C-123.85426025 361.721875 -123.63552246 360.87270508 -123.41015625 359.99780273 C-123.20994873 359.19955078 -123.00974121 358.40129883 -122.8034668 357.57885742 C-122.62581787 356.87647949 -122.44816895 356.17410156 -122.26513672 355.45043945 C-121.76143495 353.13102873 -121.76143495 353.13102873 -121.88549805 349.44604492 C-125.81937343 347.77072819 -129.75816068 346.10728689 -133.69799805 344.44604492 C-135.37732422 343.73061523 -135.37732422 343.73061523 -137.09057617 343.00073242 C-138.1637207 342.54956055 -139.23686523 342.09838867 -140.3425293 341.63354492 C-141.3322876 341.21459961 -142.3220459 340.7956543 -143.34179688 340.36401367 C-145.90509798 339.2763192 -145.90509798 339.2763192 -148.88549805 339.44604492 Z M202.11450195 339.44604492 C199.99640834 343.53937956 197.87849246 347.63280608 195.76074219 351.72631836 C195.04008811 353.11924738 194.31938524 354.51215116 193.59863281 355.9050293 C192.56342991 357.90561413 191.5284018 359.9062893 190.4934082 361.90698242 C190.1704628 362.53099945 189.8475174 363.15501648 189.51478577 363.79794312 C186.6685695 369.24953842 186.6685695 369.24953842 186.0168457 375.23510742 C186.02006836 376.17612305 186.02329102 377.11713867 186.02661133 378.08666992 C186.03499023 379.07151367 186.04336914 380.05635742 186.05200195 381.07104492 C186.05651367 382.06362305 186.06102539 383.05620117 186.06567383 384.07885742 C186.07748051 386.53464652 186.09394795 388.99031596 186.11450195 391.44604492 C187.09032227 391.4950293 188.06614258 391.54401367 189.0715332 391.59448242 C190.34383789 391.66924805 191.61614258 391.74401367 192.92700195 391.82104492 C194.19157227 391.8906543 195.45614258 391.96026367 196.7590332 392.03198242 C200.11450195 392.44604492 200.11450195 392.44604492 203.11450195 394.44604492 C204.44788926 399.95737912 204.44788926 399.95737912 204.11450195 402.44604492 C202.5715332 404.65698242 202.5715332 404.65698242 200.11450195 406.44604492 C195.43534408 407.27177866 190.87941693 407.26956659 186.11450195 407.44604492 C186.11450195 413.05604492 186.11450195 418.66604492 186.11450195 424.44604492 C204.92450195 424.44604492 223.73450195 424.44604492 243.11450195 424.44604492 C243.11450195 418.83604492 243.11450195 413.22604492 243.11450195 407.44604492 C240.88700195 407.34291992 238.65950195 407.23979492 236.36450195 407.13354492 C228.24019194 406.75741946 228.24019194 406.75741946 225.11450195 403.44604492 C224.61450195 400.00854492 224.61450195 400.00854492 225.11450195 396.44604492 C229.11450195 392.44604492 229.11450195 392.44604492 243.11450195 391.44604492 C243.11450195 379.56604492 243.11450195 367.68604492 243.11450195 355.44604492 C237.75967909 353.16240795 232.40368739 350.88209325 227.04394531 348.61010742 C225.22053292 347.83599735 223.39793561 347.05996446 221.57617188 346.28198242 C218.95955208 345.16495007 216.34009222 344.0548342 213.7199707 342.94604492 C212.90425095 342.59606445 212.08853119 342.24608398 211.24809265 341.88549805 C210.10724968 341.405 210.10724968 341.405 208.94335938 340.91479492 C208.27495529 340.63055664 207.60655121 340.34631836 206.91789246 340.0534668 C204.95781516 339.28644398 204.95781516 339.28644398 202.11450195 339.44604492 Z M145.3527832 341.53588867 C144.23452148 341.9902832 143.11625977 342.44467773 141.96411133 342.9128418 C140.79686523 343.39817383 139.62961914 343.88350586 138.42700195 344.38354492 C137.2481543 344.86500977 136.06930664 345.34647461 134.85473633 345.8425293 C131.93775587 347.03530268 129.02467055 348.23676791 126.11450195 349.44604492 C126.70294378 354.79923096 127.59277818 359.93511496 128.92700195 365.15698242 C129.10078369 365.85119293 129.27456543 366.54540344 129.45361328 367.26065063 C129.81782857 368.71152194 130.18430591 370.16182717 130.55297852 371.61157227 C131.11804771 373.8349967 131.6754026 376.06025244 132.23168945 378.28588867 C133.70815741 385.03225701 133.70815741 385.03225701 136.11450195 391.44604492 C147.33450195 391.44604492 158.55450195 391.44604492 170.11450195 391.44604492 C172.036892 377.02811955 168.76902497 367.93938686 162.30200195 355.32104492 C161.93212158 354.59361084 161.56224121 353.86617676 161.18115234 353.11669922 C160.1077963 351.02633066 159.01447335 348.94845534 157.9074707 346.87573242 C157.57289352 346.24114105 157.23831635 345.60654968 156.89360046 344.95272827 C153.6032757 338.99084928 151.35671787 339.06726579 145.3527832 341.53588867 Z M-71.88549805 378.44604492 C-71.88549805 388.67604492 -71.88549805 398.90604492 -71.88549805 409.44604492 C-50.10549805 409.44604492 -28.32549805 409.44604492 -5.88549805 409.44604492 C-5.88549805 399.21604492 -5.88549805 388.98604492 -5.88549805 378.44604492 C-27.66549805 378.44604492 -49.44549805 378.44604492 -71.88549805 378.44604492 Z M10.11450195 378.44604492 C10.11450195 388.67604492 10.11450195 398.90604492 10.11450195 409.44604492 C31.89450195 409.44604492 53.67450195 409.44604492 76.11450195 409.44604492 C76.11450195 399.21604492 76.11450195 388.98604492 76.11450195 378.44604492 C54.33450195 378.44604492 32.55450195 378.44604492 10.11450195 378.44604492 Z M-238.88549805 407.44604492 C-238.88549805 413.05604492 -238.88549805 418.66604492 -238.88549805 424.44604492 C-220.07549805 424.44604492 -201.26549805 424.44604492 -181.88549805 424.44604492 C-181.88549805 418.83604492 -181.88549805 413.22604492 -181.88549805 407.44604492 C-200.69549805 407.44604492 -219.50549805 407.44604492 -238.88549805 407.44604492 Z M-165.88549805 407.44604492 C-165.88549805 413.05604492 -165.88549805 418.66604492 -165.88549805 424.44604492 C-157.30549805 424.44604492 -148.72549805 424.44604492 -139.88549805 424.44604492 C-138.56549805 418.83604492 -137.24549805 413.22604492 -135.88549805 407.44604492 C-145.78549805 407.44604492 -155.68549805 407.44604492 -165.88549805 407.44604492 Z M140.11450195 407.44604492 C141.43450195 413.05604492 142.75450195 418.66604492 144.11450195 424.44604492 C152.69450195 424.44604492 161.27450195 424.44604492 170.11450195 424.44604492 C170.11450195 418.83604492 170.11450195 413.22604492 170.11450195 407.44604492 C160.21450195 407.44604492 150.31450195 407.44604492 140.11450195 407.44604492 Z " fill="#000000" transform="translate(253.885498046875,16.553955078125)"/>
<path d="M0 0 C2.25 1.75 2.25 1.75 4 4 C7.71445014 7.96133949 7.71445014 7.96133949 12.8125 9.25 C16.47677686 8.96260574 18.1210833 8.25644822 21 6 C22.05104383 4.36504293 23.05988318 2.70116376 24 1 C27.21866989 -0.60933494 30.5189802 -0.59733476 34 0 C36.5625 2.0625 36.5625 2.0625 38 5 C38.21158055 10.6068845 36.08152681 14.00471512 32.67578125 18.20703125 C27.17902516 24.08817588 21.02617691 26.07695145 13.1875 26.375 C4.58046161 26.21501787 -1.96206687 23.03793313 -8 17 C-10.75743918 13.51559958 -12.01339903 10.80394187 -11.9375 6.25 C-11 3 -11 3 -9.9375 1.0625 C-6.74578758 -0.68779391 -3.49320562 -0.64479049 0 0 Z " fill="#000000" transform="translate(243,201)"/>
<path d="M0 0 C2.875 2.4375 2.875 2.4375 5 5 C6.04342781 6.23836166 6.04342781 6.23836166 8.3125 6.375 C11.23855337 6.26115282 11.23855337 6.26115282 13.1875 3.5625 C13.785625 2.716875 14.38375 1.87125 15 1 C18.09173752 -0.54586876 20.59429552 -0.29359521 24 0 C26.68601216 1.90848233 27.7337462 3.32549038 28.9375 6.375 C29.02714428 10.14005985 28.08381838 11.84269943 26 15 C20.51995398 20.54840418 16.75485703 23.13291174 8.8125 23.375 C2.54778281 23.3261659 -1.35380122 22.21133288 -6 18 C-9.15859388 14.51744777 -10.87676528 12.33093493 -11.3125 7.625 C-11 4 -11 4 -9.4375 1.5625 C-6.01685857 -0.63021887 -3.99048721 -0.63007693 0 0 Z " fill="#000000" transform="translate(423,279)"/>
<path d="M0 0 C2.875 2.4375 2.875 2.4375 5 5 C6.04342781 6.23836166 6.04342781 6.23836166 8.3125 6.375 C11.23855337 6.26115282 11.23855337 6.26115282 13.1875 3.5625 C13.785625 2.716875 14.38375 1.87125 15 1 C18.09173752 -0.54586876 20.59429552 -0.29359521 24 0 C26.4375 1.5625 26.4375 1.5625 28 4 C28.62723542 8.23383909 28.32073013 10.39417642 26.3125 14.1875 C22.41273391 18.93045876 18.23995544 22.63576972 12.01171875 23.3359375 C3.92169117 23.43100245 -0.7397884 23.09523757 -6.71484375 17.3515625 C-9.62915497 14.21096358 -12.11469848 11.47324054 -12 7 C-9.3073268 0.33242828 -7.18099219 -0.73027039 0 0 Z " fill="#000000" transform="translate(72,279)"/>
<path d="M0 0 C4.05974539 0.84578029 5.40053445 2.43295767 8 5.625 C8.64697266 8.8671875 8.64697266 8.8671875 8.6640625 12.5 C8.67050781 13.81484375 8.67695313 15.1296875 8.68359375 16.484375 C8.67312012 17.16435547 8.66264648 17.84433594 8.65185547 18.54492188 C8.62506008 20.62034681 8.65162887 22.69036676 8.68359375 24.765625 C8.67714844 26.08046875 8.67070312 27.3953125 8.6640625 28.75 C8.65842285 29.94882813 8.6527832 31.14765625 8.64697266 32.3828125 C7.81765737 36.53877739 6.29288697 38.03434771 3 40.625 C-0.5625 41.25 -0.5625 41.25 -4 40.625 C-6.78973487 37.92495416 -7.89902496 36.23870642 -8.53344727 32.3828125 C-8.59918242 25.13733736 -8.59918242 25.13733736 -8.57641602 22.70507812 C-8.56253267 20.62988329 -8.59666179 18.5591905 -8.63476562 16.484375 C-8.63283203 15.16953125 -8.63089844 13.8546875 -8.62890625 12.5 C-8.62963135 11.30117187 -8.63035645 10.10234375 -8.63110352 8.8671875 C-7.65557542 3.85557703 -5.01062003 1.04387917 0 0 Z " fill="#000000" transform="translate(256,152.375)"/>
</svg>
