<?xml version="1.0" encoding="UTF-8"?>
<svg version="1.1" xmlns="http://www.w3.org/2000/svg" width="512" height="512">
<path d="M0 0 C0.87055625 -0.00507454 1.7411125 -0.01014909 2.63804924 -0.0153774 C3.60542358 -0.01587516 4.57279791 -0.01637292 5.56948662 -0.01688576 C6.58881275 -0.02126801 7.60813888 -0.02565027 8.65835369 -0.03016531 C12.10276265 -0.04360913 15.547146 -0.04974485 18.99157524 -0.0558567 C21.45011322 -0.06375376 23.90865003 -0.07202246 26.36718559 -0.08063698 C33.77068753 -0.10464852 41.17418525 -0.11980038 48.57771283 -0.13269705 C50.67028062 -0.13640838 52.76284774 -0.14038173 54.85541487 -0.14444971 C67.85639758 -0.16970252 80.85738134 -0.191751 93.85838318 -0.20417786 C96.87250713 -0.2071075 99.88663106 -0.21006915 102.90075493 -0.21308327 C104.02445708 -0.21420234 104.02445708 -0.21420234 105.17086028 -0.21534403 C117.27900603 -0.22797005 129.38700401 -0.26115187 141.49508084 -0.3028851 C153.93549241 -0.34541046 166.37582865 -0.36888572 178.81631267 -0.37409842 C185.79714788 -0.37750225 192.77775289 -0.38913374 199.75851631 -0.42220116 C206.3363537 -0.45330845 212.91386475 -0.45855923 219.49178886 -0.4468174 C221.89789002 -0.44659741 224.30401021 -0.45483975 226.71004677 -0.47247124 C242.8420479 -0.58418554 256.65502943 0.26984202 270.48327446 9.44951439 C271.56608696 10.1468972 272.64889946 10.84428001 273.76452446 11.56279564 C280.64349183 16.69769518 284.99964484 23.21933715 288.48327446 30.94951439 C289.10637505 32.29505394 289.10637505 32.29505394 289.74206352 33.66777611 C295.29210169 45.78917182 300.45141133 58.08897748 305.66615105 70.3571682 C309.75242954 79.96089911 313.89624983 89.53973088 318.03634453 99.12035179 C324.4428084 113.94764745 330.83523958 128.78091638 337.20202446 143.62529564 C337.71805733 144.82734138 338.23409019 146.02938713 338.76576042 147.26785851 C341.34369679 153.2765359 343.91149487 159.28920178 346.45959282 165.31059837 C350.72528657 175.36996885 355.01069055 185.37606057 359.83093071 195.18388939 C367.15956561 210.2866501 371.3119366 222.97815796 371.23327446 239.94951439 C371.22868217 241.11722374 371.22868217 241.11722374 371.22399712 242.30852318 C371.10327384 250.50152219 370.90414976 256.1027102 364.98327446 262.13701439 C360.95703178 264.15013573 357.33555595 264.17718229 352.98327446 263.13701439 C348.93064817 260.84230413 345.36208517 257.82162052 341.69811821 254.96513939 C333.3457354 248.48091259 324.32904648 245.3270427 314.12463188 243.04765892 C310.30614369 242.12588296 308.35139774 241.48925561 305.44811821 238.71123314 C303.98327446 236.13701439 303.98327446 236.13701439 304.04577446 232.51201439 C304.97932666 229.15122648 305.31297649 228.17152713 307.98327446 226.13701439 C324.01217884 223.08673781 341.16614124 233.8058778 353.98327446 242.13701439 C355.07938912 232.98306107 355.07938912 232.98306107 352.43639946 224.41826439 C350.10180125 221.99846187 347.72943916 220.07840027 344.98327446 218.13701439 C343.99327446 217.42931908 343.00327446 216.72162376 341.98327446 215.99248314 C325.04861345 204.80647544 305.64457598 200.40964151 285.67077446 204.38701439 C269.61758528 208.28306929 257.64541935 216.43583053 246.04968071 228.07842064 C242.96093864 231.04333786 241.77424726 232.096102 237.35827446 232.32451439 C233.38501341 230.92651513 231.87289433 229.16505916 228.98327446 226.13701439 C222.17268293 219.44311524 215.62084465 214.24212646 206.98327446 210.13701439 C206.25753227 209.75931908 205.53179008 209.38162376 204.78405571 208.99248314 C188.18834304 200.80199278 169.03038045 201.39090061 151.82702446 207.20342064 C140.45915044 211.64216526 129.43029008 218.32824487 121.73327446 227.94951439 C119.86633602 230.28318744 118.84088887 231.29653956 115.98327446 232.13701439 C108.30850924 231.97017167 104.05032206 226.20406199 98.98327446 221.13701439 C85.0962536 207.96581935 67.37120234 202.50277946 48.40905571 202.86357689 C28.59753673 203.74837168 11.76583482 212.86645185 -1.76672554 227.07451439 C-2.44219429 227.82603783 -3.11766304 228.57756126 -3.81360054 229.35185814 C-6.56085043 231.57790991 -8.51957448 231.91991729 -12.01672554 232.13701439 C-15.40469135 230.73224808 -16.98358851 229.17772883 -19.30578804 226.32451439 C-30.7486229 212.41142673 -48.53566925 205.25304192 -66.01672554 203.13701439 C-86.41157253 201.42336452 -104.45695561 208.26484108 -120.01672554 221.13701439 C-120.70250679 221.59334251 -121.38828804 222.04967064 -122.09485054 222.51982689 C-124.08487333 223.99839522 -124.98514003 224.8622361 -126.01672554 227.13701439 C-126.49667473 232.1924792 -126.36430144 237.07785402 -126.01672554 242.13701439 C-125.24070992 241.62912376 -124.46469429 241.12123314 -123.66516304 240.59795189 C-101.98809411 226.78464066 -78.6377992 221.31220217 -53.07141304 226.16679955 C-38.34957915 229.53588843 -25.61103843 236.64054163 -14.01672554 246.13701439 C-12.68849915 247.14378767 -11.35714897 248.14653834 -10.01672554 249.13701439 C-9.19172554 248.43576439 -8.36672554 247.73451439 -7.51672554 247.01201439 C13.81171955 229.31913527 36.46622342 223.5489097 63.98327446 225.13701439 C82.50213196 227.26224248 99.53969305 236.46383879 112.98327446 249.13701439 C116.30161786 247.65547611 118.78368802 245.73501538 121.54577446 243.38701439 C141.20344333 227.47092232 164.34054301 223.32378194 188.98327446 225.13701439 C207.92037884 227.60079863 223.59446703 237.1203314 237.98327446 249.13701439 C238.44475883 248.78510033 238.90624321 248.43318626 239.38171196 248.07060814 C241.57230226 246.41251311 243.77805215 244.77559202 245.98327446 243.13701439 C246.71932915 242.57240501 247.45538383 242.00779564 248.21374321 241.42607689 C253.12593317 237.78924613 258.15280412 234.91091406 263.67077446 232.32451439 C264.28831596 232.03455589 264.90585747 231.7445974 265.54211235 231.44585228 C272.30327954 228.3817892 278.57479601 226.28686112 285.98327446 227.13701439 C289.01118486 229.71073823 289.84490155 231.28948033 290.48327446 235.19951439 C289.84836254 238.92962191 288.89625907 239.75620966 285.98327446 242.13701439 C283.47674692 243.18986886 281.05405921 244.09915922 278.48327446 244.94951439 C267.47787395 248.86074129 258.72058595 254.11189153 250.15905571 262.11357689 C246.44047821 265.5717872 243.73060026 267.88285791 238.54577446 268.63701439 C232.19271418 267.74535681 228.63458201 264.94151277 224.42077446 260.38701439 C213.89163858 249.4285351 196.91249005 242.45112765 181.81921196 241.80107689 C161.54223555 241.46211408 143.42751927 245.63191542 128.42077446 259.94951439 C127.5119854 260.8634597 126.60319633 261.77740501 125.66686821 262.71904564 C122.34013941 265.71649124 119.20484258 267.82400995 114.70983696 268.45732689 C107.91990816 267.82629261 104.72797757 264.78324252 99.98327446 260.13701439 C84.64883224 246.19413188 66.83871856 241.24220887 46.39733696 241.79717064 C29.94244205 242.60243457 14.87136586 249.60757787 3.13171196 261.05888939 C-1.14582918 265.19643828 -4.26952518 267.87784454 -10.32922554 268.44951439 C-16.78909781 267.90206759 -19.99555191 264.15742146 -24.51672554 259.88701439 C-40.45626905 245.35953254 -59.36220798 241.21914506 -80.40344429 241.9622097 C-94.72563898 242.92023394 -107.88076313 249.53847508 -118.76672554 258.57451439 C-122.48522011 261.62129535 -125.49993571 263.83753789 -130.45422554 264.07451439 C-135.28925153 263.54691383 -137.75467543 261.64999143 -141.01672554 258.13701439 C-146.10561257 247.95924033 -144.01119614 226.57987752 -140.92688179 215.90801048 C-138.25781593 207.9283372 -134.41830566 200.38090438 -130.71411324 192.84338951 C-125.74946512 182.6936899 -121.44008711 172.26065409 -117.04049873 161.85722923 C-114.47502386 155.80420677 -111.8805292 149.76367542 -109.28625679 143.72295189 C-108.76622581 142.51129356 -108.24619484 141.29963524 -107.71040535 140.05125999 C-101.29955468 125.12341241 -94.83052009 110.22081437 -88.34900093 95.32353783 C-83.72847174 84.70179216 -79.12393589 74.07382498 -74.56360054 63.42607689 C-73.69233245 61.39512246 -72.82099596 59.36419738 -71.94958687 57.33330345 C-70.33694804 53.5746399 -68.73095521 49.81323629 -67.12878609 46.05010033 C-59.26007346 27.65636637 -52.20089542 12.75774895 -33.01672554 4.13701439 C-28.91766712 3.52651633 -27.51622107 3.76782204 -24.14172554 6.26201439 C-22.01672554 9.13701439 -22.01672554 9.13701439 -21.39172554 12.13701439 C-22.20759968 16.05321024 -23.86909075 17.86762592 -27.01672554 20.13701439 C-28.63632819 21.04256925 -30.2618745 21.93753753 -31.89172554 22.82451439 C-42.44811095 29.04236396 -46.45197069 40.95300402 -50.95422554 51.76201439 C-51.54756254 53.16220534 -52.14195717 54.56194861 -52.73742867 55.96123314 C-54.1760597 59.34809943 -55.60039189 62.740753 -57.01672554 66.13701439 C-55.92617867 65.84826439 -54.83563179 65.55951439 -53.71203804 65.26201439 C-30.71387974 59.4725564 -11.75167835 61.76081055 8.98327446 73.13701439 C10.30327446 73.79701439 11.62327446 74.45701439 12.98327446 75.13701439 C17.27327446 55.33701439 21.56327446 35.53701439 25.98327446 15.13701439 C16.08327446 15.13701439 6.18327446 15.13701439 -4.01672554 15.13701439 C-7.34842305 11.80531688 -7.83330052 10.72263997 -8.01672554 6.13701439 C-5.8018411 1.60656894 -4.95495179 0.01525514 0 0 Z M42.98327446 15.13701439 C39.77137137 27.8866035 39.77137137 27.8866035 36.80749321 40.68779564 C36.54607285 41.87504486 36.54607285 41.87504486 36.27937126 43.08627892 C35.92107859 44.71967048 35.56414561 46.35336093 35.20861626 47.98735619 C34.66105622 50.494003 34.10238842 52.99803464 33.54382133 55.50224876 C33.19353079 57.10561572 32.84389555 58.70912602 32.49499321 60.31279564 C32.32738991 61.05644875 32.15978661 61.80010185 31.98710442 62.5662899 C31.26989224 65.91987394 30.8783184 67.8221462 31.98327446 71.13701439 C33.05641899 70.64781517 33.05641899 70.64781517 34.15124321 70.14873314 C52.89284412 61.92958345 71.86235849 60.28347381 91.30749321 67.34404564 C96.33433612 69.39064466 101.12319519 71.70697475 105.98327446 74.13701439 C105.98327446 54.66701439 105.98327446 35.19701439 105.98327446 15.13701439 C85.19327446 15.13701439 64.40327446 15.13701439 42.98327446 15.13701439 Z M121.98327446 15.13701439 C121.98327446 34.60701439 121.98327446 54.07701439 121.98327446 74.13701439 C126.93327446 71.82701439 131.88327446 69.51701439 136.98327446 67.13701439 C158.04519125 60.62301951 176.92199728 62.27690748 196.98327446 71.13701439 C195.44700253 60.79864873 193.24356919 50.61014032 191.04211235 40.3972683 C190.41486244 37.48456124 189.79354974 34.57062873 189.17272758 31.65654564 C188.77529204 29.80360575 188.37751818 27.95073839 187.97936821 26.09795189 C187.79393959 25.22722038 187.60851097 24.35648888 187.4174633 23.45937157 C186.55262908 19.18263676 186.55262908 19.18263676 184.98327446 15.13701439 C164.19327446 15.13701439 143.40327446 15.13701439 121.98327446 15.13701439 Z M201.98327446 15.13701439 C202.54367498 22.58361961 203.80953586 29.72929788 205.41686821 37.01592064 C205.65486641 38.10920174 205.89286461 39.20248283 206.13807487 40.32889366 C206.63866976 42.61949199 207.14220547 44.90944944 207.64855766 47.19878197 C208.42491954 50.71830549 209.18596627 54.24092191 209.94616508 57.76396751 C210.43547919 59.99398735 210.92568143 62.22381253 211.41686821 64.45342064 C211.75759613 66.03915634 211.75759613 66.03915634 212.10520744 67.65692711 C212.32205696 68.62561226 212.53890648 69.59429741 212.76232719 70.59233665 C212.95028358 71.44819862 213.13823997 72.30406059 213.33189201 73.18585777 C213.79464642 75.3371927 213.79464642 75.3371927 215.98327446 76.13701439 C217.99072472 75.07033056 217.99072472 75.07033056 220.23327446 73.51201439 C226.47047518 69.63068832 233.00012074 67.3321932 239.98327446 65.13701439 C240.72964165 64.88822533 241.47600883 64.63943626 242.24499321 64.38310814 C253.75683165 61.14893742 266.64829627 62.44092696 277.9444561 65.80156517 C281.9341114 67.01320791 281.9341114 67.01320791 285.98327446 66.13701439 C284.21284575 61.97107475 282.43443653 57.8086661 280.6488018 53.64922142 C280.04344812 52.23608379 279.44022055 50.82203329 278.83923149 49.40703392 C277.97105876 47.36402047 277.09509199 45.32449839 276.21764946 43.28545189 C275.95393547 42.66020622 275.69022148 42.03496056 275.41851616 41.39076805 C273.65566093 37.32098586 271.52609038 33.76428574 268.98327446 30.13701439 C268.44702446 29.31201439 267.91077446 28.48701439 267.35827446 27.63701439 C258.94989383 18.78608741 246.79193658 15.55181938 234.91976738 15.04974937 C232.79437878 15.02262366 230.67127622 15.02421187 228.54577446 15.03935814 C227.78023247 15.04077309 227.01469048 15.04218803 226.22595024 15.04364586 C223.81168304 15.04918586 221.39751302 15.0617266 218.98327446 15.07451439 C217.33353623 15.07953716 215.68379652 15.0840987 214.03405571 15.08818626 C210.01709191 15.09913553 206.00019959 15.11635773 201.98327446 15.13701439 Z M-71.01672554 96.13701439 C-74.19788727 101.27712538 -76.37380066 106.92875946 -78.64172554 112.51201439 C-79.2683663 113.98823853 -79.89725998 115.46350844 -80.52844429 116.93779564 C-83.74531406 123.81353089 -83.74531406 123.81353089 -85.01672554 131.13701439 C-84.4920771 130.95525658 -83.96742867 130.77349876 -83.42688179 130.58623314 C-59.81843332 122.92625402 -36.23221659 122.98444376 -13.85022163 134.16679955 C-9.38353589 136.53039597 -5.15924621 139.24953706 -1.01672554 142.13701439 C1.81223047 132.35215477 4.07816768 122.46515444 6.23327446 112.51201439 C6.63860405 110.66204857 6.63860405 110.66204857 7.05212212 108.7747097 C7.30268364 107.60262962 7.55324516 106.43054955 7.81139946 105.22295189 C8.15026176 103.64586449 8.15026176 103.64586449 8.49596977 102.03691673 C8.95537589 99.30303604 9.2141671 96.89873026 8.98327446 94.13701439 C0.16307824 84.22836843 -13.51005536 78.92206747 -26.46985054 77.85185814 C-43.42556544 77.42236316 -59.75632558 83.03028689 -71.01672554 96.13701439 Z M34.98327446 87.13701439 C34.18204155 87.64990013 33.38080864 88.16278587 32.55529594 88.69121361 C23.29738194 95.60795755 22.23228419 104.27029249 20.29577446 115.01201439 C19.95088314 116.72884999 19.60260029 118.44500791 19.25085258 120.16045189 C17.23182019 128.19075258 17.23182019 128.19075258 17.98327446 136.13701439 C18.68710258 135.75029564 19.39093071 135.36357689 20.11608696 134.96513939 C30.39270756 129.54509406 41.28218358 125.59738518 52.98327446 125.13701439 C54.01710258 125.08545189 55.05093071 125.03388939 56.11608696 124.98076439 C72.47319309 124.54164745 87.51903763 128.79189347 101.71032524 136.74297142 C102.51285728 137.19173637 103.31538933 137.64050133 104.14224052 138.10286522 C104.74978172 138.44413445 105.35732292 138.78540367 105.98327446 139.13701439 C106.2066854 133.01746423 106.36949327 126.90031309 106.47765923 120.77763939 C106.52276787 118.69779148 106.58407536 116.61822659 106.66222954 114.53935814 C107.52100225 102.86983269 107.52100225 102.86983269 104.14416313 92.06206322 C101.85408436 89.97666548 99.73342844 88.54343094 96.98327446 87.13701439 C95.96620415 86.48088158 94.94913383 85.82474876 93.90124321 85.14873314 C74.53418662 75.7561263 53.48723956 74.99804957 34.98327446 87.13701439 Z M130.98327446 87.13701439 C130.20911186 87.53291771 129.43494926 87.92882103 128.63732719 88.33672142 C125.49859389 90.36129239 123.91565519 91.90611895 121.98327446 95.13701439 C120.44997424 102.47767536 121.14102136 110.19569915 121.42077446 117.63701439 C121.46595683 119.72026152 121.50701483 121.80360244 121.54382133 123.88701439 C121.64262192 128.9726745 121.7976982 134.05381105 121.98327446 139.13701439 C122.68524956 138.74159447 123.38722466 138.34617455 124.11047173 137.9387722 C129.60404696 134.8859053 135.01342956 132.04109912 140.92077446 129.88701439 C141.60188286 129.63741966 142.28299126 129.38782494 142.9847393 129.13066673 C163.68454145 121.80970878 185.91490863 124.53205483 205.70983696 133.35185814 C207.49039135 134.23584362 209.24218284 135.17763738 210.98327446 136.13701439 C210.52055375 133.32288401 210.05319755 130.50962018 209.58093071 127.69707298 C209.18766755 125.35452255 208.79950493 123.01110917 208.41686821 120.66679955 C207.8150688 117.08539562 207.15357619 113.51867851 206.48327446 109.94951439 C206.28991508 108.74359642 206.09655571 107.53767845 205.89733696 106.29521751 C204.10354053 97.06925893 200.64195482 92.50853843 192.98327446 87.13701439 C174.05702343 74.7210217 149.93644246 74.90993896 130.98327446 87.13701439 Z M220.21374321 91.93779564 C217.1954426 97.3324091 220.50451766 106.22864108 221.76061821 112.03935814 C221.93202827 112.84313393 222.10343834 113.64690971 222.28004265 114.47504234 C222.63999394 116.15526146 223.00227658 117.83498273 223.36681938 119.51421165 C223.92422278 122.09045202 224.46868451 124.66921898 225.01257133 127.24834251 C225.36530775 128.8871823 225.71879613 130.52586045 226.07311821 132.16435814 C226.23464882 132.93513191 226.39617943 133.70590569 226.5626049 134.50003624 C227.43494568 138.74025786 227.43494568 138.74025786 229.98327446 142.13701439 C230.51952446 141.71291283 231.05577446 141.28881126 231.60827446 140.85185814 C248.6076759 128.1302666 269.18593698 122.69186625 290.28405571 125.71123314 C298.01671196 126.94061858 305.57213112 128.56951756 312.98327446 131.13701439 C311.96753998 124.89153076 309.34828309 119.22894053 306.90295219 113.43681908 C306.33642847 112.08206738 305.7808557 110.72267841 305.23693657 109.35869408 C300.0447776 96.34907397 293.07603101 88.33904546 280.04577446 82.35576439 C258.81167979 73.90546141 238.11570518 78.32372875 220.21374321 91.93779564 Z M-80.20422554 146.69951439 C-80.82080025 146.98504173 -81.43737495 147.27056908 -82.07263374 147.56474876 C-94.49655989 153.91109939 -100.81226299 162.9016867 -105.88293648 175.398489 C-106.78046234 177.60833651 -107.7189075 179.79725298 -108.66516304 181.98662376 C-109.25869716 183.38860986 -109.84993363 184.79157144 -110.43860054 186.19560814 C-110.71548714 186.84871468 -110.99237373 187.50182121 -111.27765083 188.17471886 C-112.88195249 192.06620558 -112.88195249 192.06620558 -112.01672554 196.13701439 C-110.92617867 195.64781517 -110.92617867 195.64781517 -109.81360054 195.14873314 C-87.67949859 185.52891191 -63.95340128 184.12336979 -41.20422554 192.44951439 C-31.83426495 196.317953 -23.32094715 201.35481564 -15.01672554 207.13701439 C-12.40775318 197.11549114 -10.01745629 187.04305975 -7.70422554 176.94951439 C-7.42562691 175.76768578 -7.14702827 174.58585716 -6.85998726 173.36821556 C-6.60620308 172.24648949 -6.3524189 171.12476341 -6.09094429 169.96904564 C-5.85979927 168.96591331 -5.62865425 167.96278099 -5.39050484 166.92925072 C-4.99749182 163.9933331 -5.18774189 161.96804866 -6.01672554 159.13701439 C-13.98600271 148.76660435 -29.17694572 142.71142106 -41.65344429 140.53545189 C-55.29414883 138.91947992 -67.804145 140.76949138 -80.20422554 146.69951439 Z M13.98327446 158.13701439 C13.21034302 158.82155945 13.21034302 158.82155945 12.4217968 159.5199337 C9.96335852 162.28352865 9.65609113 165.91918918 8.94030571 169.45342064 C8.76698219 170.26568611 8.59365868 171.07795158 8.41508293 171.91483116 C7.86476157 174.50762824 7.3303676 177.10343401 6.79577446 179.69951439 C6.42501586 181.45167648 6.05328232 183.20363258 5.68054008 184.95537376 C3.8121331 192.49071469 3.8121331 192.49071469 2.98327446 200.13701439 C6.05601958 198.94855786 9.06588746 197.65731639 12.06530571 196.29717064 C36.81163997 185.21821288 60.79634552 184.02115507 86.40124321 193.53154564 C91.92046083 196.00526259 96.99339469 199.1128641 102.09655571 202.34404564 C104.55848493 204.22495112 104.55848493 204.22495112 105.98327446 204.13701439 C106.18190267 198.15983317 106.32660622 192.18459536 106.42272758 186.20488548 C106.46281622 184.17362039 106.517305 182.14258411 106.58679008 180.11211205 C107.35207762 168.78366657 107.35207762 168.78366657 104.4041729 158.1262722 C102.38035389 156.03431114 100.49008028 154.6011863 97.98327446 153.13701439 C97.39675102 152.72129173 96.81022758 152.30556908 96.20593071 151.87724876 C69.87304018 133.76947725 37.39446612 137.30238652 13.98327446 158.13701439 Z M121.98327446 161.13701439 C121.89058447 162.48796421 121.8658012 163.8436853 121.86974907 165.1978054 C121.8698246 166.05862221 121.86990013 166.91943901 121.86997795 167.80634117 C121.87513924 168.7417524 121.88030052 169.67716362 121.88561821 170.64092064 C121.88703316 171.59393562 121.8884481 172.54695061 121.88990593 173.52884483 C121.89552294 176.58576604 121.9080783 179.64261516 121.92077446 182.69951439 C121.92578727 184.76657063 121.93035055 186.83362801 121.93444633 188.90068626 C121.9454979 193.97949027 121.96277391 199.05824009 121.98327446 204.13701439 C122.71062798 203.74014427 123.43798149 203.34327415 124.18737602 202.93437767 C126.18346396 201.84539122 128.17989591 200.75703515 130.17663383 199.66924095 C132.17315592 198.57928161 134.16557773 197.48179706 136.15514946 196.37920189 C155.59479313 186.07029994 179.85654044 183.88133222 200.98327446 190.13701439 C209.40011068 193.01742643 217.33155822 196.60966603 224.98327446 201.13701439 C224.52055375 198.32288401 224.05319755 195.50962018 223.58093071 192.69707298 C223.18766755 190.35452255 222.79950493 188.01110917 222.41686821 185.66679955 C221.8150688 182.08539562 221.15357619 178.51867851 220.48327446 174.94951439 C220.28991508 173.74359642 220.09655571 172.53767845 219.89733696 171.29521751 C218.09696584 162.03544357 214.60778694 157.57716218 206.98327446 152.13701439 C205.94557915 151.38806908 204.90788383 150.63912376 203.83874321 149.86748314 C175.48485924 133.4695561 144.81091821 138.30937064 121.98327446 161.13701439 Z M234.58093071 157.63310814 C231.31967086 162.74427578 234.52811186 171.20123743 235.76061821 176.94170189 C235.93202827 177.74689262 236.10343834 178.55208336 236.28004265 179.38167381 C236.64046499 181.06776691 237.00274739 182.75346339 237.36681938 184.4387722 C237.92336693 187.02405697 238.46813254 189.61165611 239.01257133 192.19951439 C239.3653707 193.84289749 239.71886154 195.48613232 240.07311821 197.12920189 C240.23464882 197.90311272 240.39617943 198.67702354 240.5626049 199.47438622 C241.43136116 203.72861894 241.43136116 203.72861894 243.98327446 207.13701439 C244.91333305 206.3925808 244.91333305 206.3925808 245.86218071 205.63310814 C264.73567266 191.15518927 287.47875069 184.98656201 311.16589165 187.35527611 C320.60341923 188.60935205 329.23330728 191.44582945 337.98327446 195.13701439 C339.46827446 195.63201439 339.46827446 195.63201439 340.98327446 196.13701439 C339.97617669 189.83486648 337.23486091 184.15213475 334.73815727 178.3269558 C333.8666151 176.28158852 333.01870501 174.22741626 332.17077446 172.17217064 C329.16578647 165.05126628 326.25984233 158.95461309 319.98327446 154.13701439 C319.11444633 153.46412376 318.24561821 152.79123314 317.35046196 152.09795189 C290.0375875 134.71703178 259.34469329 136.95085318 234.58093071 157.63310814 Z " fill="#000000" transform="translate(142.01672554016113,122.86298561096191)"/>
</svg>
